G75*
%MOIN*%
%OFA0B0*%
%FSLAX24Y24*%
%IPPOS*%
%LPD*%
%AMOC8*
5,1,8,0,0,1.08239X$1,22.5*
%
%ADD10C,0.0060*%
%ADD11C,0.0030*%
%ADD12C,0.0000*%
%ADD13C,0.0040*%
%ADD14C,0.0050*%
%ADD15C,0.0080*%
%ADD16C,0.0250*%
%ADD17R,0.0660X0.0380*%
%ADD18C,0.0100*%
%ADD19R,0.0059X0.0118*%
%ADD20R,0.0118X0.0118*%
D10*
X010190Y006153D02*
X010297Y006046D01*
X010511Y006046D01*
X010617Y006153D01*
X010617Y006473D01*
X010724Y006473D02*
X010831Y006366D01*
X010831Y006259D01*
X010724Y006473D02*
X010190Y006473D01*
X010190Y006153D01*
X010190Y006690D02*
X010617Y006690D01*
X010404Y006690D02*
X010190Y006904D01*
X010190Y007011D01*
X010297Y007228D02*
X010511Y007228D01*
X010617Y007334D01*
X010617Y007548D01*
X010511Y007655D01*
X010297Y007655D01*
X010190Y007548D01*
X010190Y007334D01*
X010297Y007228D01*
X010766Y007654D02*
X010766Y008154D01*
X011016Y008404D01*
X011516Y008404D01*
X011766Y008154D01*
X012016Y008404D01*
X012516Y008404D01*
X012766Y008154D01*
X013016Y008404D01*
X013516Y008404D01*
X013766Y008154D01*
X014016Y008404D01*
X014516Y008404D01*
X014766Y008154D01*
X015016Y008404D01*
X015516Y008404D01*
X015766Y008154D01*
X016016Y008404D01*
X016516Y008404D01*
X016766Y008154D01*
X016766Y007654D01*
X016516Y007404D01*
X016016Y007404D01*
X015766Y007654D01*
X015516Y007404D01*
X015016Y007404D01*
X014766Y007654D01*
X014516Y007404D01*
X014016Y007404D01*
X013766Y007654D01*
X013516Y007404D01*
X013016Y007404D01*
X012766Y007654D01*
X012516Y007404D01*
X012016Y007404D01*
X011766Y007654D01*
X011516Y007404D01*
X011016Y007404D01*
X010766Y007654D01*
X010511Y007872D02*
X010297Y007872D01*
X010190Y007979D01*
X010190Y008299D01*
X009977Y008299D02*
X010617Y008299D01*
X010617Y007979D01*
X010511Y007872D01*
X010511Y008517D02*
X010404Y008623D01*
X010404Y008944D01*
X010297Y008944D02*
X010617Y008944D01*
X010617Y008623D01*
X010511Y008517D01*
X010190Y008623D02*
X010190Y008837D01*
X010297Y008944D01*
X010190Y009161D02*
X010190Y009482D01*
X010297Y009588D01*
X010617Y009588D01*
X010617Y009806D02*
X010617Y010126D01*
X010511Y010233D01*
X010404Y010126D01*
X010404Y009913D01*
X010297Y009806D01*
X010190Y009913D01*
X010190Y010233D01*
X010190Y010450D02*
X010190Y010771D01*
X010297Y010877D01*
X010511Y010877D01*
X010617Y010771D01*
X010617Y010450D01*
X010831Y010450D02*
X010190Y010450D01*
X010511Y011095D02*
X010404Y011202D01*
X010404Y011522D01*
X010297Y011522D02*
X010617Y011522D01*
X010617Y011202D01*
X010511Y011095D01*
X010190Y011202D02*
X010190Y011415D01*
X010297Y011522D01*
X010190Y011739D02*
X010617Y011739D01*
X010404Y011739D02*
X010190Y011953D01*
X010190Y012060D01*
X010511Y012277D02*
X010404Y012383D01*
X010404Y012704D01*
X010297Y012704D02*
X010617Y012704D01*
X010617Y012383D01*
X010511Y012277D01*
X010190Y012383D02*
X010190Y012597D01*
X010297Y012704D01*
X010297Y012921D02*
X010190Y013028D01*
X010190Y013348D01*
X009977Y013348D02*
X010617Y013348D01*
X010617Y013028D01*
X010511Y012921D01*
X010297Y012921D01*
X010190Y013566D02*
X010190Y013672D01*
X010617Y013672D01*
X010617Y013566D02*
X010617Y013779D01*
X010617Y013995D02*
X010617Y014316D01*
X010511Y014422D01*
X010404Y014316D01*
X010404Y014102D01*
X010297Y013995D01*
X010190Y014102D01*
X010190Y014422D01*
X010511Y014640D02*
X010511Y014747D01*
X010617Y014747D01*
X010617Y014640D01*
X010511Y014640D01*
X010511Y014962D02*
X010297Y014962D01*
X010190Y015069D01*
X010190Y015389D01*
X010617Y015389D02*
X010617Y015069D01*
X010511Y014962D01*
X010511Y015607D02*
X010297Y015607D01*
X010190Y015713D01*
X010190Y015927D01*
X010297Y016034D01*
X010511Y016034D01*
X010617Y015927D01*
X010617Y015713D01*
X010511Y015607D01*
X010617Y016251D02*
X010190Y016251D01*
X010190Y016358D01*
X010297Y016465D01*
X010190Y016572D01*
X010297Y016678D01*
X010617Y016678D01*
X010617Y016465D02*
X010297Y016465D01*
X009546Y016815D02*
X009546Y017242D01*
X009440Y017348D01*
X009119Y017348D01*
X009119Y016708D01*
X009440Y016708D01*
X009546Y016815D01*
X008902Y017348D02*
X008475Y016708D01*
X008257Y016708D02*
X008257Y017135D01*
X008044Y017348D01*
X007830Y017135D01*
X007830Y016708D01*
X007830Y017028D02*
X008257Y017028D01*
X006968Y017135D02*
X006648Y017135D01*
X006541Y017028D01*
X006648Y016921D01*
X006862Y016921D01*
X006968Y016815D01*
X006862Y016708D01*
X006541Y016708D01*
X006324Y016708D02*
X006324Y017135D01*
X006324Y016708D02*
X006003Y016708D01*
X005897Y016815D01*
X005897Y017135D01*
X005574Y017135D02*
X005574Y016708D01*
X005467Y016708D02*
X005681Y016708D01*
X005249Y016708D02*
X005249Y017028D01*
X005143Y017135D01*
X004822Y017135D01*
X004822Y016708D01*
X004606Y016708D02*
X004393Y016708D01*
X004500Y016708D02*
X004500Y017348D01*
X004393Y017348D01*
X004070Y017348D02*
X004070Y017455D01*
X003746Y017348D02*
X003746Y016921D01*
X003532Y016708D01*
X003319Y016921D01*
X003319Y017348D01*
X003963Y017135D02*
X004070Y017135D01*
X004070Y016708D01*
X003963Y016708D02*
X004177Y016708D01*
X005467Y017135D02*
X005574Y017135D01*
X005574Y017348D02*
X005574Y017455D01*
X005275Y015098D02*
X005275Y014778D01*
X005055Y014778D01*
X004375Y014778D02*
X004155Y014778D01*
X004155Y015098D01*
X009870Y013672D02*
X009977Y013672D01*
X007074Y011479D02*
X006854Y011479D01*
X007074Y011479D02*
X007074Y011159D01*
X006174Y011479D02*
X005954Y011479D01*
X005954Y011159D01*
X005919Y008917D02*
X005919Y008597D01*
X006139Y008597D01*
X006819Y008597D02*
X007039Y008597D01*
X007039Y008917D01*
X008486Y007610D02*
X008806Y007610D01*
X008806Y007390D01*
X008806Y006710D02*
X008806Y006490D01*
X008486Y006490D01*
X010190Y009161D02*
X010617Y009161D01*
X014133Y005633D02*
X014076Y005577D01*
X014076Y005350D01*
X014133Y005293D01*
X014247Y005293D01*
X014303Y005350D01*
X014445Y005350D02*
X014501Y005293D01*
X014615Y005293D01*
X014672Y005350D01*
X014672Y005406D01*
X014615Y005463D01*
X014558Y005463D01*
X014615Y005463D02*
X014672Y005520D01*
X014672Y005577D01*
X014615Y005633D01*
X014501Y005633D01*
X014445Y005577D01*
X014303Y005577D02*
X014247Y005633D01*
X014133Y005633D01*
X016172Y005624D02*
X016172Y005844D01*
X016172Y005624D02*
X016492Y005624D01*
X016172Y006524D02*
X016172Y006744D01*
X016492Y006744D01*
X019840Y006809D02*
X019840Y006909D01*
X019940Y006909D01*
X020340Y006909D02*
X020440Y006909D01*
X020440Y006809D01*
X020793Y006809D02*
X020793Y006909D01*
X020893Y006909D01*
X021293Y006909D02*
X021393Y006909D01*
X021393Y006809D01*
X021393Y006409D02*
X021393Y006309D01*
X021293Y006309D01*
X020893Y006309D02*
X020793Y006309D01*
X020793Y006409D01*
X020440Y006409D02*
X020440Y006309D01*
X020340Y006309D01*
X019940Y006309D02*
X019840Y006309D01*
X019840Y006409D01*
X024121Y005430D02*
X024121Y004930D01*
X024371Y004680D01*
X024871Y004680D01*
X025121Y004930D01*
X025371Y004680D01*
X025871Y004680D01*
X026121Y004930D01*
X026371Y004680D01*
X026871Y004680D01*
X027121Y004930D01*
X027371Y004680D01*
X027871Y004680D01*
X028121Y004930D01*
X028121Y005430D01*
X027871Y005680D01*
X027371Y005680D01*
X027121Y005430D01*
X026871Y005680D01*
X026371Y005680D01*
X026121Y005430D01*
X025871Y005680D01*
X025371Y005680D01*
X025121Y005430D01*
X024871Y005680D01*
X024371Y005680D01*
X024121Y005430D01*
X024066Y015359D02*
X023716Y015359D01*
X023716Y015459D01*
X023416Y015459D01*
X023416Y015659D01*
X023316Y015459D02*
X023316Y016859D01*
X023766Y016859D01*
X026216Y016859D01*
X026216Y015459D01*
X026116Y015459D02*
X026116Y015659D01*
X026116Y015459D02*
X025816Y015459D01*
X025816Y015359D01*
X025516Y015359D01*
X025516Y015459D01*
X025066Y015459D01*
X025066Y015559D01*
X024466Y015559D01*
X024466Y015459D01*
X024066Y015459D01*
X024066Y015359D01*
X023416Y016259D02*
X023416Y016759D01*
X024516Y016759D01*
X024516Y016359D01*
X025016Y016359D01*
X025016Y016759D01*
X024516Y016759D01*
X024266Y016959D02*
X023766Y016959D01*
X023766Y016859D01*
X024266Y016959D02*
X024266Y017109D01*
X025266Y017109D01*
X025266Y016959D01*
X024266Y016959D01*
X025016Y016759D02*
X026116Y016759D01*
X026116Y016259D01*
X025766Y016859D02*
X025766Y016959D01*
X025266Y016959D01*
D11*
X027062Y015399D02*
X027062Y015153D01*
X027062Y015030D02*
X027062Y014907D01*
X027062Y014969D02*
X027432Y014969D01*
X027432Y015030D02*
X027432Y014907D01*
X027432Y014786D02*
X027062Y014786D01*
X027062Y014539D02*
X027432Y014786D01*
X027432Y014539D02*
X027062Y014539D01*
X027062Y014417D02*
X027062Y014293D01*
X027062Y014355D02*
X027432Y014355D01*
X027432Y014293D02*
X027432Y014417D01*
X027432Y015276D02*
X027062Y015276D01*
X021183Y007683D02*
X021245Y007621D01*
X021245Y007498D01*
X021183Y007436D01*
X020998Y007436D01*
X020998Y007313D02*
X020998Y007683D01*
X021183Y007683D01*
X021122Y007436D02*
X021245Y007313D01*
X020877Y007313D02*
X020753Y007436D01*
X020630Y007313D01*
X020630Y007683D01*
X020508Y007621D02*
X020508Y007498D01*
X020447Y007436D01*
X020262Y007436D01*
X020262Y007313D02*
X020262Y007683D01*
X020447Y007683D01*
X020508Y007621D01*
X020877Y007683D02*
X020877Y007313D01*
X015180Y005047D02*
X015180Y004676D01*
X015057Y004676D02*
X015304Y004676D01*
X015057Y004923D02*
X015180Y005047D01*
X014935Y004985D02*
X014874Y005047D01*
X014750Y005047D01*
X014688Y004985D01*
X014688Y004738D01*
X014750Y004676D01*
X014874Y004676D01*
X014935Y004738D01*
X005987Y005059D02*
X005740Y005059D01*
X005863Y005059D02*
X005863Y005430D01*
X005740Y005306D01*
X005618Y005368D02*
X005371Y005121D01*
X005433Y005059D01*
X005557Y005059D01*
X005618Y005121D01*
X005618Y005368D01*
X005557Y005430D01*
X005433Y005430D01*
X005371Y005368D01*
X005371Y005121D01*
X005250Y005059D02*
X005003Y005059D01*
X004882Y005059D02*
X004758Y005183D01*
X004820Y005183D02*
X004635Y005183D01*
X004635Y005059D02*
X004635Y005430D01*
X004820Y005430D01*
X004882Y005368D01*
X004882Y005244D01*
X004820Y005183D01*
X005003Y005306D02*
X005127Y005430D01*
X005127Y005059D01*
X005445Y004095D02*
X005631Y003910D01*
X005631Y004157D01*
X005816Y004095D02*
X005445Y004095D01*
X005507Y003789D02*
X005445Y003727D01*
X005445Y003604D01*
X005507Y003542D01*
X005754Y003542D01*
X005816Y003604D01*
X005816Y003727D01*
X005754Y003789D01*
X005816Y003420D02*
X005816Y003296D01*
X005809Y003245D02*
X005933Y003245D01*
X005995Y003183D01*
X005748Y002936D01*
X005809Y002874D01*
X005933Y002874D01*
X005995Y002936D01*
X005995Y003183D01*
X005809Y003245D02*
X005748Y003183D01*
X005748Y002936D01*
X005626Y002936D02*
X005565Y002874D01*
X005441Y002874D01*
X005379Y002936D01*
X005626Y003183D01*
X005626Y002936D01*
X005379Y002936D02*
X005379Y003183D01*
X005441Y003245D01*
X005565Y003245D01*
X005626Y003183D01*
X005445Y003296D02*
X005445Y003420D01*
X005445Y003358D02*
X005816Y003358D01*
X005134Y003245D02*
X005134Y002874D01*
X005011Y002874D02*
X005258Y002874D01*
X004890Y002874D02*
X004766Y002998D01*
X004828Y002998D02*
X004643Y002998D01*
X004643Y002874D02*
X004643Y003245D01*
X004828Y003245D01*
X004890Y003183D01*
X004890Y003059D01*
X004828Y002998D01*
X005011Y003121D02*
X005134Y003245D01*
X005119Y006418D02*
X005119Y006788D01*
X004995Y006664D01*
X004874Y006726D02*
X004874Y006603D01*
X004812Y006541D01*
X004627Y006541D01*
X004750Y006541D02*
X004874Y006418D01*
X004995Y006418D02*
X005242Y006418D01*
X005364Y006479D02*
X005610Y006726D01*
X005610Y006479D01*
X005549Y006418D01*
X005425Y006418D01*
X005364Y006479D01*
X005364Y006726D01*
X005425Y006788D01*
X005549Y006788D01*
X005610Y006726D01*
X005732Y006726D02*
X005794Y006788D01*
X005917Y006788D01*
X005979Y006726D01*
X005979Y006664D01*
X005732Y006418D01*
X005979Y006418D01*
X004874Y006726D02*
X004812Y006788D01*
X004627Y006788D01*
X004627Y006418D01*
X004647Y007803D02*
X004647Y008174D01*
X004832Y008174D01*
X004894Y008112D01*
X004894Y007989D01*
X004832Y007927D01*
X004647Y007927D01*
X004770Y007927D02*
X004894Y007803D01*
X005015Y007803D02*
X005262Y007803D01*
X005138Y007803D02*
X005138Y008174D01*
X005015Y008050D01*
X005383Y008112D02*
X005383Y007865D01*
X005630Y008112D01*
X005630Y007865D01*
X005568Y007803D01*
X005445Y007803D01*
X005383Y007865D01*
X005752Y007865D02*
X005813Y007803D01*
X005937Y007803D01*
X005998Y007865D01*
X005998Y007927D01*
X005937Y007989D01*
X005875Y007989D01*
X005937Y007989D02*
X005998Y008050D01*
X005998Y008112D01*
X005937Y008174D01*
X005813Y008174D01*
X005752Y008112D01*
X005630Y008112D02*
X005568Y008174D01*
X005445Y008174D01*
X005383Y008112D01*
X005386Y009189D02*
X005324Y009251D01*
X005571Y009498D01*
X005571Y009251D01*
X005509Y009189D01*
X005386Y009189D01*
X005324Y009251D02*
X005324Y009498D01*
X005386Y009559D01*
X005509Y009559D01*
X005571Y009498D01*
X005693Y009374D02*
X005878Y009559D01*
X005878Y009189D01*
X005939Y009374D02*
X005693Y009374D01*
X005203Y009189D02*
X004956Y009189D01*
X004834Y009189D02*
X004711Y009313D01*
X004773Y009313D02*
X004588Y009313D01*
X004588Y009189D02*
X004588Y009559D01*
X004773Y009559D01*
X004834Y009498D01*
X004834Y009374D01*
X004773Y009313D01*
X004956Y009436D02*
X005079Y009559D01*
X005079Y009189D01*
X005095Y010567D02*
X005095Y010937D01*
X004972Y010814D01*
X004850Y010752D02*
X004789Y010691D01*
X004603Y010691D01*
X004727Y010691D02*
X004850Y010567D01*
X004972Y010567D02*
X005219Y010567D01*
X005340Y010629D02*
X005587Y010876D01*
X005587Y010629D01*
X005525Y010567D01*
X005402Y010567D01*
X005340Y010629D01*
X005340Y010876D01*
X005402Y010937D01*
X005525Y010937D01*
X005587Y010876D01*
X005708Y010937D02*
X005708Y010752D01*
X005832Y010814D01*
X005893Y010814D01*
X005955Y010752D01*
X005955Y010629D01*
X005893Y010567D01*
X005770Y010567D01*
X005708Y010629D01*
X005708Y010937D02*
X005955Y010937D01*
X005925Y011559D02*
X005802Y011559D01*
X005740Y011621D01*
X005740Y011744D01*
X005925Y011744D01*
X005987Y011683D01*
X005987Y011621D01*
X005925Y011559D01*
X005740Y011744D02*
X005863Y011868D01*
X005987Y011930D01*
X005618Y011868D02*
X005371Y011621D01*
X005433Y011559D01*
X005557Y011559D01*
X005618Y011621D01*
X005618Y011868D01*
X005557Y011930D01*
X005433Y011930D01*
X005371Y011868D01*
X005371Y011621D01*
X005250Y011559D02*
X005003Y011559D01*
X004882Y011559D02*
X004758Y011683D01*
X004820Y011683D02*
X004635Y011683D01*
X004635Y011559D02*
X004635Y011930D01*
X004820Y011930D01*
X004882Y011868D01*
X004882Y011744D01*
X004820Y011683D01*
X005003Y011806D02*
X005127Y011930D01*
X005127Y011559D01*
X004789Y010937D02*
X004603Y010937D01*
X004603Y010567D01*
X004850Y010752D02*
X004850Y010876D01*
X004789Y010937D01*
X004878Y013276D02*
X004754Y013399D01*
X004816Y013399D02*
X004631Y013399D01*
X004631Y013276D02*
X004631Y013646D01*
X004816Y013646D01*
X004878Y013584D01*
X004878Y013461D01*
X004816Y013399D01*
X004999Y013276D02*
X005246Y013276D01*
X005123Y013276D02*
X005123Y013646D01*
X004999Y013523D01*
X005368Y013584D02*
X005368Y013338D01*
X005614Y013584D01*
X005614Y013338D01*
X005553Y013276D01*
X005429Y013276D01*
X005368Y013338D01*
X005736Y013338D02*
X005736Y013276D01*
X005736Y013338D02*
X005983Y013584D01*
X005983Y013646D01*
X005736Y013646D01*
X005614Y013584D02*
X005553Y013646D01*
X005429Y013646D01*
X005368Y013584D01*
X008153Y016326D02*
X008153Y016573D01*
X008276Y016573D02*
X008153Y016449D01*
X008276Y016573D02*
X008338Y016573D01*
X008460Y016511D02*
X008522Y016573D01*
X008645Y016573D01*
X008707Y016511D01*
X008707Y016449D01*
X008460Y016449D01*
X008460Y016388D02*
X008460Y016511D01*
X008460Y016388D02*
X008522Y016326D01*
X008645Y016326D01*
X008952Y016326D02*
X009075Y016573D01*
X008828Y016573D02*
X008952Y016326D01*
X009565Y016326D02*
X009565Y016696D01*
X009750Y016696D01*
X009812Y016634D01*
X009812Y016573D01*
X009750Y016511D01*
X009565Y016511D01*
X009750Y016511D02*
X009812Y016449D01*
X009812Y016388D01*
X009750Y016326D01*
X009565Y016326D01*
X027599Y002163D02*
X027660Y002225D01*
X027784Y002225D01*
X027845Y002163D01*
X027967Y002163D02*
X028029Y002225D01*
X028152Y002225D01*
X028214Y002163D01*
X028214Y002101D01*
X027967Y001855D01*
X028214Y001855D01*
X027845Y001916D02*
X027784Y001855D01*
X027660Y001855D01*
X027599Y001916D01*
X027599Y002163D01*
D12*
X028817Y001003D02*
X000471Y001003D01*
X000471Y017538D01*
X028817Y017538D01*
X028817Y001003D01*
X025167Y007042D02*
X025169Y007092D01*
X025175Y007142D01*
X025185Y007192D01*
X025198Y007240D01*
X025215Y007288D01*
X025236Y007334D01*
X025260Y007378D01*
X025288Y007420D01*
X025319Y007460D01*
X025353Y007497D01*
X025390Y007532D01*
X025429Y007563D01*
X025470Y007592D01*
X025514Y007617D01*
X025560Y007639D01*
X025607Y007657D01*
X025655Y007671D01*
X025704Y007682D01*
X025754Y007689D01*
X025804Y007692D01*
X025855Y007691D01*
X025905Y007686D01*
X025955Y007677D01*
X026003Y007665D01*
X026051Y007648D01*
X026097Y007628D01*
X026142Y007605D01*
X026185Y007578D01*
X026225Y007548D01*
X026263Y007515D01*
X026298Y007479D01*
X026331Y007440D01*
X026360Y007399D01*
X026386Y007356D01*
X026409Y007311D01*
X026428Y007264D01*
X026443Y007216D01*
X026455Y007167D01*
X026463Y007117D01*
X026467Y007067D01*
X026467Y007017D01*
X026463Y006967D01*
X026455Y006917D01*
X026443Y006868D01*
X026428Y006820D01*
X026409Y006773D01*
X026386Y006728D01*
X026360Y006685D01*
X026331Y006644D01*
X026298Y006605D01*
X026263Y006569D01*
X026225Y006536D01*
X026185Y006506D01*
X026142Y006479D01*
X026097Y006456D01*
X026051Y006436D01*
X026003Y006419D01*
X025955Y006407D01*
X025905Y006398D01*
X025855Y006393D01*
X025804Y006392D01*
X025754Y006395D01*
X025704Y006402D01*
X025655Y006413D01*
X025607Y006427D01*
X025560Y006445D01*
X025514Y006467D01*
X025470Y006492D01*
X025429Y006521D01*
X025390Y006552D01*
X025353Y006587D01*
X025319Y006624D01*
X025288Y006664D01*
X025260Y006706D01*
X025236Y006750D01*
X025215Y006796D01*
X025198Y006844D01*
X025185Y006892D01*
X025175Y006942D01*
X025169Y006992D01*
X025167Y007042D01*
X025167Y011530D02*
X025169Y011580D01*
X025175Y011630D01*
X025185Y011680D01*
X025198Y011728D01*
X025215Y011776D01*
X025236Y011822D01*
X025260Y011866D01*
X025288Y011908D01*
X025319Y011948D01*
X025353Y011985D01*
X025390Y012020D01*
X025429Y012051D01*
X025470Y012080D01*
X025514Y012105D01*
X025560Y012127D01*
X025607Y012145D01*
X025655Y012159D01*
X025704Y012170D01*
X025754Y012177D01*
X025804Y012180D01*
X025855Y012179D01*
X025905Y012174D01*
X025955Y012165D01*
X026003Y012153D01*
X026051Y012136D01*
X026097Y012116D01*
X026142Y012093D01*
X026185Y012066D01*
X026225Y012036D01*
X026263Y012003D01*
X026298Y011967D01*
X026331Y011928D01*
X026360Y011887D01*
X026386Y011844D01*
X026409Y011799D01*
X026428Y011752D01*
X026443Y011704D01*
X026455Y011655D01*
X026463Y011605D01*
X026467Y011555D01*
X026467Y011505D01*
X026463Y011455D01*
X026455Y011405D01*
X026443Y011356D01*
X026428Y011308D01*
X026409Y011261D01*
X026386Y011216D01*
X026360Y011173D01*
X026331Y011132D01*
X026298Y011093D01*
X026263Y011057D01*
X026225Y011024D01*
X026185Y010994D01*
X026142Y010967D01*
X026097Y010944D01*
X026051Y010924D01*
X026003Y010907D01*
X025955Y010895D01*
X025905Y010886D01*
X025855Y010881D01*
X025804Y010880D01*
X025754Y010883D01*
X025704Y010890D01*
X025655Y010901D01*
X025607Y010915D01*
X025560Y010933D01*
X025514Y010955D01*
X025470Y010980D01*
X025429Y011009D01*
X025390Y011040D01*
X025353Y011075D01*
X025319Y011112D01*
X025288Y011152D01*
X025260Y011194D01*
X025236Y011238D01*
X025215Y011284D01*
X025198Y011332D01*
X025185Y011380D01*
X025175Y011430D01*
X025169Y011480D01*
X025167Y011530D01*
D13*
X026279Y012771D02*
X026509Y012771D01*
X026585Y012848D01*
X026585Y013155D01*
X026509Y013231D01*
X026279Y013231D01*
X026279Y012771D01*
X026739Y012771D02*
X027046Y012771D01*
X026892Y012771D02*
X026892Y013231D01*
X026739Y013078D01*
X023302Y013438D02*
X023225Y013361D01*
X023072Y013361D01*
X022995Y013438D01*
X022995Y013515D01*
X023072Y013591D01*
X023225Y013591D01*
X023302Y013515D01*
X023302Y013438D01*
X023225Y013591D02*
X023302Y013668D01*
X023302Y013745D01*
X023225Y013821D01*
X023072Y013821D01*
X022995Y013745D01*
X022995Y013668D01*
X023072Y013591D01*
X022842Y013438D02*
X022765Y013361D01*
X022612Y013361D01*
X022535Y013438D01*
X022535Y013745D01*
X022612Y013821D01*
X022765Y013821D01*
X022842Y013745D01*
X022693Y014614D02*
X022386Y014614D01*
X022310Y014690D01*
X022310Y014844D01*
X022386Y014920D01*
X022310Y015074D02*
X022310Y015381D01*
X022386Y015381D01*
X022693Y015074D01*
X022770Y015074D01*
X022693Y014920D02*
X022770Y014844D01*
X022770Y014690D01*
X022693Y014614D01*
X021846Y014793D02*
X021386Y014793D01*
X021386Y015024D01*
X021463Y015100D01*
X021616Y015100D01*
X021693Y015024D01*
X021693Y014793D01*
X021693Y014947D02*
X021846Y015100D01*
X021616Y015254D02*
X021616Y015561D01*
X021386Y015484D02*
X021616Y015254D01*
X021846Y015484D02*
X021386Y015484D01*
X020573Y013703D02*
X020573Y013243D01*
X020420Y013243D02*
X020727Y013243D01*
X020420Y013550D02*
X020573Y013703D01*
X020266Y013627D02*
X020266Y013320D01*
X020190Y013243D01*
X020036Y013243D01*
X019960Y013320D01*
X019960Y013627D01*
X020036Y013703D01*
X020190Y013703D01*
X020266Y013627D01*
X020113Y013396D02*
X020266Y013243D01*
X018052Y014368D02*
X018052Y014828D01*
X017822Y014598D01*
X018129Y014598D01*
X017668Y014751D02*
X017592Y014828D01*
X017438Y014828D01*
X017361Y014751D01*
X017361Y014444D01*
X017438Y014368D01*
X017592Y014368D01*
X017668Y014444D01*
X018124Y011884D02*
X018047Y011807D01*
X018047Y011500D01*
X018124Y011423D01*
X018277Y011423D01*
X018354Y011500D01*
X018507Y011500D02*
X018584Y011423D01*
X018738Y011423D01*
X018814Y011500D01*
X018814Y011577D01*
X018738Y011653D01*
X018507Y011653D01*
X018507Y011500D01*
X018507Y011653D02*
X018661Y011807D01*
X018814Y011884D01*
X018354Y011807D02*
X018277Y011884D01*
X018124Y011884D01*
X018040Y009834D02*
X017810Y009834D01*
X017810Y009373D01*
X017810Y009527D02*
X018040Y009527D01*
X018117Y009603D01*
X018117Y009757D01*
X018040Y009834D01*
X018270Y009757D02*
X018347Y009834D01*
X018500Y009834D01*
X018577Y009757D01*
X018577Y009680D01*
X018270Y009373D01*
X018577Y009373D01*
X018117Y009373D02*
X017963Y009527D01*
X019253Y009144D02*
X019253Y008684D01*
X019253Y008837D02*
X019483Y008837D01*
X019560Y008914D01*
X019560Y009068D01*
X019483Y009144D01*
X019253Y009144D01*
X019406Y008837D02*
X019560Y008684D01*
X019713Y008684D02*
X020020Y008684D01*
X019867Y008684D02*
X019867Y009144D01*
X019713Y008991D01*
X020174Y008991D02*
X020327Y009144D01*
X020327Y008684D01*
X020174Y008684D02*
X020481Y008684D01*
X017255Y008073D02*
X017255Y007920D01*
X017179Y007843D01*
X017179Y007690D02*
X017255Y007613D01*
X017255Y007459D01*
X017179Y007383D01*
X016872Y007383D01*
X016795Y007459D01*
X016795Y007613D01*
X016872Y007690D01*
X016872Y007843D02*
X016795Y007920D01*
X016795Y008073D01*
X016872Y008150D01*
X016948Y008150D01*
X017025Y008073D01*
X017102Y008150D01*
X017179Y008150D01*
X017255Y008073D01*
X017025Y008073D02*
X017025Y007996D01*
X016795Y007229D02*
X016795Y007076D01*
X016795Y007152D02*
X017255Y007152D01*
X017255Y007076D02*
X017255Y007229D01*
X015763Y005701D02*
X015609Y005701D01*
X015533Y005625D01*
X015379Y005625D02*
X015302Y005701D01*
X015072Y005701D01*
X015072Y005241D01*
X015302Y005241D01*
X015379Y005318D01*
X015379Y005625D01*
X015763Y005701D02*
X015840Y005625D01*
X015840Y005548D01*
X015533Y005241D01*
X015840Y005241D01*
X016213Y004566D02*
X016444Y004566D01*
X016520Y004489D01*
X016520Y004335D01*
X016444Y004259D01*
X016213Y004259D01*
X016213Y004105D02*
X016213Y004566D01*
X016367Y004259D02*
X016520Y004105D01*
X016674Y004105D02*
X016981Y004105D01*
X017134Y004105D02*
X017134Y004182D01*
X017441Y004489D01*
X017441Y004566D01*
X017134Y004566D01*
X016827Y004566D02*
X016827Y004105D01*
X016674Y004412D02*
X016827Y004566D01*
X018237Y004984D02*
X018544Y004984D01*
X018697Y004984D02*
X019004Y004984D01*
X018851Y004984D02*
X018851Y005445D01*
X018697Y005291D01*
X018237Y005445D02*
X018237Y004984D01*
X015269Y004386D02*
X015269Y002496D01*
X014600Y001827D01*
X014364Y001827D01*
X013616Y001827D02*
X013380Y001827D01*
X012710Y002496D01*
X012710Y004386D01*
X013616Y004386D01*
X014364Y004386D02*
X015269Y004386D01*
X013616Y004268D02*
X013552Y004246D01*
X013489Y004219D01*
X013427Y004189D01*
X013368Y004156D01*
X013310Y004120D01*
X013254Y004080D01*
X013201Y004037D01*
X013150Y003992D01*
X013102Y003944D01*
X013057Y003893D01*
X013014Y003839D01*
X012975Y003783D01*
X012938Y003726D01*
X012905Y003666D01*
X012876Y003604D01*
X012850Y003541D01*
X012827Y003477D01*
X012808Y003411D01*
X012793Y003344D01*
X012782Y003277D01*
X012774Y003209D01*
X012770Y003141D01*
X012770Y003073D01*
X012774Y003005D01*
X012782Y002937D01*
X012793Y002870D01*
X012808Y002803D01*
X012827Y002737D01*
X012850Y002673D01*
X012876Y002610D01*
X012905Y002548D01*
X012938Y002488D01*
X012975Y002431D01*
X013014Y002375D01*
X013057Y002321D01*
X013102Y002270D01*
X013150Y002222D01*
X013201Y002177D01*
X013254Y002134D01*
X013310Y002094D01*
X013368Y002058D01*
X013427Y002025D01*
X013489Y001995D01*
X013552Y001968D01*
X013616Y001946D01*
X014364Y001946D02*
X014428Y001968D01*
X014491Y001995D01*
X014553Y002025D01*
X014612Y002058D01*
X014670Y002094D01*
X014726Y002134D01*
X014779Y002177D01*
X014830Y002222D01*
X014878Y002270D01*
X014923Y002321D01*
X014966Y002375D01*
X015005Y002431D01*
X015042Y002488D01*
X015075Y002548D01*
X015104Y002610D01*
X015130Y002673D01*
X015153Y002737D01*
X015172Y002803D01*
X015187Y002870D01*
X015198Y002937D01*
X015206Y003005D01*
X015210Y003073D01*
X015210Y003141D01*
X015206Y003209D01*
X015198Y003277D01*
X015187Y003344D01*
X015172Y003411D01*
X015153Y003477D01*
X015130Y003541D01*
X015104Y003604D01*
X015075Y003666D01*
X015042Y003726D01*
X015005Y003783D01*
X014966Y003839D01*
X014923Y003893D01*
X014878Y003944D01*
X014830Y003992D01*
X014779Y004037D01*
X014726Y004080D01*
X014670Y004120D01*
X014612Y004156D01*
X014553Y004189D01*
X014491Y004219D01*
X014428Y004246D01*
X014364Y004268D01*
X009776Y006899D02*
X009776Y007129D01*
X009699Y007206D01*
X009392Y007206D01*
X009315Y007129D01*
X009315Y006899D01*
X009776Y006899D01*
X009699Y007359D02*
X009776Y007436D01*
X009776Y007590D01*
X009699Y007666D01*
X009622Y007666D01*
X009546Y007590D01*
X009546Y007359D01*
X009699Y007359D01*
X009546Y007359D02*
X009392Y007513D01*
X009315Y007666D01*
X007095Y007704D02*
X007019Y007627D01*
X006865Y007627D01*
X006789Y007704D01*
X006635Y007704D02*
X006635Y008011D01*
X006558Y008087D01*
X006328Y008087D01*
X006328Y007627D01*
X006558Y007627D01*
X006635Y007704D01*
X006942Y007857D02*
X007019Y007857D01*
X007095Y007780D01*
X007095Y007704D01*
X007019Y007857D02*
X007095Y007934D01*
X007095Y008011D01*
X007019Y008087D01*
X006865Y008087D01*
X006789Y008011D01*
X006475Y011989D02*
X006321Y011989D01*
X006245Y012066D01*
X006245Y012219D02*
X006398Y012296D01*
X006475Y012296D01*
X006552Y012219D01*
X006552Y012066D01*
X006475Y011989D01*
X006245Y012219D02*
X006245Y012449D01*
X006552Y012449D01*
X006974Y012223D02*
X007127Y012223D01*
X007051Y012223D02*
X007051Y012683D01*
X007127Y012683D02*
X006974Y012683D01*
X007281Y012606D02*
X007281Y012299D01*
X007358Y012223D01*
X007511Y012223D01*
X007588Y012299D01*
X007741Y012299D02*
X007818Y012223D01*
X007971Y012223D01*
X008048Y012299D01*
X008048Y012453D01*
X007971Y012529D01*
X007895Y012529D01*
X007741Y012453D01*
X007741Y012683D01*
X008048Y012683D01*
X007588Y012606D02*
X007511Y012683D01*
X007358Y012683D01*
X007281Y012606D01*
X006091Y012373D02*
X006091Y012066D01*
X006015Y011989D01*
X005784Y011989D01*
X005784Y012449D01*
X006015Y012449D01*
X006091Y012373D01*
X005255Y013808D02*
X005255Y014268D01*
X005025Y014038D01*
X005332Y014038D01*
X004871Y013885D02*
X004871Y014192D01*
X004795Y014268D01*
X004564Y014268D01*
X004564Y013808D01*
X004795Y013808D01*
X004871Y013885D01*
X001703Y016487D02*
X001703Y016794D01*
X001703Y016641D02*
X001243Y016641D01*
X001396Y016487D01*
X001319Y016947D02*
X001243Y017024D01*
X001243Y017178D01*
X001319Y017254D01*
X001396Y017254D01*
X001703Y016947D01*
X001703Y017254D01*
X011322Y015416D02*
X011322Y015109D01*
X011399Y015032D01*
X011552Y015032D01*
X011629Y015109D01*
X011782Y015109D02*
X011859Y015032D01*
X012012Y015032D01*
X012089Y015109D01*
X012089Y015262D01*
X012012Y015339D01*
X011936Y015339D01*
X011782Y015262D01*
X011782Y015492D01*
X012089Y015492D01*
X011629Y015416D02*
X011552Y015492D01*
X011399Y015492D01*
X011322Y015416D01*
X026425Y015874D02*
X026425Y016335D01*
X026656Y016335D01*
X026732Y016258D01*
X026732Y016105D01*
X026656Y016028D01*
X026425Y016028D01*
X026579Y016028D02*
X026732Y015874D01*
X026886Y015951D02*
X026962Y015874D01*
X027116Y015874D01*
X027193Y015951D01*
X027193Y016028D01*
X027116Y016105D01*
X027039Y016105D01*
X027116Y016105D02*
X027193Y016181D01*
X027193Y016258D01*
X027116Y016335D01*
X026962Y016335D01*
X026886Y016258D01*
X023296Y006022D02*
X023143Y006022D01*
X023066Y005946D01*
X022913Y006022D02*
X022759Y006022D01*
X022836Y006022D02*
X022836Y005639D01*
X022759Y005562D01*
X022682Y005562D01*
X022606Y005639D01*
X023066Y005562D02*
X023373Y005869D01*
X023373Y005946D01*
X023296Y006022D01*
X023373Y005562D02*
X023066Y005562D01*
X024923Y003517D02*
X025592Y004186D01*
X027482Y004186D01*
X027482Y003280D01*
X027482Y002532D02*
X027482Y001627D01*
X025592Y001627D01*
X024923Y002296D01*
X024923Y002532D01*
X024923Y003280D02*
X024923Y003517D01*
X025041Y003280D02*
X025063Y003344D01*
X025090Y003407D01*
X025120Y003469D01*
X025153Y003528D01*
X025189Y003586D01*
X025229Y003642D01*
X025272Y003695D01*
X025317Y003746D01*
X025365Y003794D01*
X025416Y003839D01*
X025470Y003882D01*
X025526Y003921D01*
X025583Y003958D01*
X025643Y003991D01*
X025705Y004020D01*
X025768Y004046D01*
X025832Y004069D01*
X025898Y004088D01*
X025965Y004103D01*
X026032Y004114D01*
X026100Y004122D01*
X026168Y004126D01*
X026236Y004126D01*
X026304Y004122D01*
X026372Y004114D01*
X026439Y004103D01*
X026506Y004088D01*
X026572Y004069D01*
X026636Y004046D01*
X026699Y004020D01*
X026761Y003991D01*
X026821Y003958D01*
X026878Y003921D01*
X026934Y003882D01*
X026988Y003839D01*
X027039Y003794D01*
X027087Y003746D01*
X027132Y003695D01*
X027175Y003642D01*
X027215Y003586D01*
X027251Y003528D01*
X027284Y003469D01*
X027314Y003407D01*
X027341Y003344D01*
X027363Y003280D01*
X027363Y002532D02*
X027341Y002468D01*
X027314Y002405D01*
X027284Y002343D01*
X027251Y002284D01*
X027215Y002226D01*
X027175Y002170D01*
X027132Y002117D01*
X027087Y002066D01*
X027039Y002018D01*
X026988Y001973D01*
X026934Y001930D01*
X026878Y001891D01*
X026821Y001854D01*
X026761Y001821D01*
X026699Y001792D01*
X026636Y001766D01*
X026572Y001743D01*
X026506Y001724D01*
X026439Y001709D01*
X026372Y001698D01*
X026304Y001690D01*
X026236Y001686D01*
X026168Y001686D01*
X026100Y001690D01*
X026032Y001698D01*
X025965Y001709D01*
X025898Y001724D01*
X025832Y001743D01*
X025768Y001766D01*
X025705Y001792D01*
X025643Y001821D01*
X025583Y001854D01*
X025526Y001891D01*
X025470Y001930D01*
X025416Y001973D01*
X025365Y002018D01*
X025317Y002066D01*
X025272Y002117D01*
X025229Y002170D01*
X025189Y002226D01*
X025153Y002284D01*
X025120Y002343D01*
X025090Y002405D01*
X025063Y002468D01*
X025041Y002532D01*
X004664Y001649D02*
X004357Y001649D01*
X004511Y001649D02*
X004511Y002109D01*
X004357Y001955D01*
X004204Y002109D02*
X004050Y002109D01*
X004127Y002109D02*
X004127Y001725D01*
X004050Y001649D01*
X003974Y001649D01*
X003897Y001725D01*
X001703Y001672D02*
X001243Y001672D01*
X001396Y001519D01*
X001703Y001519D02*
X001703Y001826D01*
D14*
X001014Y001184D02*
X001014Y017451D01*
X003770Y017451D01*
X003770Y001184D01*
X001014Y001184D01*
X011081Y006854D02*
X011156Y006779D01*
X011306Y006779D01*
X011381Y006854D01*
X011381Y006929D01*
X011306Y007004D01*
X011081Y007004D01*
X011081Y006854D01*
X011081Y007004D02*
X011231Y007154D01*
X011381Y007229D01*
X011473Y008838D02*
X011548Y008838D01*
X011623Y008913D01*
X011623Y009289D01*
X011548Y009289D02*
X011698Y009289D01*
X011858Y009213D02*
X011934Y009289D01*
X012084Y009289D01*
X012159Y009213D01*
X012159Y009138D01*
X012084Y009063D01*
X012159Y008988D01*
X012159Y008913D01*
X012084Y008838D01*
X011934Y008838D01*
X011858Y008913D01*
X012009Y009063D02*
X012084Y009063D01*
X011473Y008838D02*
X011398Y008913D01*
X016081Y008879D02*
X016231Y009029D01*
X016231Y008579D01*
X016081Y008579D02*
X016381Y008579D01*
X021479Y006251D02*
X028337Y006251D01*
X028317Y006251D02*
X028317Y012321D01*
X021479Y012321D01*
X021479Y006251D01*
X023696Y005255D02*
X023846Y005405D01*
X023846Y004955D01*
X023696Y004955D02*
X023996Y004955D01*
X024658Y004498D02*
X024808Y004498D01*
X024733Y004498D02*
X024733Y004123D01*
X024658Y004048D01*
X024583Y004048D01*
X024508Y004123D01*
X024968Y004273D02*
X025268Y004273D01*
X025193Y004048D02*
X025193Y004498D01*
X024968Y004273D01*
X028246Y005180D02*
X028546Y005180D01*
X028471Y005405D02*
X028246Y005180D01*
X028471Y004955D02*
X028471Y005405D01*
D15*
X017136Y009600D02*
X016936Y009900D01*
X016736Y009600D01*
X017136Y009600D01*
X017111Y009638D02*
X016761Y009638D01*
X016813Y009716D02*
X017058Y009716D01*
X017006Y009795D02*
X016865Y009795D01*
X016918Y009873D02*
X016954Y009873D01*
X016636Y009900D02*
X016636Y016900D01*
X013236Y016900D01*
X013236Y009900D01*
X014561Y009900D01*
X014563Y009938D01*
X014569Y009975D01*
X014578Y010012D01*
X014591Y010048D01*
X014608Y010082D01*
X014628Y010114D01*
X014651Y010144D01*
X014678Y010172D01*
X014706Y010197D01*
X014738Y010218D01*
X014771Y010237D01*
X014806Y010252D01*
X014842Y010263D01*
X014879Y010271D01*
X014917Y010275D01*
X014955Y010275D01*
X014993Y010271D01*
X015030Y010263D01*
X015066Y010252D01*
X015101Y010237D01*
X015134Y010218D01*
X015166Y010197D01*
X015194Y010172D01*
X015221Y010144D01*
X015244Y010114D01*
X015264Y010082D01*
X015281Y010048D01*
X015294Y010012D01*
X015303Y009975D01*
X015309Y009938D01*
X015311Y009900D01*
X016636Y009900D01*
X015719Y009529D02*
X015719Y009109D01*
X015859Y009109D02*
X015578Y009109D01*
X015398Y009179D02*
X015328Y009109D01*
X015188Y009109D01*
X015118Y009179D01*
X015118Y009459D01*
X015188Y009529D01*
X015328Y009529D01*
X015398Y009459D01*
X015578Y009389D02*
X015719Y009529D01*
X014951Y009529D02*
X014811Y009529D01*
X014881Y009529D02*
X014881Y009109D01*
X014811Y009109D02*
X014951Y009109D01*
X010571Y005651D02*
X010571Y001640D01*
D16*
X016436Y010150D03*
D17*
X010867Y004985D03*
X010867Y004315D03*
X010867Y003645D03*
X010867Y002975D03*
X010867Y002305D03*
D18*
X018832Y003131D02*
X020582Y002081D01*
X022082Y002081D01*
X023832Y003131D01*
X023832Y004631D02*
X022082Y005681D01*
X020582Y005681D01*
X018832Y004631D01*
X019832Y003181D02*
X019868Y003110D01*
X019907Y003040D01*
X019949Y002972D01*
X019994Y002906D01*
X020043Y002843D01*
X020095Y002782D01*
X020149Y002724D01*
X020206Y002668D01*
X020266Y002615D01*
X020328Y002565D01*
X020393Y002518D01*
X020460Y002474D01*
X020529Y002434D01*
X020600Y002397D01*
X020672Y002363D01*
X020746Y002333D01*
X020821Y002307D01*
X020898Y002284D01*
X020975Y002265D01*
X021054Y002250D01*
X021133Y002238D01*
X021212Y002230D01*
X021292Y002226D01*
X021372Y002226D01*
X021452Y002230D01*
X021531Y002238D01*
X021610Y002250D01*
X021689Y002265D01*
X021766Y002284D01*
X021843Y002307D01*
X021918Y002333D01*
X021992Y002363D01*
X022064Y002397D01*
X022135Y002434D01*
X022204Y002474D01*
X022271Y002518D01*
X022336Y002565D01*
X022398Y002615D01*
X022458Y002668D01*
X022515Y002724D01*
X022569Y002782D01*
X022621Y002843D01*
X022670Y002906D01*
X022715Y002972D01*
X022757Y003040D01*
X022796Y003110D01*
X022832Y003181D01*
X022832Y004581D02*
X022796Y004652D01*
X022757Y004722D01*
X022715Y004790D01*
X022670Y004856D01*
X022621Y004919D01*
X022569Y004980D01*
X022515Y005038D01*
X022458Y005094D01*
X022398Y005147D01*
X022336Y005197D01*
X022271Y005244D01*
X022204Y005288D01*
X022135Y005328D01*
X022064Y005365D01*
X021992Y005399D01*
X021918Y005429D01*
X021843Y005455D01*
X021766Y005478D01*
X021689Y005497D01*
X021610Y005512D01*
X021531Y005524D01*
X021452Y005532D01*
X021372Y005536D01*
X021292Y005536D01*
X021212Y005532D01*
X021133Y005524D01*
X021054Y005512D01*
X020975Y005497D01*
X020898Y005478D01*
X020821Y005455D01*
X020746Y005429D01*
X020672Y005399D01*
X020600Y005365D01*
X020529Y005328D01*
X020460Y005288D01*
X020393Y005244D01*
X020328Y005197D01*
X020266Y005147D01*
X020206Y005094D01*
X020149Y005038D01*
X020095Y004980D01*
X020043Y004919D01*
X019994Y004856D01*
X019949Y004790D01*
X019907Y004722D01*
X019868Y004652D01*
X019832Y004581D01*
D19*
X020491Y008345D03*
X020963Y008345D03*
X027554Y015495D03*
X028026Y015495D03*
D20*
X027790Y015495D03*
X020727Y008345D03*
M02*
