%
M48
M72
T01C0.0236
T02C0.0276
T03C0.0320
T04C0.0354
T05C0.0400
T06C0.0472
T07C0.0590
T08C0.1299
%
T01
X22459Y3314
X19459Y6609
X18573Y7880
X20117Y7971
X18979Y9550
X16963Y9014
X15168Y10629
X15743Y11156
X14680Y12101
X15617Y12538
X17625Y12652
X17629Y12121
X19353Y13219
X17467Y13625
X15081Y15436
X13581Y16160
X11971Y16636
X9317Y15495
X11113Y14605
X9632Y13503
X7546Y14010
X7274Y15506
X4861Y16369
X6404Y12538
X7806Y12207
X12286Y12144
X13684Y10436
X21471Y10003
X21589Y12888
X21447Y13963
X18652Y15632
X27971Y14503
X16471Y4003
X12660Y4314
X6191Y6640
T02
X15002Y3340
T03
X21093Y6609
X20140Y6609
T04
X23317Y7534
X22317Y8038
X23314Y8530
X22310Y9030
X23317Y9530
X22302Y10010
X23317Y10522
X22302Y11026
T05
X27621Y5180
X26621Y5180
X25621Y5180
X24621Y5180
X25656Y15949
X23876Y15949
X16266Y7904
X15266Y7904
X14266Y7904
X13266Y7904
X12266Y7904
X11266Y7904
T06
X2392Y1719
X2392Y3097
X2392Y4475
X2392Y5853
X2392Y7231
X2392Y8609
X2392Y9987
X2392Y11365
X2392Y12743
X2392Y14121
X2392Y15499
X2392Y16877
T07
X26146Y14969
X23386Y14969
T08
X25817Y7042
X25817Y11530
M30
