G75*
%MOIN*%
%OFA0B0*%
%FSLAX24Y24*%
%IPPOS*%
%LPD*%
%AMOC8*
5,1,8,0,0,1.08239X$1,22.5*
%
%ADD10R,0.0551X0.1181*%
%ADD11R,0.0600X0.0500*%
%ADD12R,0.0551X0.0551*%
%ADD13R,0.0236X0.0866*%
%ADD14C,0.0600*%
%ADD15C,0.0885*%
%ADD16R,0.0400X0.0250*%
%ADD17R,0.0591X0.0512*%
%ADD18R,0.0512X0.0591*%
%ADD19R,0.0551X0.0394*%
%ADD20R,0.4098X0.4252*%
%ADD21R,0.0850X0.0420*%
%ADD22R,0.1150X0.1098*%
%ADD23R,0.1181X0.0551*%
%ADD24C,0.0709*%
%ADD25C,0.0531*%
%ADD26R,0.0787X0.2165*%
%ADD27R,0.0472X0.0472*%
%ADD28R,0.0394X0.0551*%
%ADD29R,0.0866X0.0236*%
%ADD30C,0.0630*%
%ADD31C,0.0160*%
%ADD32C,0.0240*%
%ADD33C,0.0080*%
%ADD34C,0.0396*%
%ADD35C,0.0320*%
%ADD36C,0.0100*%
%ADD37C,0.0120*%
%ADD38C,0.0436*%
%ADD39R,0.0396X0.0396*%
D10*
X013990Y002162D03*
X013990Y004051D03*
D11*
X015282Y005446D03*
X015282Y006196D03*
D12*
X016074Y003330D03*
X017570Y003330D03*
X024148Y013546D03*
X025644Y013546D03*
D13*
X019060Y008691D03*
X018560Y008691D03*
X018060Y008691D03*
X017560Y008691D03*
X017560Y006644D03*
X018060Y006644D03*
X018560Y006644D03*
X019060Y006644D03*
D14*
X016266Y007904D03*
X015266Y007904D03*
X014266Y007904D03*
X013266Y007904D03*
X012266Y007904D03*
X011266Y007904D03*
X023876Y015949D03*
X025656Y015949D03*
X025621Y005180D03*
X024621Y005180D03*
X026621Y005180D03*
X027621Y005180D03*
D15*
X026146Y014969D03*
X023386Y014969D03*
D16*
X016936Y015150D03*
X016936Y014650D03*
X016936Y014150D03*
X016936Y013650D03*
X016936Y013150D03*
X016936Y012650D03*
X016936Y012150D03*
X016936Y011650D03*
X016936Y011150D03*
X016936Y010650D03*
X016936Y010150D03*
X012936Y010150D03*
X012936Y010650D03*
X012936Y011150D03*
X012936Y011650D03*
X012936Y012150D03*
X012936Y012650D03*
X012936Y013150D03*
X012936Y013650D03*
X012936Y014150D03*
X012936Y014650D03*
X012936Y015150D03*
X012936Y015650D03*
X012936Y016150D03*
X012936Y016650D03*
X016936Y016650D03*
X016936Y016150D03*
X016936Y015650D03*
D17*
X018598Y014368D03*
X018598Y013620D03*
X018586Y012963D03*
X018586Y012215D03*
X018006Y010900D03*
X018006Y010152D03*
X011711Y013794D03*
X011711Y014542D03*
X004317Y013400D03*
X004317Y012652D03*
X004321Y012066D03*
X004321Y011317D03*
X004298Y010691D03*
X004298Y009943D03*
X004286Y009310D03*
X004286Y008562D03*
X004294Y007936D03*
X004294Y007188D03*
X004306Y006562D03*
X004306Y005814D03*
X004294Y005172D03*
X004294Y004424D03*
X004286Y003798D03*
X004286Y003050D03*
X021668Y015963D03*
X022506Y015971D03*
X022506Y016719D03*
X021668Y016711D03*
D18*
X027018Y016691D03*
X027766Y016691D03*
X023026Y012888D03*
X022278Y012888D03*
X020731Y009522D03*
X019983Y009522D03*
X017156Y004983D03*
X016408Y004983D03*
D19*
X016865Y005810D03*
X015999Y006184D03*
X016865Y006558D03*
X008979Y007050D03*
X008113Y007424D03*
X008113Y006676D03*
D20*
X008437Y003645D03*
D21*
X011717Y003645D03*
X011717Y002975D03*
X011717Y002305D03*
X011717Y004315D03*
X011717Y004985D03*
D22*
X019254Y003881D03*
X023411Y003881D03*
D23*
X025257Y002906D03*
X027147Y002906D03*
D24*
X002392Y003097D03*
X002392Y001719D03*
X002392Y004475D03*
X002392Y005853D03*
X002392Y007231D03*
X002392Y008609D03*
X002392Y009987D03*
X002392Y011365D03*
X002392Y012743D03*
X002392Y014121D03*
X002392Y015499D03*
X002392Y016877D03*
D25*
X022302Y011026D03*
X023317Y010522D03*
X022302Y010010D03*
X023317Y009530D03*
X022310Y009030D03*
X023314Y008530D03*
X022317Y008038D03*
X023317Y007534D03*
D26*
X019991Y011581D03*
X019991Y015321D03*
D27*
X027790Y015140D03*
X027790Y015967D03*
X020727Y008817D03*
X020727Y007991D03*
D28*
X006853Y009290D03*
X006105Y009290D03*
X006479Y008424D03*
X006140Y010786D03*
X006888Y010786D03*
X006514Y011652D03*
X004715Y014605D03*
X004341Y015471D03*
X005089Y015471D03*
D29*
X006408Y015503D03*
X006408Y016003D03*
X006408Y015003D03*
X006408Y014503D03*
X006408Y014003D03*
X006408Y013503D03*
X006408Y013003D03*
X008455Y013003D03*
X008455Y013503D03*
X008455Y014003D03*
X008455Y014503D03*
X008455Y015003D03*
X008455Y015503D03*
X008455Y016003D03*
D30*
X020140Y006609D03*
X021093Y006609D03*
D31*
X025293Y002952D02*
X025257Y002906D01*
X014169Y001802D02*
X013990Y002162D01*
X013996Y002325D01*
X019219Y011581D02*
X018586Y012215D01*
X018350Y012215D01*
X018101Y012463D01*
X018101Y013778D01*
X017727Y014152D01*
X016938Y014152D01*
X016936Y014150D01*
X016961Y014625D02*
X016936Y014650D01*
X016961Y014625D02*
X017912Y014625D01*
X018136Y014400D01*
X018392Y014400D01*
X018566Y014400D01*
X018598Y014368D01*
X018447Y014345D02*
X018392Y014400D01*
X018447Y014345D02*
X019408Y014345D01*
X019991Y014928D01*
X019991Y015321D01*
X018568Y013650D02*
X018598Y013620D01*
X018598Y012975D01*
X018586Y012963D01*
X019096Y012963D01*
X019353Y013219D01*
X017467Y013625D02*
X017441Y013650D01*
X016936Y013650D01*
X019219Y011581D02*
X019991Y011581D01*
X024022Y013538D02*
X024148Y013546D01*
X025644Y013546D02*
X025857Y013546D01*
X025896Y013506D01*
X012936Y014650D02*
X011819Y014650D01*
X011711Y014542D01*
X011176Y014542D01*
X011113Y014605D01*
X002629Y016880D02*
X002392Y016877D01*
D32*
X014471Y017003D02*
X014471Y009003D01*
X014439Y008984D02*
X014510Y008861D01*
X014999Y008861D01*
X015306Y008554D01*
X015306Y007943D01*
X015266Y007904D02*
X015266Y007251D01*
X015266Y006443D01*
X015281Y006452D01*
X015282Y006196D01*
X015282Y005446D02*
X015267Y004814D01*
X015278Y004503D01*
X015441Y004052D01*
X015441Y003831D01*
X015798Y003545D02*
X016012Y003330D01*
X016074Y003330D01*
X015956Y003316D01*
X015992Y003280D01*
X016012Y003330D02*
X016052Y003290D01*
X015002Y003340D02*
X014892Y003400D01*
X014892Y003831D02*
X013990Y004051D01*
X014029Y003817D01*
X014042Y003830D01*
X014042Y004330D01*
X013990Y004051D02*
X014111Y003831D01*
X014102Y003840D01*
X013987Y003619D01*
X014112Y003650D01*
X014132Y003810D02*
X014111Y003831D01*
X014029Y003817D02*
X013992Y003780D01*
X012619Y004296D02*
X011717Y004315D01*
X011717Y002975D02*
X011752Y002951D01*
X011702Y002930D01*
X019254Y003291D02*
X019254Y003881D01*
X019282Y003330D01*
X019302Y003310D01*
X022459Y003314D02*
X023394Y003314D01*
X023471Y007503D02*
X023317Y007534D01*
X023471Y007503D02*
X023471Y008003D01*
X023471Y008503D01*
X023314Y008530D01*
X023471Y008003D02*
X022471Y008003D01*
X020727Y007991D02*
X020136Y007991D01*
X020117Y007971D01*
X020727Y008817D02*
X020731Y008821D01*
X020731Y009522D01*
X021471Y010003D02*
X021471Y012003D01*
X024050Y012003D01*
X024050Y012337D01*
X024034Y013503D01*
X021471Y016503D02*
X021668Y016711D01*
X021471Y016503D02*
X020971Y017003D01*
X014471Y017003D01*
D33*
X017625Y012652D02*
X017471Y012503D01*
X017471Y012003D01*
X017629Y012121D01*
X017971Y011503D02*
X018006Y011503D01*
X017971Y011503D02*
X019971Y009503D01*
X019983Y009522D01*
X022317Y008038D02*
X022471Y008003D01*
X021629Y007384D02*
X021475Y007503D01*
X021471Y007503D01*
X022471Y006503D01*
X022471Y006003D01*
X024471Y006003D01*
X025471Y005003D01*
X025621Y005180D01*
X021707Y005810D02*
X021629Y007384D01*
X021707Y005810D02*
X020896Y005794D01*
X016896Y005794D01*
X016865Y005810D01*
X016971Y006003D01*
X016971Y005003D01*
X017156Y004983D01*
X016471Y005003D02*
X016408Y004983D01*
X016471Y005003D02*
X016471Y004003D01*
X017329Y006018D02*
X016865Y006558D01*
X017329Y006018D02*
X017983Y006003D01*
X017971Y006503D01*
X018060Y006644D01*
X023971Y013503D02*
X024034Y013503D01*
X023971Y013503D02*
X024148Y013546D01*
X027971Y014503D02*
X027971Y015003D01*
X027790Y015140D01*
X027790Y015967D02*
X027971Y016003D01*
X027971Y016503D01*
D34*
X027971Y014503D03*
X021471Y010003D03*
X016471Y004003D03*
D35*
X015956Y003316D02*
X015441Y003831D01*
X014892Y003831D01*
X014892Y003400D01*
X014363Y003089D02*
X012659Y003085D01*
X011737Y002970D01*
X011752Y002951D01*
X011717Y003645D02*
X014112Y003650D01*
X014363Y003089D02*
X015102Y002460D01*
X018422Y002460D01*
X019254Y003291D01*
X019254Y003881D02*
X017570Y003330D01*
X019499Y001778D02*
X014169Y001802D01*
X013996Y002325D02*
X011717Y002305D01*
X014042Y004330D02*
X013597Y005021D01*
X011717Y004985D01*
X004294Y004424D02*
X004294Y003766D01*
X004286Y003798D01*
X004294Y004424D02*
X004282Y004475D01*
X002392Y004475D01*
X002392Y005853D02*
X004306Y005814D01*
X004333Y006550D02*
X004306Y006562D01*
X004333Y006550D02*
X004294Y007188D01*
X004329Y007231D01*
X002392Y007231D01*
X002392Y008609D02*
X004317Y008609D01*
X004286Y008562D01*
X004298Y009298D02*
X004286Y009310D01*
X004298Y009298D02*
X004298Y009943D01*
X004294Y009987D01*
X002392Y009987D01*
X002392Y011365D02*
X004314Y011365D01*
X004321Y011317D01*
X004321Y012066D02*
X004321Y012688D01*
X004317Y012652D01*
X004266Y012743D01*
X002392Y012743D01*
X002629Y016880D02*
X004333Y016880D01*
X004412Y016880D01*
X010621Y016880D01*
X010621Y013794D01*
X011711Y013794D01*
X025896Y013506D02*
X026947Y013506D01*
X028357Y012554D01*
X028369Y001491D01*
X022357Y001495D01*
X021581Y001719D01*
X020849Y001751D01*
X019499Y001778D01*
X023411Y003881D02*
X025293Y002952D01*
X004286Y003050D02*
X004278Y003097D01*
X002392Y003097D01*
D36*
X000721Y001253D02*
X000721Y017288D01*
X002120Y017288D01*
X002118Y017287D01*
X001982Y017151D01*
X001908Y016973D01*
X001908Y016780D01*
X001982Y016602D01*
X002118Y016466D01*
X002296Y016392D01*
X002489Y016392D01*
X002667Y016466D01*
X002791Y016590D01*
X004151Y016590D01*
X004151Y015877D01*
X004090Y015877D01*
X004014Y015800D01*
X004014Y015142D01*
X004090Y015065D01*
X004592Y015065D01*
X004668Y015142D01*
X004668Y015800D01*
X004592Y015877D01*
X004531Y015877D01*
X004531Y016561D01*
X004533Y016563D01*
X004533Y016117D01*
X004609Y016041D01*
X005113Y016041D01*
X005189Y016117D01*
X005189Y016187D01*
X005857Y016187D01*
X005845Y016174D01*
X005845Y015831D01*
X005921Y015754D01*
X006218Y015754D01*
X006218Y015751D01*
X005921Y015751D01*
X005845Y015674D01*
X005845Y015331D01*
X005921Y015254D01*
X006895Y015254D01*
X006946Y015306D01*
X006946Y015254D01*
X007022Y015178D01*
X007526Y015178D01*
X007602Y015254D01*
X007602Y015758D01*
X007526Y015835D01*
X007022Y015835D01*
X006946Y015758D01*
X006946Y015700D01*
X006895Y015751D01*
X006598Y015751D01*
X006598Y015754D01*
X006895Y015754D01*
X006971Y015831D01*
X006971Y016174D01*
X006959Y016187D01*
X007647Y016187D01*
X007647Y015046D01*
X007758Y014935D01*
X007881Y014813D01*
X007910Y014813D01*
X007968Y014754D01*
X008942Y014754D01*
X009018Y014831D01*
X009018Y015174D01*
X008942Y015251D01*
X008027Y015251D01*
X008027Y015254D01*
X008942Y015254D01*
X008989Y015302D01*
X008989Y015243D01*
X009066Y015167D01*
X009569Y015167D01*
X009646Y015243D01*
X009646Y015747D01*
X009569Y015823D01*
X009066Y015823D01*
X008989Y015747D01*
X008989Y015703D01*
X008942Y015751D01*
X008645Y015751D01*
X008645Y015754D01*
X008942Y015754D01*
X009018Y015831D01*
X009018Y016174D01*
X008942Y016251D01*
X008027Y016251D01*
X008027Y016353D01*
X007925Y016455D01*
X007814Y016567D01*
X005189Y016567D01*
X005189Y016590D01*
X010331Y016590D01*
X010331Y013736D01*
X010375Y013630D01*
X010456Y013548D01*
X010563Y013504D01*
X011286Y013504D01*
X011286Y013484D01*
X011362Y013408D01*
X012060Y013408D01*
X012136Y013484D01*
X012136Y013584D01*
X012228Y013676D01*
X012512Y013960D01*
X012617Y013960D01*
X012677Y013900D01*
X012606Y013829D01*
X012606Y013471D01*
X012677Y013400D01*
X012606Y013329D01*
X012606Y012971D01*
X012677Y012900D01*
X012606Y012829D01*
X012606Y012471D01*
X012677Y012400D01*
X012614Y012338D01*
X012614Y012396D01*
X012538Y012472D01*
X012034Y012472D01*
X011958Y012396D01*
X011958Y011892D01*
X012034Y011816D01*
X012538Y011816D01*
X012614Y011892D01*
X012614Y011954D01*
X012623Y011954D01*
X012677Y011900D01*
X012606Y011829D01*
X012606Y011471D01*
X012677Y011400D01*
X012617Y011340D01*
X011686Y011340D01*
X011184Y010838D01*
X011072Y010727D01*
X011072Y008289D01*
X011023Y008269D01*
X010902Y008148D01*
X010836Y007990D01*
X010836Y007819D01*
X010902Y007661D01*
X011023Y007540D01*
X011181Y007474D01*
X011352Y007474D01*
X011510Y007540D01*
X011631Y007661D01*
X011696Y007819D01*
X011696Y007990D01*
X011631Y008148D01*
X011510Y008269D01*
X011452Y008292D01*
X011452Y010569D01*
X011843Y010960D01*
X012617Y010960D01*
X012677Y010900D01*
X012617Y010840D01*
X012493Y010840D01*
X012215Y010563D01*
X012104Y010451D01*
X012104Y008302D01*
X012023Y008269D01*
X011902Y008148D01*
X011836Y007990D01*
X011836Y007819D01*
X011902Y007661D01*
X012023Y007540D01*
X012181Y007474D01*
X012352Y007474D01*
X012510Y007540D01*
X012631Y007661D01*
X012696Y007819D01*
X012696Y007990D01*
X012631Y008148D01*
X012510Y008269D01*
X012484Y008279D01*
X012484Y010294D01*
X012633Y010443D01*
X012677Y010400D01*
X012606Y010329D01*
X012606Y009971D01*
X012682Y009895D01*
X013084Y009895D01*
X013084Y008294D01*
X013023Y008269D01*
X012902Y008148D01*
X012836Y007990D01*
X012836Y007819D01*
X012902Y007661D01*
X013023Y007540D01*
X013181Y007474D01*
X013352Y007474D01*
X013510Y007540D01*
X013631Y007661D01*
X013696Y007819D01*
X013696Y007990D01*
X013631Y008148D01*
X013510Y008269D01*
X013464Y008288D01*
X013464Y010107D01*
X013936Y010107D01*
X014012Y010184D01*
X014012Y010688D01*
X013936Y010764D01*
X013874Y010764D01*
X013874Y012266D01*
X013385Y012754D01*
X013274Y012866D01*
X013229Y012866D01*
X013194Y012900D01*
X013266Y012971D01*
X013266Y013329D01*
X013194Y013400D01*
X013266Y013471D01*
X013266Y013829D01*
X013194Y013900D01*
X013254Y013960D01*
X013337Y013960D01*
X014179Y013657D01*
X014179Y009130D01*
X014165Y009078D01*
X014179Y009054D01*
X014179Y009026D01*
X014189Y009016D01*
X014185Y009000D01*
X014198Y008901D01*
X014286Y008750D01*
X014298Y008719D01*
X014311Y008707D01*
X014319Y008692D01*
X014345Y008672D01*
X014369Y008649D01*
X014385Y008642D01*
X014398Y008632D01*
X014430Y008623D01*
X014461Y008611D01*
X014478Y008611D01*
X014494Y008606D01*
X014527Y008611D01*
X014895Y008611D01*
X015056Y008450D01*
X015056Y008282D01*
X015023Y008269D01*
X014902Y008148D01*
X014836Y007990D01*
X014836Y007819D01*
X014902Y007661D01*
X015016Y007546D01*
X015016Y006576D01*
X014928Y006576D01*
X014852Y006500D01*
X014852Y005893D01*
X014914Y005830D01*
X014890Y005816D01*
X014862Y005789D01*
X014842Y005754D01*
X014832Y005716D01*
X014832Y005496D01*
X015232Y005496D01*
X015232Y005396D01*
X015332Y005396D01*
X015332Y005046D01*
X015602Y005046D01*
X015640Y005057D01*
X015674Y005076D01*
X015702Y005104D01*
X015722Y005139D01*
X015732Y005177D01*
X015732Y005396D01*
X015332Y005396D01*
X015332Y005496D01*
X015732Y005496D01*
X015732Y005716D01*
X015722Y005754D01*
X015702Y005789D01*
X015674Y005816D01*
X015650Y005830D01*
X015666Y005847D01*
X015703Y005837D01*
X015950Y005837D01*
X015950Y006135D01*
X016047Y006135D01*
X016047Y005837D01*
X016294Y005837D01*
X016332Y005847D01*
X016366Y005867D01*
X016394Y005895D01*
X016414Y005929D01*
X016424Y005967D01*
X016424Y006135D01*
X016047Y006135D01*
X016047Y006232D01*
X016424Y006232D01*
X016424Y006400D01*
X016414Y006438D01*
X016394Y006473D01*
X016366Y006501D01*
X016332Y006520D01*
X016294Y006530D01*
X016047Y006530D01*
X016047Y006232D01*
X015950Y006232D01*
X015950Y006530D01*
X015703Y006530D01*
X015686Y006526D01*
X015636Y006576D01*
X015516Y006576D01*
X015516Y006793D01*
X016436Y006793D01*
X016547Y006904D01*
X016589Y006946D01*
X016924Y006946D01*
X017035Y007058D01*
X017680Y007702D01*
X017884Y007702D01*
X017996Y007814D01*
X018250Y008068D01*
X018250Y008146D01*
X018302Y008199D01*
X018321Y008166D01*
X018349Y008138D01*
X018384Y008119D01*
X018422Y008108D01*
X018551Y008108D01*
X018551Y008682D01*
X018569Y008682D01*
X018569Y008108D01*
X018697Y008108D01*
X018736Y008119D01*
X018770Y008138D01*
X018798Y008166D01*
X018817Y008199D01*
X018888Y008128D01*
X019232Y008128D01*
X019308Y008205D01*
X019308Y009178D01*
X019597Y009178D01*
X019597Y009173D02*
X019673Y009097D01*
X020293Y009097D01*
X020357Y009161D01*
X020386Y009132D01*
X020361Y009108D01*
X020361Y008527D01*
X020437Y008451D01*
X021017Y008451D01*
X021039Y008473D01*
X021039Y008356D01*
X021021Y008367D01*
X020983Y008377D01*
X020777Y008377D01*
X020777Y008041D01*
X020677Y008041D01*
X020677Y008377D01*
X020471Y008377D01*
X020433Y008367D01*
X020399Y008347D01*
X020371Y008319D01*
X020351Y008285D01*
X020341Y008247D01*
X020341Y008041D01*
X020677Y008041D01*
X020677Y007941D01*
X020341Y007941D01*
X020341Y007735D01*
X020351Y007697D01*
X020371Y007662D01*
X020398Y007635D01*
X018172Y007635D01*
X018067Y007530D01*
X017880Y007343D01*
X017880Y007199D01*
X017811Y007131D01*
X017811Y006582D01*
X017808Y006578D01*
X017808Y007131D01*
X017732Y007207D01*
X017388Y007207D01*
X017311Y007131D01*
X017311Y006299D01*
X017270Y006347D01*
X017270Y006808D01*
X017194Y006884D01*
X016535Y006884D01*
X016459Y006808D01*
X016459Y006307D01*
X016535Y006231D01*
X016922Y006231D01*
X016967Y006178D01*
X016947Y006173D01*
X016901Y006173D01*
X016882Y006154D01*
X016856Y006146D01*
X016851Y006136D01*
X016535Y006136D01*
X016459Y006060D01*
X016459Y005559D01*
X016535Y005483D01*
X016801Y005483D01*
X016801Y005363D01*
X016782Y005344D01*
X016718Y005408D01*
X016098Y005408D01*
X016022Y005332D01*
X016022Y004634D01*
X016098Y004558D01*
X016301Y004558D01*
X016301Y004287D01*
X016285Y004281D01*
X016193Y004188D01*
X016143Y004068D01*
X016143Y003937D01*
X016193Y003817D01*
X016254Y003756D01*
X016124Y003756D01*
X016124Y003380D01*
X016024Y003380D01*
X016024Y003280D01*
X015649Y003280D01*
X015649Y003035D01*
X015659Y002997D01*
X015679Y002962D01*
X015707Y002935D01*
X015741Y002915D01*
X015779Y002905D01*
X016024Y002905D01*
X016024Y003280D01*
X016124Y003280D01*
X016124Y002905D01*
X016370Y002905D01*
X016408Y002915D01*
X016442Y002935D01*
X016470Y002962D01*
X016490Y002997D01*
X016500Y003035D01*
X016500Y003280D01*
X016124Y003280D01*
X016124Y003380D01*
X016500Y003380D01*
X016500Y003625D01*
X016490Y003664D01*
X016483Y003674D01*
X016536Y003674D01*
X016657Y003724D01*
X016749Y003817D01*
X016799Y003937D01*
X016799Y004068D01*
X016749Y004188D01*
X016657Y004281D01*
X016641Y004287D01*
X016641Y004558D01*
X016718Y004558D01*
X016782Y004622D01*
X016846Y004558D01*
X017466Y004558D01*
X017542Y004634D01*
X017542Y005332D01*
X017466Y005408D01*
X017141Y005408D01*
X017141Y005483D01*
X017194Y005483D01*
X017270Y005559D01*
X017270Y005624D01*
X020828Y005624D01*
X020829Y005623D01*
X020898Y005624D01*
X020967Y005624D01*
X020968Y005625D01*
X021643Y005638D01*
X021645Y005636D01*
X021713Y005640D01*
X021781Y005641D01*
X021783Y005643D01*
X021786Y005643D01*
X021832Y005694D01*
X021879Y005743D01*
X021879Y005746D01*
X021881Y005748D01*
X021877Y005816D01*
X021876Y005883D01*
X021874Y005885D01*
X021822Y006911D01*
X022301Y006432D01*
X022301Y005932D01*
X022401Y005833D01*
X024401Y005833D01*
X024623Y005610D01*
X024535Y005610D01*
X024377Y005544D01*
X024256Y005423D01*
X024191Y005265D01*
X024191Y005094D01*
X024256Y004936D01*
X024377Y004815D01*
X024535Y004750D01*
X024706Y004750D01*
X024864Y004815D01*
X024985Y004936D01*
X025051Y005094D01*
X025051Y005182D01*
X025227Y005006D01*
X025256Y004936D01*
X025377Y004815D01*
X025535Y004750D01*
X025706Y004750D01*
X025864Y004815D01*
X025985Y004936D01*
X026051Y005094D01*
X026051Y005265D01*
X025985Y005423D01*
X025864Y005544D01*
X025706Y005610D01*
X025535Y005610D01*
X025377Y005544D01*
X025273Y005441D01*
X024641Y006073D01*
X024541Y006173D01*
X022641Y006173D01*
X022641Y006573D01*
X021797Y007417D01*
X021795Y007463D01*
X021789Y007468D01*
X021788Y007476D01*
X021738Y007515D01*
X021690Y007558D01*
X021683Y007557D01*
X021655Y007579D01*
X021655Y008786D01*
X021738Y008870D01*
X021948Y008870D01*
X021974Y008806D01*
X022085Y008695D01*
X022231Y008634D01*
X022388Y008634D01*
X022534Y008695D01*
X022645Y008806D01*
X022705Y008951D01*
X022705Y009109D01*
X022645Y009254D01*
X022534Y009366D01*
X022533Y009366D01*
X022957Y009366D01*
X022982Y009306D01*
X023093Y009195D01*
X023239Y009134D01*
X023396Y009134D01*
X023542Y009195D01*
X023653Y009306D01*
X023661Y009326D01*
X023830Y009156D01*
X023830Y006617D01*
X022597Y006617D01*
X022641Y006519D02*
X023929Y006519D01*
X023936Y006511D02*
X024117Y006330D01*
X024802Y006330D01*
X024913Y006219D01*
X024913Y006156D01*
X025019Y006051D01*
X025235Y005834D01*
X025696Y005834D01*
X025764Y005766D01*
X025764Y005764D01*
X025817Y005713D01*
X025869Y005661D01*
X025870Y005661D01*
X026215Y005324D01*
X026191Y005265D01*
X026191Y005094D01*
X026256Y004936D01*
X026377Y004815D01*
X026535Y004750D01*
X026706Y004750D01*
X026864Y004815D01*
X026985Y004936D01*
X027051Y005094D01*
X027051Y005265D01*
X026985Y005423D01*
X026864Y005544D01*
X026706Y005610D01*
X026535Y005610D01*
X026467Y005581D01*
X026070Y005969D01*
X025950Y006089D01*
X025897Y006142D01*
X025996Y006142D01*
X026327Y006279D01*
X026580Y006532D01*
X026717Y006863D01*
X026717Y007221D01*
X026580Y007551D01*
X026327Y007805D01*
X025996Y007941D01*
X025639Y007941D01*
X025308Y007805D01*
X025055Y007551D01*
X024918Y007221D01*
X024918Y006863D01*
X025016Y006625D01*
X024951Y006690D01*
X024266Y006690D01*
X024190Y006766D01*
X024190Y009305D01*
X023911Y009585D01*
X023805Y009690D01*
X023727Y009690D01*
X023715Y009702D01*
X023675Y009702D01*
X023653Y009754D01*
X023542Y009866D01*
X023396Y009926D01*
X023239Y009926D01*
X023093Y009866D01*
X022982Y009754D01*
X022970Y009726D01*
X022605Y009726D01*
X022619Y009740D01*
X022657Y009792D01*
X022687Y009851D01*
X022707Y009913D01*
X022717Y009972D01*
X022340Y009972D01*
X022340Y010049D01*
X022263Y010049D01*
X022263Y009972D01*
X021887Y009972D01*
X021896Y009913D01*
X021916Y009851D01*
X021946Y009792D01*
X021985Y009740D01*
X021998Y009726D01*
X021658Y009726D01*
X021749Y009817D01*
X021799Y009937D01*
X021799Y010068D01*
X021749Y010188D01*
X021721Y010217D01*
X021721Y011753D01*
X024099Y011753D01*
X024191Y011791D01*
X024262Y011861D01*
X024300Y011953D01*
X024300Y012289D01*
X024300Y012291D01*
X024300Y012339D01*
X024300Y012387D01*
X024299Y012389D01*
X024289Y013140D01*
X024478Y013140D01*
X024554Y013216D01*
X024554Y013875D01*
X024478Y013951D01*
X023819Y013951D01*
X023743Y013875D01*
X023743Y013216D01*
X023788Y013171D01*
X023800Y012335D01*
X023800Y012253D01*
X021421Y012253D01*
X021329Y012214D01*
X021259Y012144D01*
X021221Y012052D01*
X021221Y010217D01*
X021193Y010188D01*
X021143Y010068D01*
X021143Y009937D01*
X021193Y009817D01*
X021285Y009724D01*
X021406Y009674D01*
X021536Y009674D01*
X021559Y009684D01*
X021496Y009620D01*
X021117Y009241D01*
X021117Y009871D01*
X021041Y009947D01*
X020421Y009947D01*
X020357Y009883D01*
X020293Y009947D01*
X019766Y009947D01*
X018196Y011518D01*
X018196Y011821D01*
X017957Y012061D01*
X017957Y012310D01*
X018014Y012253D01*
X018161Y012107D01*
X018161Y011905D01*
X018237Y011829D01*
X018675Y011829D01*
X019132Y011371D01*
X019467Y011371D01*
X019467Y010445D01*
X019543Y010369D01*
X020438Y010369D01*
X020514Y010445D01*
X020514Y012718D01*
X020438Y012794D01*
X019543Y012794D01*
X019467Y012718D01*
X019467Y011791D01*
X019306Y011791D01*
X019011Y012086D01*
X019011Y012524D01*
X018958Y012578D01*
X018973Y012587D01*
X019001Y012615D01*
X019021Y012649D01*
X019031Y012687D01*
X019031Y012913D01*
X018636Y012913D01*
X018636Y013013D01*
X018536Y013013D01*
X018536Y013214D01*
X018548Y013214D01*
X018548Y013570D01*
X018648Y013570D01*
X018648Y013369D01*
X018636Y013369D01*
X018636Y013013D01*
X019031Y013013D01*
X019031Y013238D01*
X019021Y013276D01*
X019018Y013281D01*
X019033Y013307D01*
X019043Y013345D01*
X019043Y013570D01*
X018648Y013570D01*
X018648Y013670D01*
X019043Y013670D01*
X019043Y013896D01*
X019033Y013934D01*
X019013Y013968D01*
X018985Y013996D01*
X018970Y014005D01*
X019023Y014059D01*
X019023Y014135D01*
X019495Y014135D01*
X019506Y014146D01*
X019543Y014109D01*
X020438Y014109D01*
X020514Y014185D01*
X020514Y016403D01*
X020664Y016403D01*
X020746Y016321D01*
X020746Y016014D01*
X020857Y015903D01*
X020987Y015773D01*
X021243Y015773D01*
X021243Y015653D01*
X021319Y015577D01*
X022017Y015577D01*
X022091Y015651D01*
X022157Y015585D01*
X022856Y015585D01*
X022932Y015661D01*
X022932Y015789D01*
X022959Y015789D01*
X023226Y015522D01*
X023062Y015455D01*
X022901Y015294D01*
X022814Y015083D01*
X022814Y014855D01*
X022901Y014645D01*
X023062Y014484D01*
X023272Y014397D01*
X023500Y014397D01*
X023711Y014484D01*
X023872Y014645D01*
X023959Y014855D01*
X023959Y015083D01*
X023906Y015210D01*
X024140Y015210D01*
X024689Y015759D01*
X025270Y015759D01*
X025292Y015706D01*
X025413Y015585D01*
X025571Y015519D01*
X025742Y015519D01*
X025900Y015585D01*
X026021Y015706D01*
X026086Y015864D01*
X026086Y016035D01*
X026021Y016193D01*
X025900Y016314D01*
X025742Y016379D01*
X025571Y016379D01*
X025413Y016314D01*
X025292Y016193D01*
X025270Y016139D01*
X024532Y016139D01*
X024292Y015899D01*
X023926Y015899D01*
X023926Y015999D01*
X023826Y015999D01*
X023826Y015899D01*
X023429Y015899D01*
X023433Y015874D01*
X023412Y015874D01*
X023228Y016058D01*
X023117Y016169D01*
X022932Y016169D01*
X022932Y016281D01*
X022878Y016334D01*
X022894Y016343D01*
X022922Y016371D01*
X022942Y016405D01*
X022952Y016443D01*
X022952Y016669D01*
X022556Y016669D01*
X022556Y016769D01*
X022456Y016769D01*
X022456Y017125D01*
X022191Y017125D01*
X022153Y017115D01*
X022119Y017095D01*
X022091Y017067D01*
X022075Y017039D01*
X022017Y017097D01*
X021319Y017097D01*
X021274Y017053D01*
X021183Y017144D01*
X021113Y017214D01*
X021021Y017253D01*
X014421Y017253D01*
X014329Y017214D01*
X014259Y017144D01*
X014221Y017052D01*
X014221Y014045D01*
X013475Y014314D01*
X013449Y014340D01*
X013404Y014340D01*
X013361Y014356D01*
X013328Y014340D01*
X013254Y014340D01*
X013203Y014391D01*
X013228Y014405D01*
X013256Y014433D01*
X013275Y014467D01*
X013286Y014505D01*
X013286Y014638D01*
X012948Y014638D01*
X012948Y014663D01*
X013286Y014663D01*
X013286Y014795D01*
X013275Y014833D01*
X013256Y014867D01*
X013228Y014895D01*
X013203Y014909D01*
X013266Y014971D01*
X013266Y015329D01*
X013194Y015400D01*
X013266Y015471D01*
X013266Y015829D01*
X013194Y015900D01*
X013253Y015959D01*
X013253Y015908D01*
X013329Y015832D01*
X013833Y015832D01*
X013909Y015908D01*
X013909Y016412D01*
X013833Y016488D01*
X013329Y016488D01*
X013253Y016412D01*
X013253Y016350D01*
X013245Y016350D01*
X013194Y016400D01*
X013266Y016471D01*
X013266Y016829D01*
X013189Y016905D01*
X012682Y016905D01*
X012617Y016840D01*
X012430Y016840D01*
X012427Y016843D01*
X012351Y016840D01*
X012299Y016840D01*
X012299Y016888D01*
X012223Y016964D01*
X011719Y016964D01*
X011643Y016888D01*
X011643Y016384D01*
X011719Y016308D01*
X012223Y016308D01*
X012299Y016384D01*
X012299Y016458D01*
X012358Y016460D01*
X012617Y016460D01*
X012677Y016400D01*
X012606Y016329D01*
X012606Y015971D01*
X012677Y015900D01*
X012606Y015829D01*
X012606Y015471D01*
X012677Y015400D01*
X012606Y015329D01*
X012606Y014971D01*
X012668Y014909D01*
X012643Y014895D01*
X012616Y014867D01*
X012596Y014833D01*
X012586Y014795D01*
X012586Y014663D01*
X012923Y014663D01*
X012923Y014638D01*
X012586Y014638D01*
X012586Y014505D01*
X012596Y014467D01*
X012616Y014433D01*
X012643Y014405D01*
X012668Y014391D01*
X012617Y014340D01*
X012355Y014340D01*
X012127Y014113D01*
X012083Y014157D01*
X012099Y014166D01*
X012126Y014194D01*
X012146Y014228D01*
X012156Y014266D01*
X012156Y014492D01*
X011761Y014492D01*
X011761Y014592D01*
X011661Y014592D01*
X011661Y014492D01*
X011266Y014492D01*
X011266Y014266D01*
X011276Y014228D01*
X011296Y014194D01*
X011324Y014166D01*
X011339Y014157D01*
X011286Y014104D01*
X011286Y014084D01*
X010911Y014084D01*
X010911Y016938D01*
X010866Y017045D01*
X010785Y017126D01*
X010678Y017170D01*
X002783Y017170D01*
X002667Y017287D01*
X002665Y017288D01*
X028534Y017288D01*
X028534Y012787D01*
X028521Y012800D01*
X028495Y012810D01*
X027133Y013731D01*
X027112Y013752D01*
X027085Y013763D01*
X027062Y013779D01*
X027033Y013785D01*
X027005Y013796D01*
X026977Y013796D01*
X026949Y013802D01*
X026920Y013796D01*
X026050Y013796D01*
X026050Y013875D01*
X025974Y013951D01*
X025315Y013951D01*
X025239Y013875D01*
X025239Y013216D01*
X025315Y013140D01*
X025974Y013140D01*
X026050Y013216D01*
X026050Y013216D01*
X026859Y013216D01*
X028067Y012400D01*
X028078Y001781D01*
X022398Y001785D01*
X021683Y001991D01*
X021651Y002006D01*
X021628Y002007D01*
X021606Y002014D01*
X021571Y002010D01*
X020916Y002038D01*
X020913Y002039D01*
X020858Y002040D01*
X020804Y002043D01*
X020801Y002042D01*
X019560Y002067D01*
X019558Y002068D01*
X019502Y002068D01*
X019447Y002069D01*
X019445Y002068D01*
X014395Y002091D01*
X014395Y002681D01*
X014905Y002247D01*
X014938Y002214D01*
X014949Y002210D01*
X014958Y002202D01*
X015002Y002188D01*
X015045Y002170D01*
X015057Y002170D01*
X015068Y002166D01*
X015114Y002170D01*
X018480Y002170D01*
X018587Y002214D01*
X018668Y002296D01*
X019499Y003127D01*
X019530Y003202D01*
X019882Y003202D01*
X019958Y003278D01*
X019958Y004484D01*
X019882Y004561D01*
X018625Y004561D01*
X018549Y004484D01*
X018549Y003956D01*
X017877Y003736D01*
X017241Y003736D01*
X017165Y003660D01*
X017165Y003001D01*
X017241Y002925D01*
X017900Y002925D01*
X017976Y003001D01*
X017976Y003158D01*
X018549Y003345D01*
X018549Y003278D01*
X018625Y003202D01*
X018754Y003202D01*
X018302Y002750D01*
X015209Y002750D01*
X014560Y003303D01*
X014527Y003335D01*
X014516Y003340D01*
X014507Y003347D01*
X014463Y003362D01*
X014420Y003379D01*
X014408Y003379D01*
X014397Y003383D01*
X014393Y003383D01*
X014405Y003403D01*
X014415Y003441D01*
X014415Y004001D01*
X014040Y004001D01*
X014040Y003378D01*
X013940Y003378D01*
X013940Y004001D01*
X014040Y004001D01*
X014040Y004101D01*
X014415Y004101D01*
X014415Y004662D01*
X014405Y004700D01*
X014385Y004734D01*
X014358Y004762D01*
X014323Y004782D01*
X014285Y004792D01*
X014040Y004792D01*
X014040Y004101D01*
X013940Y004101D01*
X013940Y004001D01*
X013564Y004001D01*
X013564Y003441D01*
X013574Y003403D01*
X013589Y003377D01*
X012698Y003375D01*
X012680Y003380D01*
X012640Y003375D01*
X012600Y003375D01*
X012584Y003368D01*
X012245Y003326D01*
X012262Y003343D01*
X012282Y003377D01*
X012292Y003415D01*
X012292Y003595D01*
X011767Y003595D01*
X011767Y003695D01*
X012292Y003695D01*
X012292Y003875D01*
X012282Y003913D01*
X012262Y003947D01*
X012234Y003975D01*
X012210Y003989D01*
X012272Y004051D01*
X012272Y004053D01*
X012342Y004051D01*
X012408Y003985D01*
X012912Y003985D01*
X012988Y004062D01*
X012988Y004566D01*
X012912Y004642D01*
X012408Y004642D01*
X012332Y004566D01*
X012332Y004552D01*
X012272Y004553D01*
X012272Y004579D01*
X012210Y004641D01*
X012234Y004655D01*
X012262Y004683D01*
X012282Y004717D01*
X012292Y004755D01*
X012292Y004935D01*
X011767Y004935D01*
X011767Y005035D01*
X012292Y005035D01*
X012292Y005215D01*
X012282Y005253D01*
X012262Y005287D01*
X012234Y005315D01*
X012200Y005335D01*
X012162Y005345D01*
X011767Y005345D01*
X011767Y005035D01*
X011667Y005035D01*
X011667Y004935D01*
X011142Y004935D01*
X011142Y004755D01*
X011152Y004717D01*
X011172Y004683D01*
X011200Y004655D01*
X011224Y004641D01*
X011162Y004579D01*
X011162Y004051D01*
X011224Y003989D01*
X011200Y003975D01*
X011172Y003947D01*
X011152Y003913D01*
X011142Y003875D01*
X011142Y003695D01*
X011667Y003695D01*
X011667Y003595D01*
X011142Y003595D01*
X011142Y003415D01*
X011152Y003377D01*
X011172Y003343D01*
X011200Y003315D01*
X011224Y003301D01*
X011162Y003239D01*
X011162Y002711D01*
X011233Y002640D01*
X011162Y002569D01*
X011162Y002041D01*
X011238Y001965D01*
X012196Y001965D01*
X012251Y002020D01*
X013584Y002031D01*
X013584Y001517D01*
X013660Y001441D01*
X014319Y001441D01*
X014389Y001511D01*
X019495Y001488D01*
X020840Y001461D01*
X021534Y001431D01*
X022150Y001253D01*
X002588Y001253D01*
X002657Y001288D01*
X002721Y001334D01*
X002777Y001391D01*
X002824Y001455D01*
X002860Y001525D01*
X002884Y001601D01*
X002895Y001669D01*
X002442Y001669D01*
X002442Y001769D01*
X002342Y001769D01*
X002342Y001669D01*
X001890Y001669D01*
X001900Y001601D01*
X001925Y001525D01*
X001961Y001455D01*
X002008Y001391D01*
X002064Y001334D01*
X002128Y001288D01*
X002197Y001253D01*
X000721Y001253D01*
X000721Y001298D02*
X002114Y001298D01*
X002003Y001397D02*
X000721Y001397D01*
X000721Y001495D02*
X001940Y001495D01*
X001903Y001594D02*
X000721Y001594D01*
X000721Y001692D02*
X002342Y001692D01*
X002342Y001769D02*
X001890Y001769D01*
X001900Y001837D01*
X001925Y001913D01*
X001961Y001983D01*
X002008Y002048D01*
X002064Y002104D01*
X002128Y002150D01*
X002199Y002186D01*
X002274Y002211D01*
X002342Y002222D01*
X002342Y001769D01*
X002342Y001791D02*
X002442Y001791D01*
X002442Y001769D02*
X002442Y002222D01*
X002510Y002211D01*
X002586Y002186D01*
X002657Y002150D01*
X002721Y002104D01*
X002777Y002048D01*
X002824Y001983D01*
X002860Y001913D01*
X002884Y001837D01*
X002895Y001769D01*
X002442Y001769D01*
X002442Y001692D02*
X006258Y001692D01*
X006258Y001594D02*
X002882Y001594D01*
X002844Y001495D02*
X006258Y001495D01*
X006258Y001465D02*
X006334Y001389D01*
X010540Y001389D01*
X010616Y001465D01*
X010616Y005825D01*
X010540Y005901D01*
X009016Y005901D01*
X009176Y006061D01*
X009287Y006172D01*
X009287Y006723D01*
X009308Y006723D01*
X009384Y006799D01*
X009384Y007300D01*
X009308Y007377D01*
X009169Y007377D01*
X009169Y010793D01*
X009175Y010863D01*
X009169Y010871D01*
X009169Y010880D01*
X009119Y010930D01*
X008134Y012111D01*
X008134Y012459D01*
X008058Y012535D01*
X007554Y012535D01*
X007478Y012459D01*
X007478Y011955D01*
X007554Y011879D01*
X007832Y011879D01*
X008789Y010733D01*
X008789Y007377D01*
X008649Y007377D01*
X008573Y007300D01*
X008573Y006799D01*
X008649Y006723D01*
X008907Y006723D01*
X008907Y006329D01*
X008857Y006279D01*
X006046Y006279D01*
X005935Y006168D01*
X005667Y005900D01*
X005667Y004715D01*
X005566Y004614D01*
X004719Y004614D01*
X004719Y004734D01*
X004666Y004787D01*
X004681Y004796D01*
X004709Y004824D01*
X004729Y004858D01*
X004739Y004896D01*
X004739Y005122D01*
X004344Y005122D01*
X004344Y005222D01*
X004739Y005222D01*
X004739Y005447D01*
X004729Y005486D01*
X004723Y005496D01*
X004731Y005504D01*
X004731Y006123D01*
X004667Y006188D01*
X004731Y006252D01*
X004731Y006871D01*
X004719Y006883D01*
X004719Y007057D01*
X005565Y007057D01*
X005677Y007168D01*
X006527Y008018D01*
X006706Y008018D01*
X006706Y007010D01*
X006851Y006866D01*
X006520Y006866D01*
X006520Y006892D01*
X006443Y006968D01*
X005940Y006968D01*
X005863Y006892D01*
X005863Y006388D01*
X005940Y006312D01*
X006443Y006312D01*
X006520Y006388D01*
X006520Y006486D01*
X007707Y006486D01*
X007707Y006425D01*
X007783Y006349D01*
X008442Y006349D01*
X008518Y006425D01*
X008518Y006926D01*
X008442Y007003D01*
X007783Y007003D01*
X007707Y006926D01*
X007707Y006878D01*
X007376Y006878D01*
X007086Y007168D01*
X007086Y008660D01*
X007094Y008669D01*
X007086Y008737D01*
X007086Y008806D01*
X007078Y008814D01*
X007077Y008826D01*
X007029Y008864D01*
X007070Y008864D01*
X007108Y008875D01*
X007142Y008894D01*
X007170Y008922D01*
X007190Y008956D01*
X007200Y008995D01*
X007200Y009241D01*
X006901Y009241D01*
X006901Y009338D01*
X006804Y009338D01*
X006804Y009241D01*
X006506Y009241D01*
X006506Y009055D01*
X006432Y009134D01*
X006432Y009619D01*
X006356Y009696D01*
X006295Y009696D01*
X006295Y009833D01*
X006321Y009860D01*
X006735Y009860D01*
X006975Y010100D01*
X007086Y010211D01*
X007086Y010380D01*
X007139Y010380D01*
X007215Y010457D01*
X007215Y011115D01*
X007139Y011192D01*
X006638Y011192D01*
X006561Y011115D01*
X006561Y010457D01*
X006638Y010380D01*
X006706Y010380D01*
X006706Y010369D01*
X006577Y010240D01*
X006164Y010240D01*
X006053Y010128D01*
X005915Y009991D01*
X005915Y009696D01*
X005854Y009696D01*
X005778Y009619D01*
X005778Y008960D01*
X005854Y008884D01*
X006145Y008884D01*
X006212Y008813D01*
X006152Y008753D01*
X006152Y008181D01*
X005408Y007437D01*
X004719Y007437D01*
X004719Y007497D01*
X004666Y007551D01*
X004681Y007560D01*
X004709Y007588D01*
X004729Y007622D01*
X004739Y007660D01*
X004739Y007886D01*
X004344Y007886D01*
X004344Y007986D01*
X004739Y007986D01*
X004739Y008211D01*
X004729Y008249D01*
X004711Y008280D01*
X004711Y008871D01*
X004647Y008936D01*
X004711Y009000D01*
X004711Y009619D01*
X004710Y009621D01*
X004723Y009634D01*
X004723Y010253D01*
X004670Y010307D01*
X004685Y010316D01*
X004713Y010343D01*
X004733Y010378D01*
X004743Y010416D01*
X004743Y010641D01*
X004348Y010641D01*
X004348Y010741D01*
X004743Y010741D01*
X004743Y010967D01*
X004735Y010996D01*
X004747Y011008D01*
X004747Y011627D01*
X004682Y011691D01*
X004747Y011756D01*
X004747Y012375D01*
X004743Y012379D01*
X004743Y012505D01*
X004857Y012505D01*
X004967Y012616D01*
X006121Y011462D01*
X006187Y011462D01*
X006187Y011323D01*
X006264Y011247D01*
X004747Y011247D01*
X004747Y011345D02*
X006187Y011345D01*
X006187Y011444D02*
X004747Y011444D01*
X004747Y011542D02*
X006041Y011542D01*
X005942Y011641D02*
X004733Y011641D01*
X004730Y011739D02*
X005844Y011739D01*
X005745Y011838D02*
X004747Y011838D01*
X004747Y011936D02*
X005647Y011936D01*
X005548Y012035D02*
X004747Y012035D01*
X004747Y012133D02*
X005450Y012133D01*
X005351Y012232D02*
X004747Y012232D01*
X004747Y012330D02*
X005253Y012330D01*
X005154Y012429D02*
X004743Y012429D01*
X004878Y012527D02*
X005056Y012527D01*
X005298Y012823D02*
X005853Y012823D01*
X005845Y012831D02*
X005921Y012754D01*
X006076Y012754D01*
X006076Y012286D01*
X006152Y012210D01*
X006656Y012210D01*
X006732Y012286D01*
X006732Y012754D01*
X006895Y012754D01*
X006971Y012831D01*
X006971Y013174D01*
X006895Y013251D01*
X006598Y013251D01*
X006598Y013254D01*
X006895Y013254D01*
X006971Y013331D01*
X006971Y013674D01*
X006895Y013751D01*
X005921Y013751D01*
X005845Y013674D01*
X005845Y013331D01*
X005921Y013254D01*
X006218Y013254D01*
X006218Y013251D01*
X005921Y013251D01*
X005845Y013174D01*
X005845Y012831D01*
X005845Y012921D02*
X005199Y012921D01*
X005157Y012963D02*
X005157Y013581D01*
X005388Y013813D01*
X005863Y013813D01*
X005921Y013754D01*
X006895Y013754D01*
X006971Y013831D01*
X006971Y014174D01*
X006895Y014251D01*
X005921Y014251D01*
X005863Y014193D01*
X005231Y014193D01*
X004888Y013850D01*
X004777Y013739D01*
X004777Y012963D01*
X004743Y012929D01*
X004743Y012962D01*
X004689Y013015D01*
X004705Y013024D01*
X004733Y013052D01*
X004753Y013086D01*
X004763Y013125D01*
X004763Y013350D01*
X004367Y013350D01*
X004367Y013450D01*
X004267Y013450D01*
X004267Y013350D01*
X003872Y013350D01*
X003872Y013125D01*
X003882Y013086D01*
X003902Y013052D01*
X003922Y013033D01*
X002787Y013033D01*
X002667Y013153D01*
X002489Y013227D01*
X002296Y013227D01*
X002118Y013153D01*
X001982Y013017D01*
X001908Y012839D01*
X001908Y012646D01*
X001982Y012468D01*
X002118Y012332D01*
X002296Y012258D01*
X002489Y012258D01*
X002667Y012332D01*
X002787Y012453D01*
X003892Y012453D01*
X003892Y012342D01*
X003896Y012338D01*
X003896Y011756D01*
X003960Y011691D01*
X003924Y011655D01*
X002787Y011655D01*
X002667Y011775D01*
X002489Y011849D01*
X002296Y011849D01*
X002118Y011775D01*
X001982Y011639D01*
X001908Y011461D01*
X001908Y011268D01*
X001982Y011090D01*
X002118Y010954D01*
X002296Y010880D01*
X002489Y010880D01*
X002667Y010954D01*
X002787Y011075D01*
X003896Y011075D01*
X003896Y011053D01*
X003882Y011040D01*
X003863Y011005D01*
X003853Y010967D01*
X003853Y010741D01*
X004248Y010741D01*
X004248Y010641D01*
X003853Y010641D01*
X003853Y010416D01*
X003863Y010378D01*
X003882Y010343D01*
X003910Y010316D01*
X003926Y010307D01*
X003896Y010277D01*
X002787Y010277D01*
X002667Y010397D01*
X002489Y010471D01*
X002296Y010471D01*
X002118Y010397D01*
X001987Y010267D01*
X001885Y010369D01*
X001885Y014274D01*
X001964Y014353D01*
X001908Y014217D01*
X001908Y014024D01*
X001982Y013846D01*
X002118Y013710D01*
X002296Y013636D01*
X002489Y013636D01*
X002667Y013710D01*
X002803Y013846D01*
X002877Y014024D01*
X002877Y014217D01*
X002803Y014395D01*
X002667Y014531D01*
X002577Y014568D01*
X003302Y014568D01*
X003344Y014526D01*
X003455Y014415D01*
X004388Y014415D01*
X004388Y014275D01*
X004464Y014199D01*
X004966Y014199D01*
X005042Y014275D01*
X005042Y014415D01*
X005073Y014415D01*
X005479Y014820D01*
X005855Y014820D01*
X005921Y014754D01*
X006895Y014754D01*
X006971Y014831D01*
X006971Y015174D01*
X006895Y015251D01*
X005921Y015251D01*
X005871Y015200D01*
X005436Y015200D01*
X005436Y015423D01*
X005138Y015423D01*
X005138Y015519D01*
X005436Y015519D01*
X005436Y015766D01*
X005426Y015805D01*
X005406Y015839D01*
X005378Y015867D01*
X005344Y015886D01*
X005306Y015897D01*
X005138Y015897D01*
X005138Y015519D01*
X005041Y015519D01*
X005041Y015423D01*
X004742Y015423D01*
X004742Y015176D01*
X004753Y015138D01*
X004772Y015103D01*
X004800Y015075D01*
X004834Y015056D01*
X004873Y015045D01*
X005041Y015045D01*
X005041Y015423D01*
X005138Y015423D01*
X005138Y015045D01*
X005166Y015045D01*
X005042Y014921D01*
X005042Y014934D01*
X004966Y015010D01*
X004464Y015010D01*
X004388Y014934D01*
X004388Y014795D01*
X003613Y014795D01*
X003459Y014948D01*
X002022Y014948D01*
X001911Y014837D01*
X001505Y014432D01*
X001505Y010211D01*
X001617Y010100D01*
X001867Y009850D01*
X001921Y009794D01*
X001922Y009794D01*
X001924Y009793D01*
X001948Y009793D01*
X001982Y009712D01*
X002118Y009576D01*
X002296Y009502D01*
X002489Y009502D01*
X002667Y009576D01*
X002787Y009697D01*
X003873Y009697D01*
X003873Y009634D01*
X003874Y009632D01*
X003861Y009619D01*
X003861Y009000D01*
X003925Y008936D01*
X003888Y008899D01*
X002787Y008899D01*
X002667Y009019D01*
X002489Y009093D01*
X002296Y009093D01*
X002118Y009019D01*
X001982Y008883D01*
X001908Y008705D01*
X001908Y008512D01*
X001982Y008334D01*
X002118Y008198D01*
X002296Y008124D01*
X002489Y008124D01*
X002667Y008198D01*
X002787Y008319D01*
X003861Y008319D01*
X003861Y008253D01*
X003859Y008249D01*
X003849Y008211D01*
X003849Y007986D01*
X004244Y007986D01*
X004244Y007886D01*
X003849Y007886D01*
X003849Y007660D01*
X003859Y007622D01*
X003879Y007588D01*
X003906Y007560D01*
X003922Y007551D01*
X003892Y007521D01*
X002787Y007521D01*
X002667Y007641D01*
X002489Y007715D01*
X002296Y007715D01*
X002118Y007641D01*
X001982Y007505D01*
X001908Y007327D01*
X001908Y007135D01*
X001982Y006957D01*
X002118Y006820D01*
X002296Y006747D01*
X002489Y006747D01*
X002667Y006820D01*
X002787Y006941D01*
X003869Y006941D01*
X003869Y006878D01*
X003880Y006866D01*
X003880Y006252D01*
X003945Y006188D01*
X003880Y006123D01*
X003880Y006112D01*
X002795Y006135D01*
X002667Y006264D01*
X002489Y006337D01*
X002296Y006337D01*
X002118Y006264D01*
X001982Y006127D01*
X001908Y005949D01*
X001908Y005757D01*
X001982Y005579D01*
X002118Y005442D01*
X002296Y005369D01*
X002489Y005369D01*
X002667Y005442D01*
X002779Y005555D01*
X003880Y005532D01*
X003880Y005522D01*
X003879Y005520D01*
X003859Y005486D01*
X003849Y005447D01*
X003849Y005222D01*
X004244Y005222D01*
X004244Y005122D01*
X003849Y005122D01*
X003849Y004896D01*
X003859Y004858D01*
X003879Y004824D01*
X003906Y004796D01*
X003922Y004787D01*
X003900Y004765D01*
X002787Y004765D01*
X002667Y004886D01*
X002489Y004959D01*
X002296Y004959D01*
X002118Y004886D01*
X001982Y004749D01*
X001908Y004571D01*
X001908Y004379D01*
X001982Y004201D01*
X002118Y004064D01*
X002296Y003991D01*
X002489Y003991D01*
X002667Y004064D01*
X002787Y004185D01*
X003869Y004185D01*
X003869Y004115D01*
X003861Y004108D01*
X003861Y003488D01*
X003925Y003424D01*
X003888Y003387D01*
X002787Y003387D01*
X002667Y003508D01*
X002489Y003581D01*
X002296Y003581D01*
X002118Y003508D01*
X001982Y003371D01*
X001908Y003193D01*
X001908Y003001D01*
X001982Y002823D01*
X002118Y002686D01*
X002296Y002613D01*
X002489Y002613D01*
X002667Y002686D01*
X002787Y002807D01*
X003861Y002807D01*
X003861Y002740D01*
X003937Y002664D01*
X004635Y002664D01*
X004711Y002740D01*
X004711Y003360D01*
X004647Y003424D01*
X004711Y003488D01*
X004711Y004106D01*
X004719Y004114D01*
X004719Y004234D01*
X005723Y004234D01*
X005936Y004446D01*
X006047Y004558D01*
X006047Y005743D01*
X006203Y005899D01*
X006332Y005899D01*
X006258Y005825D01*
X006258Y001465D01*
X006327Y001397D02*
X002781Y001397D01*
X002671Y001298D02*
X021993Y001298D01*
X021653Y001397D02*
X010548Y001397D01*
X010616Y001495D02*
X013606Y001495D01*
X013584Y001594D02*
X010616Y001594D01*
X010616Y001692D02*
X013584Y001692D01*
X013584Y001791D02*
X010616Y001791D01*
X010616Y001889D02*
X013584Y001889D01*
X013584Y001988D02*
X012218Y001988D01*
X011216Y001988D02*
X010616Y001988D01*
X010616Y002086D02*
X011162Y002086D01*
X011162Y002185D02*
X010616Y002185D01*
X010616Y002283D02*
X011162Y002283D01*
X011162Y002382D02*
X010616Y002382D01*
X010616Y002480D02*
X011162Y002480D01*
X011172Y002579D02*
X010616Y002579D01*
X010616Y002677D02*
X011196Y002677D01*
X011162Y002776D02*
X010616Y002776D01*
X010616Y002874D02*
X011162Y002874D01*
X011162Y002973D02*
X010616Y002973D01*
X010616Y003071D02*
X011162Y003071D01*
X011162Y003170D02*
X010616Y003170D01*
X010616Y003268D02*
X011191Y003268D01*
X011159Y003367D02*
X010616Y003367D01*
X010616Y003465D02*
X011142Y003465D01*
X011142Y003564D02*
X010616Y003564D01*
X010616Y003662D02*
X011667Y003662D01*
X011767Y003662D02*
X013564Y003662D01*
X013564Y003564D02*
X012292Y003564D01*
X012292Y003465D02*
X013564Y003465D01*
X013564Y003761D02*
X012292Y003761D01*
X012292Y003859D02*
X013564Y003859D01*
X013564Y003958D02*
X012252Y003958D01*
X012983Y004056D02*
X013940Y004056D01*
X013940Y004101D02*
X013564Y004101D01*
X013564Y004662D01*
X013574Y004700D01*
X013594Y004734D01*
X013622Y004762D01*
X013656Y004782D01*
X013695Y004792D01*
X013940Y004792D01*
X013940Y004101D01*
X013940Y004155D02*
X014040Y004155D01*
X014040Y004253D02*
X013940Y004253D01*
X013940Y004352D02*
X014040Y004352D01*
X014040Y004450D02*
X013940Y004450D01*
X013940Y004549D02*
X014040Y004549D01*
X014040Y004647D02*
X013940Y004647D01*
X013940Y004746D02*
X014040Y004746D01*
X014374Y004746D02*
X016022Y004746D01*
X016022Y004844D02*
X012292Y004844D01*
X012290Y004746D02*
X013606Y004746D01*
X013564Y004647D02*
X012220Y004647D01*
X012292Y005041D02*
X016022Y005041D01*
X016022Y004943D02*
X011767Y004943D01*
X011767Y005041D02*
X011667Y005041D01*
X011667Y005035D02*
X011667Y005345D01*
X011272Y005345D01*
X011234Y005335D01*
X011200Y005315D01*
X011172Y005287D01*
X011152Y005253D01*
X011142Y005215D01*
X011142Y005035D01*
X011667Y005035D01*
X011667Y004943D02*
X010616Y004943D01*
X010616Y005041D02*
X011142Y005041D01*
X011142Y005140D02*
X010616Y005140D01*
X010616Y005238D02*
X011148Y005238D01*
X011240Y005337D02*
X010616Y005337D01*
X010616Y005435D02*
X015232Y005435D01*
X015232Y005396D02*
X014832Y005396D01*
X014832Y005177D01*
X014842Y005139D01*
X014842Y005140D02*
X012292Y005140D01*
X012286Y005238D02*
X014832Y005238D01*
X014832Y005337D02*
X012194Y005337D01*
X011767Y005337D02*
X011667Y005337D01*
X011667Y005238D02*
X011767Y005238D01*
X011767Y005140D02*
X011667Y005140D01*
X011142Y004844D02*
X010616Y004844D01*
X010616Y004746D02*
X011145Y004746D01*
X011214Y004647D02*
X010616Y004647D01*
X010616Y004549D02*
X011162Y004549D01*
X011162Y004450D02*
X010616Y004450D01*
X010616Y004352D02*
X011162Y004352D01*
X011162Y004253D02*
X010616Y004253D01*
X010616Y004155D02*
X011162Y004155D01*
X011162Y004056D02*
X010616Y004056D01*
X010616Y003958D02*
X011182Y003958D01*
X011142Y003859D02*
X010616Y003859D01*
X010616Y003761D02*
X011142Y003761D01*
X012276Y003367D02*
X012571Y003367D01*
X012988Y004155D02*
X013564Y004155D01*
X013564Y004253D02*
X012988Y004253D01*
X012988Y004352D02*
X013564Y004352D01*
X013564Y004450D02*
X012988Y004450D01*
X012988Y004549D02*
X013564Y004549D01*
X014040Y004056D02*
X016143Y004056D01*
X016143Y003958D02*
X014415Y003958D01*
X014415Y003859D02*
X016175Y003859D01*
X016249Y003761D02*
X014415Y003761D01*
X014415Y003662D02*
X015658Y003662D01*
X015659Y003664D02*
X015649Y003625D01*
X015649Y003380D01*
X016024Y003380D01*
X016024Y003756D01*
X015779Y003756D01*
X015741Y003746D01*
X015707Y003726D01*
X015679Y003698D01*
X015659Y003664D01*
X015649Y003564D02*
X014415Y003564D01*
X014415Y003465D02*
X015649Y003465D01*
X015649Y003268D02*
X014600Y003268D01*
X014716Y003170D02*
X015649Y003170D01*
X015649Y003071D02*
X014832Y003071D01*
X014948Y002973D02*
X015673Y002973D01*
X016024Y002973D02*
X016124Y002973D01*
X016124Y003071D02*
X016024Y003071D01*
X016024Y003170D02*
X016124Y003170D01*
X016124Y003268D02*
X016024Y003268D01*
X016024Y003367D02*
X014451Y003367D01*
X014040Y003465D02*
X013940Y003465D01*
X013940Y003564D02*
X014040Y003564D01*
X014040Y003662D02*
X013940Y003662D01*
X013940Y003761D02*
X014040Y003761D01*
X014040Y003859D02*
X013940Y003859D01*
X013940Y003958D02*
X014040Y003958D01*
X014415Y004155D02*
X016179Y004155D01*
X016258Y004253D02*
X014415Y004253D01*
X014415Y004352D02*
X016301Y004352D01*
X016301Y004450D02*
X014415Y004450D01*
X014415Y004549D02*
X016301Y004549D01*
X016022Y004647D02*
X014415Y004647D01*
X014862Y005104D02*
X014890Y005076D01*
X014924Y005057D01*
X014962Y005046D01*
X015232Y005046D01*
X015232Y005396D01*
X015232Y005337D02*
X015332Y005337D01*
X015332Y005435D02*
X016801Y005435D01*
X016485Y005534D02*
X015732Y005534D01*
X015732Y005632D02*
X016459Y005632D01*
X016459Y005731D02*
X015728Y005731D01*
X015652Y005829D02*
X016459Y005829D01*
X016459Y005928D02*
X016413Y005928D01*
X016424Y006026D02*
X016459Y006026D01*
X016424Y006125D02*
X016523Y006125D01*
X016459Y006322D02*
X016424Y006322D01*
X016419Y006420D02*
X016459Y006420D01*
X016459Y006519D02*
X016335Y006519D01*
X016459Y006617D02*
X015516Y006617D01*
X015516Y006716D02*
X016459Y006716D01*
X016457Y006814D02*
X016465Y006814D01*
X016555Y006913D02*
X017311Y006913D01*
X017311Y007011D02*
X016988Y007011D01*
X017087Y007110D02*
X017311Y007110D01*
X017185Y007208D02*
X017880Y007208D01*
X017880Y007307D02*
X017284Y007307D01*
X017382Y007405D02*
X017942Y007405D01*
X018040Y007504D02*
X017481Y007504D01*
X017579Y007602D02*
X018139Y007602D01*
X018247Y007455D02*
X021066Y007455D01*
X021219Y007609D01*
X021219Y009089D01*
X021676Y009546D01*
X023302Y009546D01*
X023317Y009530D01*
X023325Y009522D01*
X023640Y009522D01*
X023652Y009510D01*
X023731Y009510D01*
X024010Y009231D01*
X024010Y006691D01*
X024191Y006510D01*
X024877Y006510D01*
X025093Y006294D01*
X025093Y006231D01*
X025310Y006014D01*
X025770Y006014D01*
X025943Y005841D01*
X026621Y005180D01*
X027021Y005337D02*
X027198Y005337D01*
X027204Y005352D02*
X027182Y005285D01*
X027173Y005230D01*
X027571Y005230D01*
X027571Y005627D01*
X027515Y005619D01*
X027448Y005597D01*
X027385Y005565D01*
X027327Y005523D01*
X027277Y005473D01*
X027236Y005416D01*
X027204Y005352D01*
X027250Y005435D02*
X026973Y005435D01*
X026875Y005534D02*
X027342Y005534D01*
X027571Y005534D02*
X027671Y005534D01*
X027671Y005627D02*
X027671Y005230D01*
X028068Y005230D01*
X028060Y005285D01*
X028038Y005352D01*
X028006Y005416D01*
X027964Y005473D01*
X027914Y005523D01*
X027856Y005565D01*
X027793Y005597D01*
X027726Y005619D01*
X027671Y005627D01*
X027671Y005435D02*
X027571Y005435D01*
X027571Y005337D02*
X027671Y005337D01*
X027671Y005238D02*
X027571Y005238D01*
X027571Y005230D02*
X027671Y005230D01*
X027671Y005130D01*
X028068Y005130D01*
X028060Y005074D01*
X028038Y005007D01*
X028006Y004944D01*
X027964Y004887D01*
X027914Y004836D01*
X027856Y004795D01*
X027793Y004763D01*
X027726Y004741D01*
X027671Y004732D01*
X027671Y005130D01*
X027571Y005130D01*
X027173Y005130D01*
X027182Y005074D01*
X027204Y005007D01*
X027236Y004944D01*
X027277Y004887D01*
X027327Y004836D01*
X027385Y004795D01*
X027448Y004763D01*
X027515Y004741D01*
X027571Y004732D01*
X027571Y005130D01*
X027571Y005230D01*
X027571Y005140D02*
X027051Y005140D01*
X027051Y005238D02*
X027174Y005238D01*
X027193Y005041D02*
X027029Y005041D01*
X026988Y004943D02*
X027237Y004943D01*
X027320Y004844D02*
X026893Y004844D01*
X026348Y004844D02*
X025893Y004844D01*
X025988Y004943D02*
X026253Y004943D01*
X026213Y005041D02*
X026029Y005041D01*
X026051Y005140D02*
X026191Y005140D01*
X026191Y005238D02*
X026051Y005238D01*
X026021Y005337D02*
X026202Y005337D01*
X026102Y005435D02*
X025973Y005435D01*
X026001Y005534D02*
X025875Y005534D01*
X025900Y005632D02*
X025082Y005632D01*
X025180Y005534D02*
X025366Y005534D01*
X024983Y005731D02*
X025799Y005731D01*
X025701Y005829D02*
X024885Y005829D01*
X024786Y005928D02*
X025142Y005928D01*
X025043Y006026D02*
X024688Y006026D01*
X024589Y006125D02*
X024945Y006125D01*
X024909Y006223D02*
X022641Y006223D01*
X022641Y006322D02*
X024811Y006322D01*
X024979Y006716D02*
X024241Y006716D01*
X024190Y006814D02*
X024938Y006814D01*
X024918Y006913D02*
X024190Y006913D01*
X024190Y007011D02*
X024918Y007011D01*
X024918Y007110D02*
X024190Y007110D01*
X024190Y007208D02*
X024918Y007208D01*
X024953Y007307D02*
X024190Y007307D01*
X024190Y007405D02*
X024994Y007405D01*
X025035Y007504D02*
X024190Y007504D01*
X024190Y007602D02*
X025105Y007602D01*
X025204Y007701D02*
X024190Y007701D01*
X024190Y007799D02*
X025302Y007799D01*
X025532Y007898D02*
X024190Y007898D01*
X024190Y007996D02*
X028072Y007996D01*
X028072Y007898D02*
X026103Y007898D01*
X026333Y007799D02*
X028072Y007799D01*
X028072Y007701D02*
X026431Y007701D01*
X026530Y007602D02*
X028072Y007602D01*
X028072Y007504D02*
X026600Y007504D01*
X026641Y007405D02*
X028072Y007405D01*
X028072Y007307D02*
X026682Y007307D01*
X026717Y007208D02*
X028073Y007208D01*
X028073Y007110D02*
X026717Y007110D01*
X026717Y007011D02*
X028073Y007011D01*
X028073Y006913D02*
X026717Y006913D01*
X026697Y006814D02*
X028073Y006814D01*
X028073Y006716D02*
X026656Y006716D01*
X026615Y006617D02*
X028073Y006617D01*
X028073Y006519D02*
X026566Y006519D01*
X026468Y006420D02*
X028073Y006420D01*
X028074Y006322D02*
X026369Y006322D01*
X026191Y006223D02*
X028074Y006223D01*
X028074Y006125D02*
X025915Y006125D01*
X026013Y006026D02*
X028074Y006026D01*
X028074Y005928D02*
X026113Y005928D01*
X026213Y005829D02*
X028074Y005829D01*
X028074Y005731D02*
X026314Y005731D01*
X026415Y005632D02*
X028074Y005632D01*
X028074Y005534D02*
X027899Y005534D01*
X027991Y005435D02*
X028074Y005435D01*
X028075Y005337D02*
X028043Y005337D01*
X028067Y005238D02*
X028075Y005238D01*
X028075Y005140D02*
X027671Y005140D01*
X027671Y005041D02*
X027571Y005041D01*
X027571Y004943D02*
X027671Y004943D01*
X027671Y004844D02*
X027571Y004844D01*
X027571Y004746D02*
X027671Y004746D01*
X027741Y004746D02*
X028075Y004746D01*
X028075Y004844D02*
X027921Y004844D01*
X028005Y004943D02*
X028075Y004943D01*
X028075Y005041D02*
X028049Y005041D01*
X028075Y004647D02*
X017542Y004647D01*
X017542Y004746D02*
X027501Y004746D01*
X028075Y004549D02*
X024052Y004549D01*
X024040Y004561D02*
X022782Y004561D01*
X022706Y004484D01*
X022706Y003642D01*
X022207Y003642D01*
X022131Y003566D01*
X022131Y003062D01*
X022207Y002985D01*
X022711Y002985D01*
X022787Y003062D01*
X022787Y003064D01*
X023444Y003064D01*
X023536Y003102D01*
X023606Y003172D01*
X023619Y003202D01*
X024040Y003202D01*
X024070Y003233D01*
X024537Y003002D01*
X024537Y002577D01*
X024613Y002501D01*
X025902Y002501D01*
X025978Y002577D01*
X025978Y003236D01*
X025902Y003312D01*
X025219Y003312D01*
X024116Y003857D01*
X024116Y004484D01*
X024040Y004561D01*
X024116Y004450D02*
X028076Y004450D01*
X028076Y004352D02*
X024116Y004352D01*
X024116Y004253D02*
X028076Y004253D01*
X028076Y004155D02*
X024116Y004155D01*
X024116Y004056D02*
X028076Y004056D01*
X028076Y003958D02*
X024116Y003958D01*
X024116Y003859D02*
X028076Y003859D01*
X028076Y003761D02*
X024311Y003761D01*
X024510Y003662D02*
X028076Y003662D01*
X028076Y003564D02*
X024710Y003564D01*
X024909Y003465D02*
X028077Y003465D01*
X028077Y003367D02*
X025109Y003367D01*
X024537Y002973D02*
X019345Y002973D01*
X019443Y003071D02*
X022131Y003071D01*
X022131Y003170D02*
X019517Y003170D01*
X019948Y003268D02*
X022131Y003268D01*
X022131Y003367D02*
X019958Y003367D01*
X019958Y003465D02*
X022131Y003465D01*
X022131Y003564D02*
X019958Y003564D01*
X019958Y003662D02*
X022706Y003662D01*
X022706Y003761D02*
X019958Y003761D01*
X019958Y003859D02*
X022706Y003859D01*
X022706Y003958D02*
X019958Y003958D01*
X019958Y004056D02*
X022706Y004056D01*
X022706Y004155D02*
X019958Y004155D01*
X019958Y004253D02*
X022706Y004253D01*
X022706Y004352D02*
X019958Y004352D01*
X019958Y004450D02*
X022706Y004450D01*
X022770Y004549D02*
X019894Y004549D01*
X018613Y004549D02*
X016641Y004549D01*
X016641Y004450D02*
X018549Y004450D01*
X018549Y004352D02*
X016641Y004352D01*
X016685Y004253D02*
X018549Y004253D01*
X018549Y004155D02*
X016763Y004155D01*
X016799Y004056D02*
X018549Y004056D01*
X018549Y003958D02*
X016799Y003958D01*
X016767Y003859D02*
X018254Y003859D01*
X017953Y003761D02*
X016693Y003761D01*
X016490Y003662D02*
X017167Y003662D01*
X017165Y003564D02*
X016500Y003564D01*
X016500Y003465D02*
X017165Y003465D01*
X017165Y003367D02*
X016124Y003367D01*
X016124Y003465D02*
X016024Y003465D01*
X016024Y003564D02*
X016124Y003564D01*
X016124Y003662D02*
X016024Y003662D01*
X016500Y003268D02*
X017165Y003268D01*
X017165Y003170D02*
X016500Y003170D01*
X016500Y003071D02*
X017165Y003071D01*
X017193Y002973D02*
X016476Y002973D01*
X015179Y002776D02*
X018328Y002776D01*
X018426Y002874D02*
X015063Y002874D01*
X014631Y002480D02*
X014395Y002480D01*
X014395Y002382D02*
X014747Y002382D01*
X014863Y002283D02*
X014395Y002283D01*
X014395Y002185D02*
X015010Y002185D01*
X015457Y002086D02*
X028078Y002086D01*
X028078Y001988D02*
X021697Y001988D01*
X022037Y001889D02*
X028078Y001889D01*
X028078Y001791D02*
X022378Y001791D01*
X023462Y003071D02*
X024397Y003071D01*
X024198Y003170D02*
X023604Y003170D01*
X024537Y002874D02*
X019246Y002874D01*
X019148Y002776D02*
X024537Y002776D01*
X024537Y002677D02*
X019049Y002677D01*
X018951Y002579D02*
X024537Y002579D01*
X025978Y002579D02*
X026415Y002579D01*
X026417Y002573D02*
X026437Y002539D01*
X026465Y002511D01*
X026499Y002491D01*
X026537Y002481D01*
X027097Y002481D01*
X027097Y002856D01*
X027197Y002856D01*
X027197Y002481D01*
X027758Y002481D01*
X027796Y002491D01*
X027830Y002511D01*
X027858Y002539D01*
X027878Y002573D01*
X027888Y002611D01*
X027888Y002856D01*
X027197Y002856D01*
X027197Y002956D01*
X027888Y002956D01*
X027888Y003202D01*
X027878Y003240D01*
X027858Y003274D01*
X027830Y003302D01*
X027796Y003322D01*
X027758Y003332D01*
X027197Y003332D01*
X027197Y002956D01*
X027097Y002956D01*
X027097Y002856D01*
X026407Y002856D01*
X026407Y002611D01*
X026417Y002573D01*
X026407Y002677D02*
X025978Y002677D01*
X025978Y002776D02*
X026407Y002776D01*
X026407Y002956D02*
X027097Y002956D01*
X027097Y003332D01*
X026537Y003332D01*
X026499Y003322D01*
X026465Y003302D01*
X026437Y003274D01*
X026417Y003240D01*
X026407Y003202D01*
X026407Y002956D01*
X026407Y002973D02*
X025978Y002973D01*
X025978Y003071D02*
X026407Y003071D01*
X026407Y003170D02*
X025978Y003170D01*
X025946Y003268D02*
X026433Y003268D01*
X025978Y002874D02*
X027097Y002874D01*
X027097Y002776D02*
X027197Y002776D01*
X027197Y002874D02*
X028077Y002874D01*
X028077Y002776D02*
X027888Y002776D01*
X027888Y002677D02*
X028077Y002677D01*
X028077Y002579D02*
X027879Y002579D01*
X028078Y002480D02*
X018852Y002480D01*
X018754Y002382D02*
X028078Y002382D01*
X028078Y002283D02*
X018655Y002283D01*
X018515Y002185D02*
X028078Y002185D01*
X027197Y002579D02*
X027097Y002579D01*
X027097Y002677D02*
X027197Y002677D01*
X027197Y002973D02*
X027097Y002973D01*
X027097Y003071D02*
X027197Y003071D01*
X027197Y003170D02*
X027097Y003170D01*
X027097Y003268D02*
X027197Y003268D01*
X027861Y003268D02*
X028077Y003268D01*
X028077Y003170D02*
X027888Y003170D01*
X027888Y003071D02*
X028077Y003071D01*
X028077Y002973D02*
X027888Y002973D01*
X025348Y004844D02*
X024893Y004844D01*
X024988Y004943D02*
X025253Y004943D01*
X025192Y005041D02*
X025029Y005041D01*
X025051Y005140D02*
X025094Y005140D01*
X024601Y005632D02*
X021319Y005632D01*
X021529Y005976D02*
X020895Y005964D01*
X018154Y005964D01*
X018153Y006002D01*
X018154Y006069D01*
X018151Y006072D01*
X018151Y006081D01*
X018232Y006081D01*
X018308Y006157D01*
X018308Y007131D01*
X018242Y007196D01*
X018321Y007275D01*
X018513Y007275D01*
X018445Y007207D01*
X018388Y007207D01*
X018311Y007131D01*
X018311Y006157D01*
X018388Y006081D01*
X018732Y006081D01*
X018802Y006152D01*
X018821Y006119D01*
X018849Y006091D01*
X018884Y006071D01*
X018922Y006061D01*
X019051Y006061D01*
X019051Y006635D01*
X019069Y006635D01*
X019069Y006653D01*
X019328Y006653D01*
X019328Y007059D01*
X021345Y007059D01*
X021468Y007182D01*
X021486Y006822D01*
X021470Y006861D01*
X021345Y006986D01*
X021182Y007054D01*
X021005Y007054D01*
X020841Y006986D01*
X020716Y006861D01*
X020648Y006697D01*
X020648Y006520D01*
X020716Y006357D01*
X020841Y006232D01*
X021005Y006164D01*
X021182Y006164D01*
X021345Y006232D01*
X021470Y006357D01*
X021505Y006442D01*
X021529Y005976D01*
X021526Y006026D02*
X018153Y006026D01*
X018275Y006125D02*
X018344Y006125D01*
X018311Y006223D02*
X018308Y006223D01*
X018308Y006322D02*
X018311Y006322D01*
X018308Y006420D02*
X018311Y006420D01*
X018308Y006519D02*
X018311Y006519D01*
X018308Y006617D02*
X018311Y006617D01*
X018308Y006716D02*
X018311Y006716D01*
X018308Y006814D02*
X018311Y006814D01*
X018308Y006913D02*
X018311Y006913D01*
X018308Y007011D02*
X018311Y007011D01*
X018308Y007110D02*
X018311Y007110D01*
X018254Y007208D02*
X018446Y007208D01*
X018560Y007067D02*
X018731Y007239D01*
X021270Y007239D01*
X021475Y007443D01*
X021475Y007503D01*
X021475Y008861D01*
X021664Y009050D01*
X022290Y009050D01*
X022310Y009030D01*
X022677Y008883D02*
X023130Y008883D01*
X023089Y008866D02*
X022978Y008754D01*
X022918Y008609D01*
X022918Y008451D01*
X022978Y008306D01*
X023031Y008253D01*
X022657Y008253D01*
X022653Y008262D01*
X022542Y008373D01*
X022396Y008434D01*
X022239Y008434D01*
X022093Y008373D01*
X021982Y008262D01*
X021922Y008117D01*
X021922Y007959D01*
X021982Y007814D01*
X022093Y007702D01*
X022239Y007642D01*
X022396Y007642D01*
X022542Y007702D01*
X022592Y007753D01*
X022980Y007753D01*
X022922Y007613D01*
X022922Y007455D01*
X022982Y007310D01*
X023093Y007199D01*
X023239Y007138D01*
X023396Y007138D01*
X023542Y007199D01*
X023653Y007310D01*
X023668Y007346D01*
X023683Y007361D01*
X023692Y007383D01*
X023706Y007404D01*
X023711Y007429D01*
X023721Y007453D01*
X023721Y007477D01*
X023726Y007501D01*
X023721Y007526D01*
X023721Y008052D01*
X023721Y008481D01*
X023726Y008508D01*
X023721Y008530D01*
X023721Y008552D01*
X023710Y008578D01*
X023709Y008583D01*
X023709Y008609D01*
X023649Y008754D01*
X023538Y008866D01*
X023392Y008926D01*
X023235Y008926D01*
X023089Y008866D01*
X023008Y008784D02*
X022623Y008784D01*
X022512Y008686D02*
X022950Y008686D01*
X022918Y008587D02*
X021655Y008587D01*
X021655Y008489D02*
X022918Y008489D01*
X022943Y008390D02*
X022502Y008390D01*
X022624Y008292D02*
X022992Y008292D01*
X023721Y008292D02*
X023830Y008292D01*
X023830Y008390D02*
X023721Y008390D01*
X023722Y008489D02*
X023830Y008489D01*
X023830Y008587D02*
X023709Y008587D01*
X023678Y008686D02*
X023830Y008686D01*
X023830Y008784D02*
X023619Y008784D01*
X023497Y008883D02*
X023830Y008883D01*
X023830Y008981D02*
X022705Y008981D01*
X022705Y009080D02*
X023830Y009080D01*
X023809Y009178D02*
X023502Y009178D01*
X023624Y009277D02*
X023710Y009277D01*
X024022Y009474D02*
X028070Y009474D01*
X028070Y009572D02*
X023924Y009572D01*
X023825Y009671D02*
X028070Y009671D01*
X028070Y009769D02*
X023638Y009769D01*
X023537Y009868D02*
X028070Y009868D01*
X028070Y009966D02*
X022716Y009966D01*
X022717Y010049D02*
X022707Y010108D01*
X022687Y010170D01*
X022657Y010228D01*
X022619Y010281D01*
X022573Y010328D01*
X022520Y010366D01*
X022461Y010396D01*
X022399Y010416D01*
X022340Y010425D01*
X022340Y010049D01*
X022717Y010049D01*
X022714Y010065D02*
X028070Y010065D01*
X028069Y010163D02*
X023528Y010163D01*
X023535Y010167D02*
X023588Y010205D01*
X023635Y010251D01*
X023673Y010304D01*
X023703Y010363D01*
X023723Y010425D01*
X023732Y010484D01*
X023356Y010484D01*
X023356Y010561D01*
X023279Y010561D01*
X023279Y010937D01*
X023220Y010928D01*
X023158Y010907D01*
X023100Y010878D01*
X023047Y010839D01*
X023000Y010793D01*
X022962Y010740D01*
X022932Y010682D01*
X022912Y010620D01*
X022903Y010561D01*
X023279Y010561D01*
X023279Y010484D01*
X022903Y010484D01*
X022912Y010425D01*
X022932Y010363D01*
X022962Y010304D01*
X023000Y010251D01*
X023047Y010205D01*
X023100Y010167D01*
X023158Y010137D01*
X023220Y010117D01*
X023279Y010107D01*
X023279Y010484D01*
X023356Y010484D01*
X023356Y010107D01*
X023415Y010117D01*
X023477Y010137D01*
X023535Y010167D01*
X023642Y010262D02*
X028069Y010262D01*
X028069Y010360D02*
X023701Y010360D01*
X023728Y010459D02*
X028069Y010459D01*
X028069Y010557D02*
X023356Y010557D01*
X023356Y010561D02*
X023732Y010561D01*
X023723Y010620D01*
X023703Y010682D01*
X023673Y010740D01*
X023635Y010793D01*
X023588Y010839D01*
X023535Y010878D01*
X023477Y010907D01*
X023415Y010928D01*
X023356Y010937D01*
X023356Y010561D01*
X023279Y010557D02*
X021721Y010557D01*
X021721Y010459D02*
X022907Y010459D01*
X022933Y010360D02*
X022528Y010360D01*
X022633Y010262D02*
X022993Y010262D01*
X023107Y010163D02*
X022689Y010163D01*
X022340Y010163D02*
X022263Y010163D01*
X022263Y010065D02*
X022340Y010065D01*
X022263Y010049D02*
X022263Y010425D01*
X022204Y010416D01*
X022142Y010396D01*
X022084Y010366D01*
X022031Y010328D01*
X021985Y010281D01*
X021946Y010228D01*
X021916Y010170D01*
X021896Y010108D01*
X021887Y010049D01*
X022263Y010049D01*
X022263Y010262D02*
X022340Y010262D01*
X022340Y010360D02*
X022263Y010360D01*
X022076Y010360D02*
X021721Y010360D01*
X021721Y010262D02*
X021970Y010262D01*
X021914Y010163D02*
X021760Y010163D01*
X021799Y010065D02*
X021889Y010065D01*
X021888Y009966D02*
X021799Y009966D01*
X021770Y009868D02*
X021911Y009868D01*
X021963Y009769D02*
X021702Y009769D01*
X021546Y009671D02*
X021117Y009671D01*
X021117Y009769D02*
X021240Y009769D01*
X021172Y009868D02*
X021117Y009868D01*
X021143Y009966D02*
X019748Y009966D01*
X019649Y010065D02*
X021143Y010065D01*
X021182Y010163D02*
X019551Y010163D01*
X019452Y010262D02*
X021221Y010262D01*
X021221Y010360D02*
X019354Y010360D01*
X019255Y010459D02*
X019467Y010459D01*
X019467Y010557D02*
X019157Y010557D01*
X019058Y010656D02*
X019467Y010656D01*
X019467Y010754D02*
X018960Y010754D01*
X018861Y010853D02*
X019467Y010853D01*
X019467Y010951D02*
X018763Y010951D01*
X018664Y011050D02*
X019467Y011050D01*
X019467Y011148D02*
X018566Y011148D01*
X018467Y011247D02*
X019467Y011247D01*
X019467Y011345D02*
X018369Y011345D01*
X018270Y011444D02*
X019060Y011444D01*
X018961Y011542D02*
X018196Y011542D01*
X018196Y011641D02*
X018863Y011641D01*
X018764Y011739D02*
X018196Y011739D01*
X018180Y011838D02*
X018228Y011838D01*
X018161Y011936D02*
X018082Y011936D01*
X018161Y012035D02*
X017983Y012035D01*
X017957Y012133D02*
X018134Y012133D01*
X018036Y012232D02*
X017957Y012232D01*
X017625Y012652D02*
X016938Y012652D01*
X016936Y012650D01*
X016606Y012626D02*
X015945Y012626D01*
X015945Y012724D02*
X016606Y012724D01*
X016606Y012823D02*
X015912Y012823D01*
X015945Y012790D02*
X015869Y012866D01*
X015366Y012866D01*
X015366Y015140D01*
X015409Y015184D01*
X015409Y015688D01*
X015333Y015764D01*
X014829Y015764D01*
X014753Y015688D01*
X014753Y015184D01*
X014829Y015107D01*
X014986Y015107D01*
X014986Y012375D01*
X014932Y012429D01*
X014721Y012429D01*
X014721Y016753D01*
X016606Y016753D01*
X016606Y016471D01*
X016677Y016400D01*
X016606Y016329D01*
X016606Y015971D01*
X016677Y015900D01*
X016606Y015829D01*
X016606Y015471D01*
X016677Y015400D01*
X016606Y015329D01*
X016606Y014971D01*
X016677Y014900D01*
X016606Y014829D01*
X016606Y014471D01*
X016677Y014400D01*
X016606Y014329D01*
X016606Y013971D01*
X016668Y013909D01*
X016643Y013895D01*
X016616Y013867D01*
X016596Y013833D01*
X016586Y013795D01*
X016586Y013663D01*
X016923Y013663D01*
X016923Y013638D01*
X016586Y013638D01*
X016586Y013505D01*
X016596Y013467D01*
X016616Y013433D01*
X016643Y013405D01*
X016668Y013391D01*
X016606Y013329D01*
X016606Y012971D01*
X016677Y012900D01*
X016606Y012829D01*
X016606Y012471D01*
X016677Y012400D01*
X016617Y012340D01*
X016083Y012340D01*
X015945Y012479D01*
X015945Y012790D01*
X015945Y012527D02*
X016606Y012527D01*
X016648Y012429D02*
X015995Y012429D01*
X015366Y012921D02*
X016656Y012921D01*
X016606Y013020D02*
X015366Y013020D01*
X015366Y013118D02*
X016606Y013118D01*
X016606Y013217D02*
X015366Y013217D01*
X015366Y013315D02*
X016606Y013315D01*
X016635Y013414D02*
X015366Y013414D01*
X015366Y013512D02*
X016586Y013512D01*
X016586Y013611D02*
X015366Y013611D01*
X015366Y013709D02*
X016586Y013709D01*
X016589Y013808D02*
X015366Y013808D01*
X015366Y013906D02*
X016662Y013906D01*
X016606Y014005D02*
X015366Y014005D01*
X015366Y014103D02*
X016606Y014103D01*
X016606Y014202D02*
X015366Y014202D01*
X015366Y014300D02*
X016606Y014300D01*
X016675Y014399D02*
X015366Y014399D01*
X015366Y014497D02*
X016606Y014497D01*
X016606Y014596D02*
X015366Y014596D01*
X015366Y014694D02*
X016606Y014694D01*
X016606Y014793D02*
X015366Y014793D01*
X015366Y014891D02*
X016668Y014891D01*
X016606Y014990D02*
X015366Y014990D01*
X015366Y015088D02*
X016606Y015088D01*
X016606Y015187D02*
X015409Y015187D01*
X015409Y015285D02*
X016606Y015285D01*
X016660Y015384D02*
X015409Y015384D01*
X015409Y015482D02*
X016606Y015482D01*
X016606Y015581D02*
X015409Y015581D01*
X015409Y015679D02*
X016606Y015679D01*
X016606Y015778D02*
X014721Y015778D01*
X014721Y015876D02*
X016653Y015876D01*
X016606Y015975D02*
X014721Y015975D01*
X014721Y016073D02*
X016606Y016073D01*
X016606Y016172D02*
X014721Y016172D01*
X014721Y016270D02*
X016606Y016270D01*
X016645Y016369D02*
X014721Y016369D01*
X014721Y016467D02*
X016610Y016467D01*
X016606Y016566D02*
X014721Y016566D01*
X014721Y016664D02*
X016606Y016664D01*
X014753Y015679D02*
X014721Y015679D01*
X014721Y015581D02*
X014753Y015581D01*
X014753Y015482D02*
X014721Y015482D01*
X014721Y015384D02*
X014753Y015384D01*
X014753Y015285D02*
X014721Y015285D01*
X014721Y015187D02*
X014753Y015187D01*
X014721Y015088D02*
X014986Y015088D01*
X014986Y014990D02*
X014721Y014990D01*
X014721Y014891D02*
X014986Y014891D01*
X014986Y014793D02*
X014721Y014793D01*
X014721Y014694D02*
X014986Y014694D01*
X014986Y014596D02*
X014721Y014596D01*
X014721Y014497D02*
X014986Y014497D01*
X014986Y014399D02*
X014721Y014399D01*
X014721Y014300D02*
X014986Y014300D01*
X014986Y014202D02*
X014721Y014202D01*
X014721Y014103D02*
X014986Y014103D01*
X014986Y014005D02*
X014721Y014005D01*
X014721Y013906D02*
X014986Y013906D01*
X014986Y013808D02*
X014721Y013808D01*
X014721Y013709D02*
X014986Y013709D01*
X014986Y013611D02*
X014721Y013611D01*
X014721Y013512D02*
X014986Y013512D01*
X014986Y013414D02*
X014721Y013414D01*
X014721Y013315D02*
X014986Y013315D01*
X014986Y013217D02*
X014721Y013217D01*
X014721Y013118D02*
X014986Y013118D01*
X014986Y013020D02*
X014721Y013020D01*
X014721Y012921D02*
X014986Y012921D01*
X014986Y012823D02*
X014721Y012823D01*
X014721Y012724D02*
X014986Y012724D01*
X014986Y012626D02*
X014721Y012626D01*
X014721Y012527D02*
X014986Y012527D01*
X014986Y012429D02*
X014932Y012429D01*
X014179Y012429D02*
X013711Y012429D01*
X013613Y012527D02*
X014179Y012527D01*
X014179Y012626D02*
X013514Y012626D01*
X013416Y012724D02*
X014179Y012724D01*
X014179Y012823D02*
X013317Y012823D01*
X013215Y012921D02*
X014179Y012921D01*
X014179Y013020D02*
X013266Y013020D01*
X013266Y013118D02*
X014179Y013118D01*
X014179Y013217D02*
X013266Y013217D01*
X013266Y013315D02*
X014179Y013315D01*
X014179Y013414D02*
X013208Y013414D01*
X013266Y013512D02*
X014179Y013512D01*
X014179Y013611D02*
X013266Y013611D01*
X013266Y013709D02*
X014033Y013709D01*
X013760Y013808D02*
X013266Y013808D01*
X013200Y013906D02*
X013487Y013906D01*
X013515Y014300D02*
X014221Y014300D01*
X014221Y014202D02*
X013788Y014202D01*
X014061Y014103D02*
X014221Y014103D01*
X014221Y014399D02*
X013216Y014399D01*
X013283Y014497D02*
X014221Y014497D01*
X014221Y014596D02*
X013286Y014596D01*
X013286Y014694D02*
X014221Y014694D01*
X014221Y014793D02*
X013286Y014793D01*
X013232Y014891D02*
X014221Y014891D01*
X014221Y014990D02*
X013266Y014990D01*
X013266Y015088D02*
X014221Y015088D01*
X014221Y015187D02*
X013266Y015187D01*
X013266Y015285D02*
X014221Y015285D01*
X014221Y015384D02*
X013211Y015384D01*
X013266Y015482D02*
X014221Y015482D01*
X014221Y015581D02*
X013266Y015581D01*
X013266Y015679D02*
X014221Y015679D01*
X014221Y015778D02*
X013266Y015778D01*
X013285Y015876D02*
X013219Y015876D01*
X012653Y015876D02*
X010911Y015876D01*
X010911Y015778D02*
X012606Y015778D01*
X012606Y015679D02*
X010911Y015679D01*
X010911Y015581D02*
X012606Y015581D01*
X012606Y015482D02*
X010911Y015482D01*
X010911Y015384D02*
X012660Y015384D01*
X012606Y015285D02*
X010911Y015285D01*
X010911Y015187D02*
X012606Y015187D01*
X012606Y015088D02*
X010911Y015088D01*
X010911Y014990D02*
X012606Y014990D01*
X012639Y014891D02*
X012125Y014891D01*
X012126Y014890D02*
X012099Y014918D01*
X012064Y014938D01*
X012026Y014948D01*
X011761Y014948D01*
X011761Y014592D01*
X012156Y014592D01*
X012156Y014818D01*
X012146Y014856D01*
X012126Y014890D01*
X012156Y014793D02*
X012586Y014793D01*
X012586Y014694D02*
X012156Y014694D01*
X012156Y014596D02*
X012586Y014596D01*
X012588Y014497D02*
X011761Y014497D01*
X011761Y014596D02*
X011661Y014596D01*
X011661Y014592D02*
X011661Y014948D01*
X011396Y014948D01*
X011358Y014938D01*
X011324Y014918D01*
X011296Y014890D01*
X011276Y014856D01*
X011266Y014818D01*
X011266Y014592D01*
X011661Y014592D01*
X011661Y014497D02*
X010911Y014497D01*
X010911Y014399D02*
X011266Y014399D01*
X011266Y014300D02*
X010911Y014300D01*
X010911Y014202D02*
X011291Y014202D01*
X011286Y014103D02*
X010911Y014103D01*
X010331Y014103D02*
X009018Y014103D01*
X009018Y014174D02*
X009018Y013831D01*
X008942Y013754D01*
X007968Y013754D01*
X007902Y013820D01*
X007874Y013820D01*
X007874Y013758D01*
X007798Y013682D01*
X007294Y013682D01*
X007218Y013758D01*
X007218Y014262D01*
X007294Y014339D01*
X007798Y014339D01*
X007874Y014262D01*
X007874Y014200D01*
X007918Y014200D01*
X007968Y014251D01*
X008942Y014251D01*
X009018Y014174D01*
X008991Y014202D02*
X010331Y014202D01*
X010331Y014300D02*
X008988Y014300D01*
X009018Y014331D02*
X008942Y014254D01*
X007968Y014254D01*
X007892Y014331D01*
X007892Y014674D01*
X007968Y014751D01*
X008942Y014751D01*
X009018Y014674D01*
X009018Y014331D01*
X009018Y014399D02*
X010331Y014399D01*
X010331Y014497D02*
X009018Y014497D01*
X009018Y014596D02*
X010331Y014596D01*
X010331Y014694D02*
X008999Y014694D01*
X008980Y014793D02*
X010331Y014793D01*
X010331Y014891D02*
X009018Y014891D01*
X009018Y014990D02*
X010331Y014990D01*
X010331Y015088D02*
X009018Y015088D01*
X009006Y015187D02*
X009046Y015187D01*
X008989Y015285D02*
X008973Y015285D01*
X008965Y015778D02*
X009020Y015778D01*
X009018Y015876D02*
X010331Y015876D01*
X010331Y015778D02*
X009615Y015778D01*
X009646Y015679D02*
X010331Y015679D01*
X010331Y015581D02*
X009646Y015581D01*
X009646Y015482D02*
X010331Y015482D01*
X010331Y015384D02*
X009646Y015384D01*
X009646Y015285D02*
X010331Y015285D01*
X010331Y015187D02*
X009589Y015187D01*
X010911Y014891D02*
X011297Y014891D01*
X011266Y014793D02*
X010911Y014793D01*
X010911Y014694D02*
X011266Y014694D01*
X011266Y014596D02*
X010911Y014596D01*
X011661Y014694D02*
X011761Y014694D01*
X011761Y014793D02*
X011661Y014793D01*
X011661Y014891D02*
X011761Y014891D01*
X012156Y014399D02*
X012655Y014399D01*
X012315Y014300D02*
X012156Y014300D01*
X012131Y014202D02*
X012216Y014202D01*
X012458Y013906D02*
X012671Y013906D01*
X012606Y013808D02*
X012360Y013808D01*
X012261Y013709D02*
X012606Y013709D01*
X012606Y013611D02*
X012163Y013611D01*
X012136Y013512D02*
X012606Y013512D01*
X012663Y013414D02*
X012066Y013414D01*
X012606Y013315D02*
X009961Y013315D01*
X009961Y013251D02*
X009961Y013754D01*
X009884Y013831D01*
X009380Y013831D01*
X009304Y013754D01*
X009304Y013693D01*
X009000Y013693D01*
X008942Y013751D01*
X007968Y013751D01*
X007892Y013674D01*
X007892Y013331D01*
X007968Y013254D01*
X008265Y013254D01*
X008265Y013251D01*
X007968Y013251D01*
X007892Y013174D01*
X007892Y012831D01*
X007968Y012754D01*
X008942Y012754D01*
X009018Y012831D01*
X009018Y013174D01*
X008942Y013251D01*
X008645Y013251D01*
X008645Y013254D01*
X008942Y013254D01*
X009000Y013313D01*
X009304Y013313D01*
X009304Y013251D01*
X009380Y013174D01*
X009884Y013174D01*
X009961Y013251D01*
X009927Y013217D02*
X012606Y013217D01*
X012606Y013118D02*
X009018Y013118D01*
X009018Y013020D02*
X012606Y013020D01*
X012656Y012921D02*
X009018Y012921D01*
X009010Y012823D02*
X012606Y012823D01*
X012606Y012724D02*
X006732Y012724D01*
X006732Y012626D02*
X012606Y012626D01*
X012606Y012527D02*
X008066Y012527D01*
X008134Y012429D02*
X011990Y012429D01*
X011958Y012330D02*
X008134Y012330D01*
X008134Y012232D02*
X011958Y012232D01*
X011958Y012133D02*
X008134Y012133D01*
X008197Y012035D02*
X011958Y012035D01*
X011958Y011936D02*
X008280Y011936D01*
X008362Y011838D02*
X012013Y011838D01*
X012559Y011838D02*
X012614Y011838D01*
X012614Y011936D02*
X012641Y011936D01*
X012606Y011739D02*
X008444Y011739D01*
X008526Y011641D02*
X012606Y011641D01*
X012606Y011542D02*
X008608Y011542D01*
X008691Y011444D02*
X012633Y011444D01*
X012622Y011345D02*
X008773Y011345D01*
X008855Y011247D02*
X011592Y011247D01*
X011494Y011148D02*
X008937Y011148D01*
X009020Y011050D02*
X011395Y011050D01*
X011297Y010951D02*
X009102Y010951D01*
X009174Y010853D02*
X011198Y010853D01*
X011100Y010754D02*
X009169Y010754D01*
X009169Y010656D02*
X011072Y010656D01*
X011072Y010557D02*
X009169Y010557D01*
X009169Y010459D02*
X011072Y010459D01*
X011072Y010360D02*
X009169Y010360D01*
X009169Y010262D02*
X011072Y010262D01*
X011072Y010163D02*
X009169Y010163D01*
X009169Y010065D02*
X011072Y010065D01*
X011072Y009966D02*
X009169Y009966D01*
X009169Y009868D02*
X011072Y009868D01*
X011072Y009769D02*
X009169Y009769D01*
X009169Y009671D02*
X011072Y009671D01*
X011072Y009572D02*
X009169Y009572D01*
X009169Y009474D02*
X011072Y009474D01*
X011072Y009375D02*
X009169Y009375D01*
X009169Y009277D02*
X011072Y009277D01*
X011072Y009178D02*
X009169Y009178D01*
X009169Y009080D02*
X011072Y009080D01*
X011072Y008981D02*
X009169Y008981D01*
X009169Y008883D02*
X011072Y008883D01*
X011072Y008784D02*
X009169Y008784D01*
X009169Y008686D02*
X011072Y008686D01*
X011072Y008587D02*
X009169Y008587D01*
X009169Y008489D02*
X011072Y008489D01*
X011072Y008390D02*
X009169Y008390D01*
X009169Y008292D02*
X011072Y008292D01*
X010947Y008193D02*
X009169Y008193D01*
X009169Y008095D02*
X010880Y008095D01*
X010839Y007996D02*
X009169Y007996D01*
X009169Y007898D02*
X010836Y007898D01*
X010844Y007799D02*
X009169Y007799D01*
X009169Y007701D02*
X010885Y007701D01*
X010960Y007602D02*
X009169Y007602D01*
X009169Y007504D02*
X011110Y007504D01*
X011423Y007504D02*
X012110Y007504D01*
X011960Y007602D02*
X011572Y007602D01*
X011647Y007701D02*
X011885Y007701D01*
X011844Y007799D02*
X011688Y007799D01*
X011696Y007898D02*
X011836Y007898D01*
X011839Y007996D02*
X011694Y007996D01*
X011653Y008095D02*
X011880Y008095D01*
X011947Y008193D02*
X011585Y008193D01*
X011455Y008292D02*
X012078Y008292D01*
X012104Y008390D02*
X011452Y008390D01*
X011452Y008489D02*
X012104Y008489D01*
X012104Y008587D02*
X011452Y008587D01*
X011452Y008686D02*
X012104Y008686D01*
X012104Y008784D02*
X011452Y008784D01*
X011452Y008883D02*
X012104Y008883D01*
X012104Y008981D02*
X011452Y008981D01*
X011452Y009080D02*
X012104Y009080D01*
X012104Y009178D02*
X011452Y009178D01*
X011452Y009277D02*
X012104Y009277D01*
X012104Y009375D02*
X011452Y009375D01*
X011452Y009474D02*
X012104Y009474D01*
X012104Y009572D02*
X011452Y009572D01*
X011452Y009671D02*
X012104Y009671D01*
X012104Y009769D02*
X011452Y009769D01*
X011452Y009868D02*
X012104Y009868D01*
X012104Y009966D02*
X011452Y009966D01*
X011452Y010065D02*
X012104Y010065D01*
X012104Y010163D02*
X011452Y010163D01*
X011452Y010262D02*
X012104Y010262D01*
X012104Y010360D02*
X011452Y010360D01*
X011452Y010459D02*
X012111Y010459D01*
X012210Y010557D02*
X011452Y010557D01*
X011538Y010656D02*
X012308Y010656D01*
X012407Y010754D02*
X011637Y010754D01*
X011735Y010853D02*
X012629Y010853D01*
X012626Y010951D02*
X011834Y010951D01*
X012550Y010360D02*
X012637Y010360D01*
X012606Y010262D02*
X012484Y010262D01*
X012484Y010163D02*
X012606Y010163D01*
X012606Y010065D02*
X012484Y010065D01*
X012484Y009966D02*
X012611Y009966D01*
X012484Y009868D02*
X013084Y009868D01*
X013084Y009769D02*
X012484Y009769D01*
X012484Y009671D02*
X013084Y009671D01*
X013084Y009572D02*
X012484Y009572D01*
X012484Y009474D02*
X013084Y009474D01*
X013084Y009375D02*
X012484Y009375D01*
X012484Y009277D02*
X013084Y009277D01*
X013084Y009178D02*
X012484Y009178D01*
X012484Y009080D02*
X013084Y009080D01*
X013084Y008981D02*
X012484Y008981D01*
X012484Y008883D02*
X013084Y008883D01*
X013084Y008784D02*
X012484Y008784D01*
X012484Y008686D02*
X013084Y008686D01*
X013084Y008587D02*
X012484Y008587D01*
X012484Y008489D02*
X013084Y008489D01*
X013084Y008390D02*
X012484Y008390D01*
X012484Y008292D02*
X013078Y008292D01*
X012947Y008193D02*
X012585Y008193D01*
X012653Y008095D02*
X012880Y008095D01*
X012839Y007996D02*
X012694Y007996D01*
X012696Y007898D02*
X012836Y007898D01*
X012844Y007799D02*
X012688Y007799D01*
X012647Y007701D02*
X012885Y007701D01*
X012960Y007602D02*
X012572Y007602D01*
X012423Y007504D02*
X013110Y007504D01*
X013423Y007504D02*
X014061Y007504D01*
X014030Y007519D02*
X014094Y007487D01*
X014161Y007465D01*
X014216Y007456D01*
X014216Y007854D01*
X013819Y007854D01*
X013827Y007799D01*
X013688Y007799D01*
X013696Y007898D02*
X014216Y007898D01*
X014216Y007854D02*
X014216Y007954D01*
X013819Y007954D01*
X013827Y008009D01*
X013849Y008077D01*
X013881Y008140D01*
X013923Y008197D01*
X013973Y008247D01*
X014030Y008289D01*
X014094Y008321D01*
X014161Y008343D01*
X014216Y008352D01*
X014216Y007954D01*
X014316Y007954D01*
X014316Y008352D01*
X014372Y008343D01*
X014439Y008321D01*
X014502Y008289D01*
X014559Y008247D01*
X014610Y008197D01*
X014651Y008140D01*
X014683Y008077D01*
X014705Y008009D01*
X014714Y007954D01*
X014316Y007954D01*
X014316Y007854D01*
X014316Y007456D01*
X014372Y007465D01*
X014439Y007487D01*
X014502Y007519D01*
X014559Y007561D01*
X014610Y007611D01*
X014651Y007668D01*
X014683Y007731D01*
X014705Y007799D01*
X014844Y007799D01*
X014836Y007898D02*
X014316Y007898D01*
X014316Y007854D02*
X014714Y007854D01*
X014705Y007799D01*
X014668Y007701D02*
X014885Y007701D01*
X014960Y007602D02*
X014601Y007602D01*
X014471Y007504D02*
X015016Y007504D01*
X015016Y007405D02*
X009169Y007405D01*
X009378Y007307D02*
X015016Y007307D01*
X015016Y007208D02*
X009384Y007208D01*
X009384Y007110D02*
X015016Y007110D01*
X015016Y007011D02*
X009384Y007011D01*
X009384Y006913D02*
X015016Y006913D01*
X015016Y006814D02*
X009384Y006814D01*
X009287Y006716D02*
X015016Y006716D01*
X015016Y006617D02*
X009287Y006617D01*
X009287Y006519D02*
X014870Y006519D01*
X014852Y006420D02*
X009287Y006420D01*
X009287Y006322D02*
X014852Y006322D01*
X014852Y006223D02*
X009287Y006223D01*
X009240Y006125D02*
X014852Y006125D01*
X014852Y006026D02*
X009141Y006026D01*
X009043Y005928D02*
X014852Y005928D01*
X014912Y005829D02*
X010612Y005829D01*
X010616Y005731D02*
X014836Y005731D01*
X014832Y005632D02*
X010616Y005632D01*
X010616Y005534D02*
X014832Y005534D01*
X014842Y005139D02*
X014862Y005104D01*
X015232Y005140D02*
X015332Y005140D01*
X015332Y005238D02*
X015232Y005238D01*
X015722Y005140D02*
X016022Y005140D01*
X016022Y005238D02*
X015732Y005238D01*
X015732Y005337D02*
X016027Y005337D01*
X016047Y005928D02*
X015950Y005928D01*
X015950Y006026D02*
X016047Y006026D01*
X016047Y006125D02*
X015950Y006125D01*
X016047Y006223D02*
X016929Y006223D01*
X017292Y006322D02*
X017311Y006322D01*
X017311Y006420D02*
X017270Y006420D01*
X017270Y006519D02*
X017311Y006519D01*
X017311Y006617D02*
X017270Y006617D01*
X017270Y006716D02*
X017311Y006716D01*
X017311Y006814D02*
X017265Y006814D01*
X017808Y006814D02*
X017811Y006814D01*
X017808Y006716D02*
X017811Y006716D01*
X017808Y006617D02*
X017811Y006617D01*
X018060Y006644D02*
X018060Y007268D01*
X018247Y007455D01*
X017981Y007799D02*
X020341Y007799D01*
X020341Y007898D02*
X018080Y007898D01*
X018178Y007996D02*
X020677Y007996D01*
X020677Y008095D02*
X020777Y008095D01*
X020777Y008193D02*
X020677Y008193D01*
X020677Y008292D02*
X020777Y008292D01*
X021039Y008390D02*
X019308Y008390D01*
X019308Y008292D02*
X020355Y008292D01*
X020341Y008193D02*
X019296Y008193D01*
X019308Y008489D02*
X020400Y008489D01*
X020361Y008587D02*
X019308Y008587D01*
X019308Y008686D02*
X020361Y008686D01*
X020361Y008784D02*
X019308Y008784D01*
X019308Y008883D02*
X020361Y008883D01*
X020361Y008981D02*
X019308Y008981D01*
X019308Y009080D02*
X020361Y009080D01*
X019597Y009173D02*
X019597Y009636D01*
X018432Y010801D01*
X018432Y010590D01*
X018367Y010526D01*
X018432Y010462D01*
X018432Y009842D01*
X018356Y009766D01*
X017657Y009766D01*
X017581Y009842D01*
X017581Y009960D01*
X017254Y009960D01*
X017189Y009895D01*
X016916Y009895D01*
X016472Y009451D01*
X016472Y008284D01*
X016510Y008269D01*
X016631Y008148D01*
X016696Y007990D01*
X016696Y007819D01*
X016631Y007661D01*
X016510Y007540D01*
X016352Y007474D01*
X016181Y007474D01*
X016023Y007540D01*
X015902Y007661D01*
X015836Y007819D01*
X015836Y007990D01*
X015902Y008148D01*
X016023Y008269D01*
X016092Y008297D01*
X016092Y009609D01*
X016203Y009720D01*
X016606Y010122D01*
X016606Y010329D01*
X016677Y010400D01*
X016617Y010460D01*
X015496Y010460D01*
X015496Y010377D01*
X015420Y010300D01*
X014916Y010300D01*
X014840Y010377D01*
X014840Y010880D01*
X014916Y010957D01*
X015415Y010957D01*
X015415Y011408D01*
X015467Y011460D01*
X015284Y011460D01*
X015097Y011647D01*
X014986Y011758D01*
X014986Y011827D01*
X014932Y011773D01*
X014721Y011773D01*
X014721Y009111D01*
X015048Y009111D01*
X015140Y009073D01*
X015447Y008766D01*
X015447Y008766D01*
X015518Y008695D01*
X015556Y008603D01*
X015556Y008223D01*
X015631Y008148D01*
X015696Y007990D01*
X015696Y007819D01*
X015631Y007661D01*
X015516Y007546D01*
X015516Y007269D01*
X015613Y007173D01*
X016278Y007173D01*
X016432Y007326D01*
X016766Y007326D01*
X017522Y008082D01*
X017727Y008082D01*
X017830Y008186D01*
X017811Y008205D01*
X017811Y009178D01*
X017808Y009178D01*
X017732Y009255D01*
X017388Y009255D01*
X017311Y009178D01*
X017291Y009178D01*
X017311Y009178D02*
X017311Y008935D01*
X017291Y008955D01*
X017291Y009266D01*
X017215Y009342D01*
X016711Y009342D01*
X016635Y009266D01*
X016635Y008762D01*
X016711Y008686D01*
X017023Y008686D01*
X017207Y008501D01*
X017311Y008501D01*
X017311Y008205D01*
X017388Y008128D01*
X017732Y008128D01*
X017808Y008205D01*
X017808Y009178D01*
X017811Y009178D02*
X017888Y009255D01*
X018232Y009255D01*
X018302Y009184D01*
X018321Y009217D01*
X018349Y009245D01*
X018384Y009264D01*
X018422Y009275D01*
X018551Y009275D01*
X018551Y008701D01*
X018569Y008701D01*
X018569Y009275D01*
X018674Y009275D01*
X018651Y009298D01*
X018651Y009802D01*
X018727Y009878D01*
X019231Y009878D01*
X019307Y009802D01*
X019307Y009298D01*
X019250Y009240D01*
X019250Y009237D01*
X019308Y009178D01*
X019286Y009277D02*
X019597Y009277D01*
X019597Y009375D02*
X019307Y009375D01*
X019307Y009474D02*
X019597Y009474D01*
X019597Y009572D02*
X019307Y009572D01*
X019307Y009671D02*
X019563Y009671D01*
X019464Y009769D02*
X019307Y009769D01*
X019366Y009868D02*
X019241Y009868D01*
X019267Y009966D02*
X018432Y009966D01*
X018432Y009868D02*
X018717Y009868D01*
X018651Y009769D02*
X018358Y009769D01*
X018432Y010065D02*
X019169Y010065D01*
X019070Y010163D02*
X018432Y010163D01*
X018432Y010262D02*
X018972Y010262D01*
X018873Y010360D02*
X018432Y010360D01*
X018432Y010459D02*
X018775Y010459D01*
X018676Y010557D02*
X018398Y010557D01*
X018432Y010656D02*
X018578Y010656D01*
X018479Y010754D02*
X018432Y010754D01*
X017581Y009868D02*
X016888Y009868D01*
X016790Y009769D02*
X017655Y009769D01*
X017281Y009277D02*
X018672Y009277D01*
X018651Y009375D02*
X016472Y009375D01*
X016472Y009277D02*
X016645Y009277D01*
X016635Y009178D02*
X016472Y009178D01*
X016472Y009080D02*
X016635Y009080D01*
X016635Y008981D02*
X016472Y008981D01*
X016472Y008883D02*
X016635Y008883D01*
X016635Y008784D02*
X016472Y008784D01*
X016472Y008686D02*
X017023Y008686D01*
X017122Y008587D02*
X016472Y008587D01*
X016472Y008489D02*
X017311Y008489D01*
X017311Y008390D02*
X016472Y008390D01*
X016472Y008292D02*
X017311Y008292D01*
X017323Y008193D02*
X016585Y008193D01*
X016653Y008095D02*
X017739Y008095D01*
X017796Y008193D02*
X017823Y008193D01*
X017811Y008292D02*
X017808Y008292D01*
X017808Y008390D02*
X017811Y008390D01*
X017808Y008489D02*
X017811Y008489D01*
X017808Y008587D02*
X017811Y008587D01*
X017808Y008686D02*
X017811Y008686D01*
X017808Y008784D02*
X017811Y008784D01*
X017808Y008883D02*
X017811Y008883D01*
X017808Y008981D02*
X017811Y008981D01*
X017808Y009080D02*
X017811Y009080D01*
X017311Y009080D02*
X017291Y009080D01*
X017291Y008981D02*
X017311Y008981D01*
X016494Y009474D02*
X018651Y009474D01*
X018651Y009572D02*
X016593Y009572D01*
X016691Y009671D02*
X018651Y009671D01*
X018569Y009178D02*
X018551Y009178D01*
X018551Y009080D02*
X018569Y009080D01*
X018569Y008981D02*
X018551Y008981D01*
X018551Y008883D02*
X018569Y008883D01*
X018569Y008784D02*
X018551Y008784D01*
X018551Y008587D02*
X018569Y008587D01*
X018569Y008489D02*
X018551Y008489D01*
X018551Y008390D02*
X018569Y008390D01*
X018569Y008292D02*
X018551Y008292D01*
X018551Y008193D02*
X018569Y008193D01*
X018813Y008193D02*
X018823Y008193D01*
X018306Y008193D02*
X018296Y008193D01*
X018250Y008095D02*
X020341Y008095D01*
X020350Y007701D02*
X017678Y007701D01*
X017239Y007799D02*
X016688Y007799D01*
X016696Y007898D02*
X017337Y007898D01*
X017436Y007996D02*
X016694Y007996D01*
X016647Y007701D02*
X017140Y007701D01*
X017042Y007602D02*
X016572Y007602D01*
X016423Y007504D02*
X016943Y007504D01*
X016845Y007405D02*
X015516Y007405D01*
X015516Y007307D02*
X016412Y007307D01*
X016313Y007208D02*
X015578Y007208D01*
X015516Y007504D02*
X016110Y007504D01*
X015960Y007602D02*
X015572Y007602D01*
X015647Y007701D02*
X015885Y007701D01*
X015844Y007799D02*
X015688Y007799D01*
X015696Y007898D02*
X015836Y007898D01*
X015839Y007996D02*
X015694Y007996D01*
X015653Y008095D02*
X015880Y008095D01*
X015947Y008193D02*
X015585Y008193D01*
X015556Y008292D02*
X016078Y008292D01*
X016092Y008390D02*
X015556Y008390D01*
X015556Y008489D02*
X016092Y008489D01*
X016092Y008587D02*
X015556Y008587D01*
X015522Y008686D02*
X016092Y008686D01*
X016092Y008784D02*
X015429Y008784D01*
X015330Y008883D02*
X016092Y008883D01*
X016092Y008981D02*
X015232Y008981D01*
X015124Y009080D02*
X016092Y009080D01*
X016092Y009178D02*
X014721Y009178D01*
X014721Y009277D02*
X016092Y009277D01*
X016092Y009375D02*
X014721Y009375D01*
X014721Y009474D02*
X016092Y009474D01*
X016092Y009572D02*
X014721Y009572D01*
X014721Y009671D02*
X016154Y009671D01*
X016252Y009769D02*
X014721Y009769D01*
X014721Y009868D02*
X016351Y009868D01*
X016449Y009966D02*
X014721Y009966D01*
X014721Y010065D02*
X016548Y010065D01*
X016606Y010163D02*
X014721Y010163D01*
X014721Y010262D02*
X016606Y010262D01*
X016637Y010360D02*
X015479Y010360D01*
X015496Y010459D02*
X016618Y010459D01*
X015415Y011050D02*
X014721Y011050D01*
X014721Y011148D02*
X015415Y011148D01*
X015415Y011247D02*
X014721Y011247D01*
X014721Y011345D02*
X015415Y011345D01*
X015450Y011444D02*
X014721Y011444D01*
X014721Y011542D02*
X015202Y011542D01*
X015104Y011641D02*
X014721Y011641D01*
X014721Y011739D02*
X015005Y011739D01*
X014179Y011739D02*
X013874Y011739D01*
X013874Y011641D02*
X014179Y011641D01*
X014179Y011542D02*
X013874Y011542D01*
X013874Y011444D02*
X014179Y011444D01*
X014179Y011345D02*
X013874Y011345D01*
X013874Y011247D02*
X014179Y011247D01*
X014179Y011148D02*
X013874Y011148D01*
X013874Y011050D02*
X014179Y011050D01*
X014179Y010951D02*
X013874Y010951D01*
X013874Y010853D02*
X014179Y010853D01*
X014179Y010754D02*
X013945Y010754D01*
X014012Y010656D02*
X014179Y010656D01*
X014179Y010557D02*
X014012Y010557D01*
X014012Y010459D02*
X014179Y010459D01*
X014179Y010360D02*
X014012Y010360D01*
X014012Y010262D02*
X014179Y010262D01*
X014179Y010163D02*
X013991Y010163D01*
X014179Y010065D02*
X013464Y010065D01*
X013464Y009966D02*
X014179Y009966D01*
X014179Y009868D02*
X013464Y009868D01*
X013464Y009769D02*
X014179Y009769D01*
X014179Y009671D02*
X013464Y009671D01*
X013464Y009572D02*
X014179Y009572D01*
X014179Y009474D02*
X013464Y009474D01*
X013464Y009375D02*
X014179Y009375D01*
X014179Y009277D02*
X013464Y009277D01*
X013464Y009178D02*
X014179Y009178D01*
X014165Y009080D02*
X013464Y009080D01*
X013464Y008981D02*
X014187Y008981D01*
X014209Y008883D02*
X013464Y008883D01*
X013464Y008784D02*
X014266Y008784D01*
X014328Y008686D02*
X013464Y008686D01*
X013464Y008587D02*
X014919Y008587D01*
X015017Y008489D02*
X013464Y008489D01*
X013464Y008390D02*
X015056Y008390D01*
X015056Y008292D02*
X014497Y008292D01*
X014613Y008193D02*
X014947Y008193D01*
X014880Y008095D02*
X014674Y008095D01*
X014707Y007996D02*
X014839Y007996D01*
X014316Y007996D02*
X014216Y007996D01*
X014216Y008095D02*
X014316Y008095D01*
X014316Y008193D02*
X014216Y008193D01*
X014216Y008292D02*
X014316Y008292D01*
X014035Y008292D02*
X013464Y008292D01*
X013585Y008193D02*
X013920Y008193D01*
X013858Y008095D02*
X013653Y008095D01*
X013694Y007996D02*
X013825Y007996D01*
X013827Y007799D02*
X013849Y007731D01*
X013881Y007668D01*
X013923Y007611D01*
X013973Y007561D01*
X014030Y007519D01*
X013932Y007602D02*
X013572Y007602D01*
X013647Y007701D02*
X013865Y007701D01*
X014216Y007701D02*
X014316Y007701D01*
X014316Y007799D02*
X014216Y007799D01*
X014216Y007854D02*
X014316Y007854D01*
X014316Y007602D02*
X014216Y007602D01*
X014216Y007504D02*
X014316Y007504D01*
X015950Y006519D02*
X016047Y006519D01*
X016047Y006420D02*
X015950Y006420D01*
X015950Y006322D02*
X016047Y006322D01*
X017245Y005534D02*
X024366Y005534D01*
X024268Y005435D02*
X017141Y005435D01*
X017537Y005337D02*
X024220Y005337D01*
X024191Y005238D02*
X017542Y005238D01*
X017542Y005140D02*
X024191Y005140D01*
X024213Y005041D02*
X017542Y005041D01*
X017542Y004943D02*
X024253Y004943D01*
X024348Y004844D02*
X017542Y004844D01*
X018775Y006125D02*
X018818Y006125D01*
X019051Y006125D02*
X019069Y006125D01*
X019069Y006061D02*
X019197Y006061D01*
X019236Y006071D01*
X019270Y006091D01*
X019298Y006119D01*
X019317Y006153D01*
X019328Y006191D01*
X019328Y006635D01*
X019069Y006635D01*
X019069Y006061D01*
X019051Y006223D02*
X019069Y006223D01*
X019069Y006322D02*
X019051Y006322D01*
X019051Y006420D02*
X019069Y006420D01*
X019069Y006519D02*
X019051Y006519D01*
X019051Y006617D02*
X019069Y006617D01*
X019328Y006617D02*
X019695Y006617D01*
X019695Y006697D02*
X019695Y006520D01*
X019763Y006357D01*
X019888Y006232D01*
X020052Y006164D01*
X020229Y006164D01*
X020392Y006232D01*
X020518Y006357D01*
X020585Y006520D01*
X020585Y006697D01*
X020518Y006861D01*
X020392Y006986D01*
X020229Y007054D01*
X020052Y007054D01*
X019888Y006986D01*
X019763Y006861D01*
X019695Y006697D01*
X019703Y006716D02*
X019328Y006716D01*
X019328Y006814D02*
X019744Y006814D01*
X019815Y006913D02*
X019328Y006913D01*
X019328Y007011D02*
X019949Y007011D01*
X020332Y007011D02*
X020901Y007011D01*
X020767Y006913D02*
X020466Y006913D01*
X020537Y006814D02*
X020696Y006814D01*
X020656Y006716D02*
X020578Y006716D01*
X020585Y006617D02*
X020648Y006617D01*
X020649Y006519D02*
X020585Y006519D01*
X020544Y006420D02*
X020690Y006420D01*
X020751Y006322D02*
X020482Y006322D01*
X020372Y006223D02*
X020862Y006223D01*
X021325Y006223D02*
X021516Y006223D01*
X021521Y006125D02*
X019301Y006125D01*
X019328Y006223D02*
X019909Y006223D01*
X019798Y006322D02*
X019328Y006322D01*
X019328Y006420D02*
X019737Y006420D01*
X019696Y006519D02*
X019328Y006519D01*
X018560Y006644D02*
X018560Y007067D01*
X017811Y007110D02*
X017808Y007110D01*
X017808Y007011D02*
X017811Y007011D01*
X017808Y006913D02*
X017811Y006913D01*
X021285Y007011D02*
X021477Y007011D01*
X021482Y006913D02*
X021419Y006913D01*
X021396Y007110D02*
X021472Y007110D01*
X021827Y006814D02*
X021919Y006814D01*
X021832Y006716D02*
X022018Y006716D01*
X022116Y006617D02*
X021837Y006617D01*
X021842Y006519D02*
X022215Y006519D01*
X022301Y006420D02*
X021847Y006420D01*
X021852Y006322D02*
X022301Y006322D01*
X022301Y006223D02*
X021857Y006223D01*
X021862Y006125D02*
X022301Y006125D01*
X022301Y006026D02*
X021867Y006026D01*
X021872Y005928D02*
X022306Y005928D01*
X021877Y005829D02*
X024404Y005829D01*
X024503Y005731D02*
X021867Y005731D01*
X021511Y006322D02*
X021435Y006322D01*
X021497Y006420D02*
X021507Y006420D01*
X022301Y006913D02*
X023830Y006913D01*
X023830Y007011D02*
X022203Y007011D01*
X022104Y007110D02*
X023830Y007110D01*
X023830Y007208D02*
X023551Y007208D01*
X023650Y007307D02*
X023830Y007307D01*
X023830Y007405D02*
X023706Y007405D01*
X023725Y007504D02*
X023830Y007504D01*
X023830Y007602D02*
X023721Y007602D01*
X023721Y007701D02*
X023830Y007701D01*
X023830Y007799D02*
X023721Y007799D01*
X023721Y007898D02*
X023830Y007898D01*
X023830Y007996D02*
X023721Y007996D01*
X023721Y008095D02*
X023830Y008095D01*
X023830Y008193D02*
X023721Y008193D01*
X024190Y008193D02*
X028072Y008193D01*
X028072Y008095D02*
X024190Y008095D01*
X024190Y008292D02*
X028071Y008292D01*
X028071Y008390D02*
X024190Y008390D01*
X024190Y008489D02*
X028071Y008489D01*
X028071Y008587D02*
X024190Y008587D01*
X024190Y008686D02*
X028071Y008686D01*
X028071Y008784D02*
X024190Y008784D01*
X024190Y008883D02*
X028071Y008883D01*
X028071Y008981D02*
X024190Y008981D01*
X024190Y009080D02*
X028071Y009080D01*
X028070Y009178D02*
X024190Y009178D01*
X024190Y009277D02*
X028070Y009277D01*
X028070Y009375D02*
X024121Y009375D01*
X023133Y009178D02*
X022677Y009178D01*
X022623Y009277D02*
X023011Y009277D01*
X022997Y009769D02*
X022640Y009769D01*
X022692Y009868D02*
X023098Y009868D01*
X023279Y010163D02*
X023356Y010163D01*
X023356Y010262D02*
X023279Y010262D01*
X023279Y010360D02*
X023356Y010360D01*
X023356Y010459D02*
X023279Y010459D01*
X023279Y010656D02*
X023356Y010656D01*
X023356Y010754D02*
X023279Y010754D01*
X023279Y010853D02*
X023356Y010853D01*
X023570Y010853D02*
X025223Y010853D01*
X025308Y010767D02*
X025055Y011020D01*
X024918Y011351D01*
X024918Y011709D01*
X025055Y012040D01*
X025308Y012293D01*
X025639Y012430D01*
X025996Y012430D01*
X026327Y012293D01*
X026580Y012040D01*
X026717Y011709D01*
X026717Y011351D01*
X026580Y011020D01*
X026327Y010767D01*
X025996Y010630D01*
X025639Y010630D01*
X025308Y010767D01*
X025340Y010754D02*
X023663Y010754D01*
X023711Y010656D02*
X025578Y010656D01*
X025124Y010951D02*
X022711Y010951D01*
X022707Y010929D02*
X022717Y010988D01*
X022340Y010988D01*
X022340Y011065D01*
X022263Y011065D01*
X022263Y011441D01*
X022204Y011432D01*
X022142Y011411D01*
X022084Y011382D01*
X022031Y011343D01*
X021985Y011297D01*
X021946Y011244D01*
X021916Y011186D01*
X021896Y011123D01*
X021887Y011065D01*
X022263Y011065D01*
X022263Y010988D01*
X021887Y010988D01*
X021896Y010929D01*
X021916Y010867D01*
X021946Y010808D01*
X021985Y010755D01*
X022031Y010709D01*
X022084Y010671D01*
X022142Y010641D01*
X022204Y010621D01*
X022263Y010611D01*
X022263Y010988D01*
X022340Y010988D01*
X022340Y010611D01*
X022399Y010621D01*
X022461Y010641D01*
X022520Y010671D01*
X022573Y010709D01*
X022619Y010755D01*
X022657Y010808D01*
X022687Y010867D01*
X022707Y010929D01*
X022680Y010853D02*
X023065Y010853D01*
X022972Y010754D02*
X022618Y010754D01*
X022490Y010656D02*
X022924Y010656D01*
X022717Y011065D02*
X022340Y011065D01*
X022340Y011441D01*
X022399Y011432D01*
X022461Y011411D01*
X022520Y011382D01*
X022573Y011343D01*
X022619Y011297D01*
X022657Y011244D01*
X022687Y011186D01*
X022707Y011123D01*
X022717Y011065D01*
X022699Y011148D02*
X025002Y011148D01*
X025043Y011050D02*
X022340Y011050D01*
X022263Y011050D02*
X021721Y011050D01*
X021721Y011148D02*
X021904Y011148D01*
X021948Y011247D02*
X021721Y011247D01*
X021721Y011345D02*
X022033Y011345D01*
X022263Y011345D02*
X022340Y011345D01*
X022340Y011247D02*
X022263Y011247D01*
X022263Y011148D02*
X022340Y011148D01*
X022340Y010951D02*
X022263Y010951D01*
X022263Y010853D02*
X022340Y010853D01*
X022340Y010754D02*
X022263Y010754D01*
X022263Y010656D02*
X022340Y010656D01*
X022113Y010656D02*
X021721Y010656D01*
X021721Y010754D02*
X021986Y010754D01*
X021924Y010853D02*
X021721Y010853D01*
X021721Y010951D02*
X021893Y010951D01*
X022570Y011345D02*
X024920Y011345D01*
X024918Y011444D02*
X021721Y011444D01*
X021721Y011542D02*
X024918Y011542D01*
X024918Y011641D02*
X021721Y011641D01*
X021721Y011739D02*
X024930Y011739D01*
X024971Y011838D02*
X024238Y011838D01*
X024293Y011936D02*
X025012Y011936D01*
X025053Y012035D02*
X024300Y012035D01*
X024300Y012133D02*
X025148Y012133D01*
X025247Y012232D02*
X024300Y012232D01*
X024300Y012330D02*
X025398Y012330D01*
X025636Y012429D02*
X024299Y012429D01*
X024297Y012527D02*
X027878Y012527D01*
X027733Y012626D02*
X024296Y012626D01*
X024295Y012724D02*
X027587Y012724D01*
X027441Y012823D02*
X024293Y012823D01*
X024292Y012921D02*
X027296Y012921D01*
X027150Y013020D02*
X024291Y013020D01*
X024289Y013118D02*
X027004Y013118D01*
X027457Y013512D02*
X028534Y013512D01*
X028534Y013414D02*
X027603Y013414D01*
X027748Y013315D02*
X028534Y013315D01*
X028534Y013217D02*
X027894Y013217D01*
X028040Y013118D02*
X028534Y013118D01*
X028534Y013020D02*
X028186Y013020D01*
X028331Y012921D02*
X028534Y012921D01*
X028534Y012823D02*
X028477Y012823D01*
X028024Y012429D02*
X025999Y012429D01*
X026237Y012330D02*
X028067Y012330D01*
X028067Y012232D02*
X026388Y012232D01*
X026487Y012133D02*
X028067Y012133D01*
X028067Y012035D02*
X026582Y012035D01*
X026623Y011936D02*
X028068Y011936D01*
X028068Y011838D02*
X026664Y011838D01*
X026705Y011739D02*
X028068Y011739D01*
X028068Y011641D02*
X026717Y011641D01*
X026717Y011542D02*
X028068Y011542D01*
X028068Y011444D02*
X026717Y011444D01*
X026715Y011345D02*
X028068Y011345D01*
X028068Y011247D02*
X026674Y011247D01*
X026633Y011148D02*
X028068Y011148D01*
X028068Y011050D02*
X026592Y011050D01*
X026511Y010951D02*
X028069Y010951D01*
X028069Y010853D02*
X026412Y010853D01*
X026295Y010754D02*
X028069Y010754D01*
X028069Y010656D02*
X026057Y010656D01*
X024961Y011247D02*
X022655Y011247D01*
X021221Y011247D02*
X020514Y011247D01*
X020514Y011345D02*
X021221Y011345D01*
X021221Y011444D02*
X020514Y011444D01*
X020514Y011542D02*
X021221Y011542D01*
X021221Y011641D02*
X020514Y011641D01*
X020514Y011739D02*
X021221Y011739D01*
X021221Y011838D02*
X020514Y011838D01*
X020514Y011936D02*
X021221Y011936D01*
X021221Y012035D02*
X020514Y012035D01*
X020514Y012133D02*
X021254Y012133D01*
X021371Y012232D02*
X020514Y012232D01*
X020514Y012330D02*
X023800Y012330D01*
X023799Y012429D02*
X020514Y012429D01*
X020514Y012527D02*
X021904Y012527D01*
X021892Y012539D02*
X021968Y012463D01*
X022588Y012463D01*
X022641Y012516D01*
X022650Y012501D01*
X022678Y012473D01*
X022712Y012453D01*
X022750Y012443D01*
X022976Y012443D01*
X022976Y012838D01*
X023076Y012838D01*
X023076Y012443D01*
X023302Y012443D01*
X023340Y012453D01*
X023374Y012473D01*
X023402Y012501D01*
X023422Y012535D01*
X023432Y012573D01*
X023432Y012838D01*
X023076Y012838D01*
X023076Y012938D01*
X023432Y012938D01*
X023432Y013203D01*
X023422Y013242D01*
X023402Y013276D01*
X023374Y013304D01*
X023340Y013323D01*
X023302Y013334D01*
X023076Y013334D01*
X023076Y012938D01*
X022976Y012938D01*
X022976Y013334D01*
X022750Y013334D01*
X022712Y013323D01*
X022678Y013304D01*
X022650Y013276D01*
X022641Y013260D01*
X022588Y013314D01*
X021968Y013314D01*
X021892Y013237D01*
X021892Y013165D01*
X021841Y013216D01*
X021337Y013216D01*
X021261Y013140D01*
X021261Y012636D01*
X021337Y012560D01*
X021841Y012560D01*
X021892Y012611D01*
X021892Y012539D01*
X021589Y012888D02*
X022278Y012888D01*
X021892Y013217D02*
X019031Y013217D01*
X019035Y013315D02*
X022698Y013315D01*
X022976Y013315D02*
X023076Y013315D01*
X023076Y013217D02*
X022976Y013217D01*
X022976Y013118D02*
X023076Y013118D01*
X023076Y013020D02*
X022976Y013020D01*
X023076Y012921D02*
X023792Y012921D01*
X023793Y012823D02*
X023432Y012823D01*
X023432Y012724D02*
X023795Y012724D01*
X023796Y012626D02*
X023432Y012626D01*
X023417Y012527D02*
X023797Y012527D01*
X023791Y013020D02*
X023432Y013020D01*
X023432Y013118D02*
X023789Y013118D01*
X023743Y013217D02*
X023429Y013217D01*
X023354Y013315D02*
X023743Y013315D01*
X023743Y013414D02*
X019043Y013414D01*
X019043Y013512D02*
X023743Y013512D01*
X023743Y013611D02*
X018648Y013611D01*
X018648Y013512D02*
X018548Y013512D01*
X018548Y013414D02*
X018648Y013414D01*
X018636Y013315D02*
X018548Y013315D01*
X018548Y013217D02*
X018636Y013217D01*
X018636Y013118D02*
X018536Y013118D01*
X018536Y013020D02*
X018636Y013020D01*
X018636Y012921D02*
X021261Y012921D01*
X021261Y012823D02*
X019031Y012823D01*
X019031Y012724D02*
X019473Y012724D01*
X019467Y012626D02*
X019007Y012626D01*
X019008Y012527D02*
X019467Y012527D01*
X019467Y012429D02*
X019011Y012429D01*
X019011Y012330D02*
X019467Y012330D01*
X019467Y012232D02*
X019011Y012232D01*
X019011Y012133D02*
X019467Y012133D01*
X019467Y012035D02*
X019063Y012035D01*
X019161Y011936D02*
X019467Y011936D01*
X019467Y011838D02*
X019260Y011838D01*
X020514Y011148D02*
X021221Y011148D01*
X021221Y011050D02*
X020514Y011050D01*
X020514Y010951D02*
X021221Y010951D01*
X021221Y010853D02*
X020514Y010853D01*
X020514Y010754D02*
X021221Y010754D01*
X021221Y010656D02*
X020514Y010656D01*
X020514Y010557D02*
X021221Y010557D01*
X021221Y010459D02*
X020514Y010459D01*
X021117Y009572D02*
X021447Y009572D01*
X021349Y009474D02*
X021117Y009474D01*
X021117Y009375D02*
X021250Y009375D01*
X021152Y009277D02*
X021117Y009277D01*
X021655Y008784D02*
X021996Y008784D01*
X022107Y008686D02*
X021655Y008686D01*
X021655Y008390D02*
X022133Y008390D01*
X022011Y008292D02*
X021655Y008292D01*
X021655Y008193D02*
X021953Y008193D01*
X021922Y008095D02*
X021655Y008095D01*
X021655Y007996D02*
X021922Y007996D01*
X021947Y007898D02*
X021655Y007898D01*
X021655Y007799D02*
X021997Y007799D01*
X022098Y007701D02*
X021655Y007701D01*
X021655Y007602D02*
X022922Y007602D01*
X022922Y007504D02*
X021752Y007504D01*
X021809Y007405D02*
X022943Y007405D01*
X022985Y007307D02*
X021907Y007307D01*
X022006Y007208D02*
X023084Y007208D01*
X022958Y007701D02*
X022537Y007701D01*
X022400Y006814D02*
X023830Y006814D01*
X023830Y006716D02*
X022498Y006716D01*
X022641Y006420D02*
X024027Y006420D01*
X023936Y006511D02*
X023830Y006617D01*
X018722Y003170D02*
X018012Y003170D01*
X017976Y003071D02*
X018623Y003071D01*
X018525Y002973D02*
X017948Y002973D01*
X018312Y003268D02*
X018559Y003268D01*
X017939Y001495D02*
X014373Y001495D01*
X014395Y002579D02*
X014516Y002579D01*
X014400Y002677D02*
X014395Y002677D01*
X014892Y003831D02*
X014892Y003900D01*
X008899Y006322D02*
X006453Y006322D01*
X006520Y006420D02*
X007712Y006420D01*
X008513Y006420D02*
X008907Y006420D01*
X008907Y006519D02*
X008518Y006519D01*
X008518Y006617D02*
X008907Y006617D01*
X008907Y006716D02*
X008518Y006716D01*
X008518Y006814D02*
X008573Y006814D01*
X008573Y006913D02*
X008518Y006913D01*
X008573Y007011D02*
X007243Y007011D01*
X007342Y006913D02*
X007707Y006913D01*
X007779Y007087D02*
X007817Y007077D01*
X008064Y007077D01*
X008064Y007375D01*
X008161Y007375D01*
X008161Y007077D01*
X008408Y007077D01*
X008446Y007087D01*
X008480Y007107D01*
X008508Y007135D01*
X008528Y007169D01*
X008538Y007207D01*
X008538Y007375D01*
X008161Y007375D01*
X008161Y007472D01*
X008538Y007472D01*
X008538Y007640D01*
X008528Y007679D01*
X008508Y007713D01*
X008480Y007741D01*
X008446Y007760D01*
X008408Y007771D01*
X008161Y007771D01*
X008161Y007472D01*
X008064Y007472D01*
X008064Y007375D01*
X007687Y007375D01*
X007687Y007207D01*
X007697Y007169D01*
X007717Y007135D01*
X007745Y007107D01*
X007779Y007087D01*
X007742Y007110D02*
X007145Y007110D01*
X007086Y007208D02*
X007687Y007208D01*
X007687Y007307D02*
X007086Y007307D01*
X007086Y007405D02*
X008064Y007405D01*
X008064Y007472D02*
X007687Y007472D01*
X007687Y007640D01*
X007697Y007679D01*
X007717Y007713D01*
X007745Y007741D01*
X007779Y007760D01*
X007817Y007771D01*
X008064Y007771D01*
X008064Y007472D01*
X008064Y007504D02*
X008161Y007504D01*
X008161Y007602D02*
X008064Y007602D01*
X008064Y007701D02*
X008161Y007701D01*
X008161Y007405D02*
X008789Y007405D01*
X008789Y007504D02*
X008538Y007504D01*
X008538Y007602D02*
X008789Y007602D01*
X008789Y007701D02*
X008515Y007701D01*
X008789Y007799D02*
X007086Y007799D01*
X007086Y007701D02*
X007710Y007701D01*
X007687Y007602D02*
X007086Y007602D01*
X007086Y007504D02*
X007687Y007504D01*
X008064Y007307D02*
X008161Y007307D01*
X008161Y007208D02*
X008064Y007208D01*
X008064Y007110D02*
X008161Y007110D01*
X008483Y007110D02*
X008573Y007110D01*
X008573Y007208D02*
X008538Y007208D01*
X008538Y007307D02*
X008579Y007307D01*
X008789Y007898D02*
X007086Y007898D01*
X007086Y007996D02*
X008789Y007996D01*
X008789Y008095D02*
X007086Y008095D01*
X007086Y008193D02*
X008789Y008193D01*
X008789Y008292D02*
X007086Y008292D01*
X007086Y008390D02*
X008789Y008390D01*
X008789Y008489D02*
X007086Y008489D01*
X007086Y008587D02*
X008789Y008587D01*
X008789Y008686D02*
X007092Y008686D01*
X007086Y008784D02*
X008789Y008784D01*
X008789Y008883D02*
X007121Y008883D01*
X007196Y008981D02*
X008789Y008981D01*
X008789Y009080D02*
X007200Y009080D01*
X007200Y009178D02*
X008789Y009178D01*
X008789Y009277D02*
X006901Y009277D01*
X006901Y009338D02*
X007200Y009338D01*
X007200Y009585D01*
X007190Y009623D01*
X007170Y009658D01*
X007142Y009686D01*
X007108Y009705D01*
X007070Y009716D01*
X006901Y009716D01*
X006901Y009338D01*
X006901Y009375D02*
X006804Y009375D01*
X006804Y009338D02*
X006804Y009716D01*
X006636Y009716D01*
X006598Y009705D01*
X006564Y009686D01*
X006536Y009658D01*
X006516Y009623D01*
X006506Y009585D01*
X006506Y009338D01*
X006804Y009338D01*
X006804Y009277D02*
X006432Y009277D01*
X006432Y009375D02*
X006506Y009375D01*
X006506Y009474D02*
X006432Y009474D01*
X006432Y009572D02*
X006506Y009572D01*
X006549Y009671D02*
X006381Y009671D01*
X006295Y009769D02*
X008789Y009769D01*
X008789Y009671D02*
X007157Y009671D01*
X007200Y009572D02*
X008789Y009572D01*
X008789Y009474D02*
X007200Y009474D01*
X007200Y009375D02*
X008789Y009375D01*
X008789Y009868D02*
X006743Y009868D01*
X006841Y009966D02*
X008789Y009966D01*
X008789Y010065D02*
X006940Y010065D01*
X007038Y010163D02*
X008789Y010163D01*
X008789Y010262D02*
X007086Y010262D01*
X007086Y010360D02*
X008789Y010360D01*
X008789Y010459D02*
X007215Y010459D01*
X007215Y010557D02*
X008789Y010557D01*
X008789Y010656D02*
X007215Y010656D01*
X007215Y010754D02*
X008771Y010754D01*
X008689Y010853D02*
X007215Y010853D01*
X007215Y010951D02*
X008607Y010951D01*
X008525Y011050D02*
X007215Y011050D01*
X007183Y011148D02*
X008442Y011148D01*
X008360Y011247D02*
X006765Y011247D01*
X006841Y011323D01*
X006841Y011982D01*
X006765Y012058D01*
X006264Y012058D01*
X006187Y011982D01*
X006187Y011933D01*
X005157Y012963D01*
X005157Y013020D02*
X005845Y013020D01*
X005845Y013118D02*
X005157Y013118D01*
X005157Y013217D02*
X005887Y013217D01*
X005860Y013315D02*
X005157Y013315D01*
X005157Y013414D02*
X005845Y013414D01*
X005845Y013512D02*
X005157Y013512D01*
X005186Y013611D02*
X005845Y013611D01*
X005880Y013709D02*
X005285Y013709D01*
X005383Y013808D02*
X005868Y013808D01*
X005872Y014202D02*
X004968Y014202D01*
X005042Y014300D02*
X005875Y014300D01*
X005845Y014331D02*
X005921Y014254D01*
X006895Y014254D01*
X006971Y014331D01*
X006971Y014674D01*
X006895Y014751D01*
X005921Y014751D01*
X005845Y014674D01*
X005845Y014331D01*
X005845Y014399D02*
X005042Y014399D01*
X005156Y014497D02*
X005845Y014497D01*
X005845Y014596D02*
X005254Y014596D01*
X005353Y014694D02*
X005865Y014694D01*
X005883Y014793D02*
X005451Y014793D01*
X005111Y014990D02*
X004987Y014990D01*
X005041Y015088D02*
X005138Y015088D01*
X005138Y015187D02*
X005041Y015187D01*
X005041Y015285D02*
X005138Y015285D01*
X005138Y015384D02*
X005041Y015384D01*
X005041Y015482D02*
X004668Y015482D01*
X004742Y015519D02*
X004742Y015766D01*
X004753Y015805D01*
X004772Y015839D01*
X004800Y015867D01*
X004834Y015886D01*
X004873Y015897D01*
X005041Y015897D01*
X005041Y015519D01*
X004742Y015519D01*
X004742Y015581D02*
X004668Y015581D01*
X004668Y015679D02*
X004742Y015679D01*
X004745Y015778D02*
X004668Y015778D01*
X004592Y015876D02*
X004816Y015876D01*
X005041Y015876D02*
X005138Y015876D01*
X005138Y015778D02*
X005041Y015778D01*
X005041Y015679D02*
X005138Y015679D01*
X005138Y015581D02*
X005041Y015581D01*
X005138Y015482D02*
X005845Y015482D01*
X005845Y015384D02*
X005436Y015384D01*
X005436Y015285D02*
X005890Y015285D01*
X005845Y015581D02*
X005436Y015581D01*
X005436Y015679D02*
X005850Y015679D01*
X005898Y015778D02*
X005433Y015778D01*
X005362Y015876D02*
X005845Y015876D01*
X005845Y015975D02*
X004531Y015975D01*
X004531Y016073D02*
X004576Y016073D01*
X004533Y016172D02*
X004531Y016172D01*
X004531Y016270D02*
X004533Y016270D01*
X004531Y016369D02*
X004533Y016369D01*
X004531Y016467D02*
X004533Y016467D01*
X004151Y016467D02*
X002668Y016467D01*
X002766Y016566D02*
X004151Y016566D01*
X004151Y016369D02*
X000721Y016369D01*
X000721Y016467D02*
X002117Y016467D01*
X002018Y016566D02*
X000721Y016566D01*
X000721Y016664D02*
X001956Y016664D01*
X001915Y016763D02*
X000721Y016763D01*
X000721Y016861D02*
X001908Y016861D01*
X001908Y016960D02*
X000721Y016960D01*
X000721Y017058D02*
X001943Y017058D01*
X001987Y017157D02*
X000721Y017157D01*
X000721Y017255D02*
X002086Y017255D01*
X002699Y017255D02*
X028534Y017255D01*
X028534Y017157D02*
X021171Y017157D01*
X021269Y017058D02*
X021280Y017058D01*
X022056Y017058D02*
X022086Y017058D01*
X022456Y017058D02*
X022556Y017058D01*
X022556Y017125D02*
X022556Y016769D01*
X022952Y016769D01*
X022952Y016995D01*
X022942Y017033D01*
X022922Y017067D01*
X022894Y017095D01*
X022860Y017115D01*
X022821Y017125D01*
X022556Y017125D01*
X022556Y016960D02*
X022456Y016960D01*
X022456Y016861D02*
X022556Y016861D01*
X022556Y016763D02*
X026632Y016763D01*
X026632Y016861D02*
X022952Y016861D01*
X022952Y016960D02*
X026632Y016960D01*
X026632Y017041D02*
X026632Y016342D01*
X026709Y016266D01*
X026828Y016266D01*
X026828Y015062D01*
X026755Y014988D01*
X026719Y014952D01*
X026719Y015083D01*
X026632Y015294D01*
X026471Y015455D01*
X026260Y015542D01*
X026032Y015542D01*
X025822Y015455D01*
X025661Y015294D01*
X025574Y015083D01*
X025574Y014855D01*
X025661Y014645D01*
X025822Y014484D01*
X025936Y014437D01*
X023971Y014437D01*
X023892Y014358D01*
X023266Y014358D01*
X023155Y014247D01*
X023062Y014153D01*
X021776Y014153D01*
X021776Y014215D01*
X021699Y014291D01*
X021195Y014291D01*
X021119Y014215D01*
X021119Y013711D01*
X021195Y013635D01*
X021699Y013635D01*
X021776Y013711D01*
X021776Y013773D01*
X023062Y013773D01*
X023219Y013773D01*
X023424Y013978D01*
X024050Y013978D01*
X024128Y014057D01*
X026526Y014057D01*
X026637Y014168D01*
X027023Y014554D01*
X027023Y014719D01*
X027208Y014904D01*
X027208Y016266D01*
X027328Y016266D01*
X027392Y016330D01*
X027445Y016278D01*
X027424Y016257D01*
X027424Y015677D01*
X027500Y015601D01*
X028080Y015601D01*
X028156Y015677D01*
X028156Y016257D01*
X028141Y016272D01*
X028141Y016331D01*
X028152Y016342D01*
X028152Y016433D01*
X028154Y016435D01*
X028152Y016477D01*
X028152Y017041D01*
X028076Y017117D01*
X027457Y017117D01*
X027392Y017053D01*
X027328Y017117D01*
X026709Y017117D01*
X026632Y017041D01*
X026650Y017058D02*
X022927Y017058D01*
X022952Y016664D02*
X026632Y016664D01*
X026632Y016566D02*
X022952Y016566D01*
X022952Y016467D02*
X026632Y016467D01*
X026632Y016369D02*
X025768Y016369D01*
X025944Y016270D02*
X026705Y016270D01*
X026828Y016172D02*
X026030Y016172D01*
X026070Y016073D02*
X026828Y016073D01*
X026828Y015975D02*
X026086Y015975D01*
X026086Y015876D02*
X026828Y015876D01*
X026828Y015778D02*
X026051Y015778D01*
X025994Y015679D02*
X026828Y015679D01*
X026828Y015581D02*
X025890Y015581D01*
X025888Y015482D02*
X024412Y015482D01*
X024314Y015384D02*
X025751Y015384D01*
X025657Y015285D02*
X024215Y015285D01*
X023916Y015187D02*
X025617Y015187D01*
X025576Y015088D02*
X023957Y015088D01*
X023959Y014990D02*
X025574Y014990D01*
X025574Y014891D02*
X023959Y014891D01*
X023933Y014793D02*
X025600Y014793D01*
X025641Y014694D02*
X023892Y014694D01*
X023822Y014596D02*
X025710Y014596D01*
X025809Y014497D02*
X023724Y014497D01*
X023933Y014399D02*
X023505Y014399D01*
X023268Y014399D02*
X020514Y014399D01*
X020514Y014497D02*
X023049Y014497D01*
X022950Y014596D02*
X020514Y014596D01*
X020514Y014694D02*
X022881Y014694D01*
X022840Y014793D02*
X020514Y014793D01*
X020514Y014891D02*
X022814Y014891D01*
X022814Y014990D02*
X020514Y014990D01*
X020514Y015088D02*
X022816Y015088D01*
X022857Y015187D02*
X020514Y015187D01*
X020514Y015285D02*
X022897Y015285D01*
X022991Y015384D02*
X020514Y015384D01*
X020514Y015482D02*
X023128Y015482D01*
X023168Y015581D02*
X022020Y015581D01*
X021315Y015581D02*
X020514Y015581D01*
X020514Y015679D02*
X021243Y015679D01*
X020982Y015778D02*
X020514Y015778D01*
X020514Y015876D02*
X020884Y015876D01*
X020785Y015975D02*
X020514Y015975D01*
X020514Y016073D02*
X020746Y016073D01*
X020746Y016172D02*
X020514Y016172D01*
X020514Y016270D02*
X020746Y016270D01*
X020698Y016369D02*
X020514Y016369D01*
X022919Y016369D02*
X023711Y016369D01*
X023704Y016366D02*
X023640Y016334D01*
X023583Y016292D01*
X023533Y016242D01*
X023491Y016185D01*
X023459Y016122D01*
X023437Y016055D01*
X023429Y015999D01*
X023826Y015999D01*
X023826Y016397D01*
X023771Y016388D01*
X023704Y016366D01*
X023826Y016369D02*
X023926Y016369D01*
X023926Y016397D02*
X023926Y015999D01*
X024324Y015999D01*
X024315Y016055D01*
X024293Y016122D01*
X024261Y016185D01*
X024220Y016242D01*
X024169Y016292D01*
X024112Y016334D01*
X024049Y016366D01*
X023982Y016388D01*
X023926Y016397D01*
X024042Y016369D02*
X025545Y016369D01*
X025369Y016270D02*
X024192Y016270D01*
X024268Y016172D02*
X025283Y016172D01*
X025318Y015679D02*
X024609Y015679D01*
X024511Y015581D02*
X025423Y015581D01*
X026404Y015482D02*
X026828Y015482D01*
X026828Y015384D02*
X026542Y015384D01*
X026635Y015285D02*
X026828Y015285D01*
X026828Y015187D02*
X026676Y015187D01*
X026717Y015088D02*
X026828Y015088D01*
X026756Y014990D02*
X026719Y014990D01*
X027023Y014694D02*
X028534Y014694D01*
X028534Y014596D02*
X027023Y014596D01*
X026967Y014497D02*
X028534Y014497D01*
X028534Y014399D02*
X026868Y014399D01*
X026770Y014300D02*
X028534Y014300D01*
X028534Y014202D02*
X026671Y014202D01*
X026573Y014103D02*
X028534Y014103D01*
X028534Y014005D02*
X024076Y014005D01*
X023773Y013906D02*
X023352Y013906D01*
X023253Y013808D02*
X023743Y013808D01*
X023743Y013709D02*
X021773Y013709D01*
X021121Y013709D02*
X019043Y013709D01*
X019043Y013808D02*
X021119Y013808D01*
X021119Y013906D02*
X019041Y013906D01*
X018971Y014005D02*
X021119Y014005D01*
X021119Y014103D02*
X019023Y014103D01*
X017891Y013691D02*
X017891Y012966D01*
X017877Y012980D01*
X017373Y012980D01*
X017296Y012904D01*
X017296Y012832D01*
X017262Y012832D01*
X017194Y012900D01*
X017266Y012971D01*
X017266Y013329D01*
X017203Y013391D01*
X017228Y013405D01*
X017256Y013433D01*
X017275Y013467D01*
X017286Y013505D01*
X017286Y013638D01*
X016948Y013638D01*
X016948Y013663D01*
X017286Y013663D01*
X017286Y013795D01*
X017275Y013833D01*
X017256Y013867D01*
X017228Y013895D01*
X017203Y013909D01*
X017236Y013942D01*
X017640Y013942D01*
X017891Y013691D01*
X017873Y013709D02*
X017286Y013709D01*
X017286Y013611D02*
X017891Y013611D01*
X017891Y013512D02*
X017286Y013512D01*
X017236Y013414D02*
X017891Y013414D01*
X017891Y013315D02*
X017266Y013315D01*
X017266Y013217D02*
X017891Y013217D01*
X017891Y013118D02*
X017266Y013118D01*
X017266Y013020D02*
X017891Y013020D01*
X017313Y012921D02*
X017215Y012921D01*
X017282Y013808D02*
X017775Y013808D01*
X017676Y013906D02*
X017209Y013906D01*
X019031Y013118D02*
X021261Y013118D01*
X021261Y013020D02*
X019031Y013020D01*
X020508Y012724D02*
X021261Y012724D01*
X021272Y012626D02*
X020514Y012626D01*
X022976Y012626D02*
X023076Y012626D01*
X023076Y012724D02*
X022976Y012724D01*
X022976Y012823D02*
X023076Y012823D01*
X023076Y012527D02*
X022976Y012527D01*
X024554Y013217D02*
X025239Y013217D01*
X025239Y013315D02*
X024554Y013315D01*
X024554Y013414D02*
X025239Y013414D01*
X025239Y013512D02*
X024554Y013512D01*
X024554Y013611D02*
X025239Y013611D01*
X025239Y013709D02*
X024554Y013709D01*
X024554Y013808D02*
X025239Y013808D01*
X025269Y013906D02*
X024523Y013906D01*
X023209Y014300D02*
X020514Y014300D01*
X020514Y014202D02*
X021119Y014202D01*
X021776Y014202D02*
X023110Y014202D01*
X023069Y015679D02*
X022932Y015679D01*
X022932Y015778D02*
X022971Y015778D01*
X023212Y016073D02*
X023443Y016073D01*
X023485Y016172D02*
X022932Y016172D01*
X022932Y016270D02*
X023561Y016270D01*
X023826Y016270D02*
X023926Y016270D01*
X023926Y016172D02*
X023826Y016172D01*
X023826Y016073D02*
X023926Y016073D01*
X023926Y015975D02*
X024367Y015975D01*
X024309Y016073D02*
X024466Y016073D01*
X023826Y015975D02*
X023311Y015975D01*
X023409Y015876D02*
X023432Y015876D01*
X026019Y013906D02*
X028534Y013906D01*
X028534Y013808D02*
X026050Y013808D01*
X027166Y013709D02*
X028534Y013709D01*
X028534Y013611D02*
X027311Y013611D01*
X027534Y014754D02*
X027740Y014754D01*
X027740Y015090D01*
X027840Y015090D01*
X027840Y014754D01*
X028046Y014754D01*
X028084Y014764D01*
X028118Y014784D01*
X028146Y014812D01*
X028166Y014846D01*
X028176Y014884D01*
X028176Y015090D01*
X027840Y015090D01*
X027840Y015190D01*
X028176Y015190D01*
X028176Y015396D01*
X028166Y015434D01*
X028146Y015469D01*
X028118Y015497D01*
X028084Y015516D01*
X028046Y015527D01*
X027840Y015527D01*
X027840Y015190D01*
X027740Y015190D01*
X027740Y015090D01*
X027404Y015090D01*
X027404Y014884D01*
X027414Y014846D01*
X027434Y014812D01*
X027462Y014784D01*
X027496Y014764D01*
X027534Y014754D01*
X027453Y014793D02*
X027097Y014793D01*
X027195Y014891D02*
X027404Y014891D01*
X027404Y014990D02*
X027208Y014990D01*
X027208Y015088D02*
X027404Y015088D01*
X027404Y015190D02*
X027740Y015190D01*
X027740Y015527D01*
X027534Y015527D01*
X027496Y015516D01*
X027462Y015497D01*
X027434Y015469D01*
X027414Y015434D01*
X027404Y015396D01*
X027404Y015190D01*
X027404Y015285D02*
X027208Y015285D01*
X027208Y015187D02*
X027740Y015187D01*
X027740Y015285D02*
X027840Y015285D01*
X027840Y015187D02*
X028534Y015187D01*
X028534Y015285D02*
X028176Y015285D01*
X028176Y015384D02*
X028534Y015384D01*
X028534Y015482D02*
X028133Y015482D01*
X028156Y015679D02*
X028534Y015679D01*
X028534Y015581D02*
X027208Y015581D01*
X027208Y015679D02*
X027424Y015679D01*
X027424Y015778D02*
X027208Y015778D01*
X027208Y015876D02*
X027424Y015876D01*
X027424Y015975D02*
X027208Y015975D01*
X027208Y016073D02*
X027424Y016073D01*
X027424Y016172D02*
X027208Y016172D01*
X027332Y016270D02*
X027437Y016270D01*
X027766Y016691D02*
X027971Y016503D01*
X028153Y016467D02*
X028534Y016467D01*
X028534Y016369D02*
X028152Y016369D01*
X028143Y016270D02*
X028534Y016270D01*
X028534Y016172D02*
X028156Y016172D01*
X028156Y016073D02*
X028534Y016073D01*
X028534Y015975D02*
X028156Y015975D01*
X028156Y015876D02*
X028534Y015876D01*
X028534Y015778D02*
X028156Y015778D01*
X027840Y015482D02*
X027740Y015482D01*
X027740Y015384D02*
X027840Y015384D01*
X027840Y015088D02*
X027740Y015088D01*
X027740Y014990D02*
X027840Y014990D01*
X027840Y014891D02*
X027740Y014891D01*
X027740Y014793D02*
X027840Y014793D01*
X028127Y014793D02*
X028534Y014793D01*
X028534Y014891D02*
X028176Y014891D01*
X028176Y014990D02*
X028534Y014990D01*
X028534Y015088D02*
X028176Y015088D01*
X027404Y015384D02*
X027208Y015384D01*
X027208Y015482D02*
X027447Y015482D01*
X028152Y016566D02*
X028534Y016566D01*
X028534Y016664D02*
X028152Y016664D01*
X028152Y016763D02*
X028534Y016763D01*
X028534Y016861D02*
X028152Y016861D01*
X028152Y016960D02*
X028534Y016960D01*
X028534Y017058D02*
X028135Y017058D01*
X027398Y017058D02*
X027387Y017058D01*
X014910Y010951D02*
X014721Y010951D01*
X014721Y010853D02*
X014840Y010853D01*
X014840Y010754D02*
X014721Y010754D01*
X014721Y010656D02*
X014840Y010656D01*
X014840Y010557D02*
X014721Y010557D01*
X014721Y010459D02*
X014840Y010459D01*
X014856Y010360D02*
X014721Y010360D01*
X014471Y009003D02*
X014439Y008984D01*
X014179Y011838D02*
X013874Y011838D01*
X013874Y011936D02*
X014179Y011936D01*
X014179Y012035D02*
X013874Y012035D01*
X013874Y012133D02*
X014179Y012133D01*
X014179Y012232D02*
X013874Y012232D01*
X013810Y012330D02*
X014179Y012330D01*
X012648Y012429D02*
X012582Y012429D01*
X011356Y013414D02*
X009961Y013414D01*
X009961Y013512D02*
X010543Y013512D01*
X010394Y013611D02*
X009961Y013611D01*
X009961Y013709D02*
X010342Y013709D01*
X010331Y013808D02*
X009907Y013808D01*
X010331Y013906D02*
X009018Y013906D01*
X009018Y014005D02*
X010331Y014005D01*
X009357Y013808D02*
X008995Y013808D01*
X008984Y013709D02*
X009304Y013709D01*
X009338Y013217D02*
X008976Y013217D01*
X007934Y013217D02*
X006929Y013217D01*
X006956Y013315D02*
X007908Y013315D01*
X007892Y013414D02*
X006971Y013414D01*
X006971Y013512D02*
X007892Y013512D01*
X007892Y013611D02*
X006971Y013611D01*
X006937Y013709D02*
X007267Y013709D01*
X007218Y013808D02*
X006948Y013808D01*
X006971Y013906D02*
X007218Y013906D01*
X007218Y014005D02*
X006971Y014005D01*
X006971Y014103D02*
X007218Y014103D01*
X007218Y014202D02*
X006944Y014202D01*
X006941Y014300D02*
X007255Y014300D01*
X006971Y014399D02*
X007892Y014399D01*
X007892Y014497D02*
X006971Y014497D01*
X006971Y014596D02*
X007892Y014596D01*
X007912Y014694D02*
X006952Y014694D01*
X006933Y014793D02*
X007930Y014793D01*
X007802Y014891D02*
X006971Y014891D01*
X006971Y014990D02*
X007703Y014990D01*
X007647Y015088D02*
X006971Y015088D01*
X006959Y015187D02*
X007014Y015187D01*
X006946Y015285D02*
X006926Y015285D01*
X006918Y015778D02*
X006965Y015778D01*
X006971Y015876D02*
X007647Y015876D01*
X007647Y015778D02*
X007583Y015778D01*
X007602Y015679D02*
X007647Y015679D01*
X007647Y015581D02*
X007602Y015581D01*
X007602Y015482D02*
X007647Y015482D01*
X007647Y015384D02*
X007602Y015384D01*
X007602Y015285D02*
X007647Y015285D01*
X007647Y015187D02*
X007534Y015187D01*
X007647Y015975D02*
X006971Y015975D01*
X006971Y016073D02*
X007647Y016073D01*
X007647Y016172D02*
X006971Y016172D01*
X007814Y016566D02*
X010331Y016566D01*
X010331Y016467D02*
X007913Y016467D01*
X008011Y016369D02*
X010331Y016369D01*
X010331Y016270D02*
X008027Y016270D01*
X009018Y016172D02*
X010331Y016172D01*
X010331Y016073D02*
X009018Y016073D01*
X009018Y015975D02*
X010331Y015975D01*
X010911Y015975D02*
X012606Y015975D01*
X012606Y016073D02*
X010911Y016073D01*
X010911Y016172D02*
X012606Y016172D01*
X012606Y016270D02*
X010911Y016270D01*
X010911Y016369D02*
X011659Y016369D01*
X011643Y016467D02*
X010911Y016467D01*
X010911Y016566D02*
X011643Y016566D01*
X011643Y016664D02*
X010911Y016664D01*
X010911Y016763D02*
X011643Y016763D01*
X011643Y016861D02*
X010911Y016861D01*
X010902Y016960D02*
X011714Y016960D01*
X012228Y016960D02*
X014221Y016960D01*
X014223Y017058D02*
X010853Y017058D01*
X010712Y017157D02*
X014272Y017157D01*
X014221Y016861D02*
X013234Y016861D01*
X013266Y016763D02*
X014221Y016763D01*
X014221Y016664D02*
X013266Y016664D01*
X013266Y016566D02*
X014221Y016566D01*
X014221Y016467D02*
X013854Y016467D01*
X013909Y016369D02*
X014221Y016369D01*
X014221Y016270D02*
X013909Y016270D01*
X013909Y016172D02*
X014221Y016172D01*
X014221Y016073D02*
X013909Y016073D01*
X013909Y015975D02*
X014221Y015975D01*
X014221Y015876D02*
X013877Y015876D01*
X013253Y016369D02*
X013226Y016369D01*
X013261Y016467D02*
X013308Y016467D01*
X012645Y016369D02*
X012283Y016369D01*
X012299Y016861D02*
X012638Y016861D01*
X007923Y014300D02*
X007836Y014300D01*
X007874Y014202D02*
X007919Y014202D01*
X007915Y013808D02*
X007874Y013808D01*
X007825Y013709D02*
X007927Y013709D01*
X007892Y013118D02*
X006971Y013118D01*
X006971Y013020D02*
X007892Y013020D01*
X007892Y012921D02*
X006971Y012921D01*
X006963Y012823D02*
X007900Y012823D01*
X007545Y012527D02*
X006732Y012527D01*
X006732Y012429D02*
X007478Y012429D01*
X007478Y012330D02*
X006732Y012330D01*
X006678Y012232D02*
X007478Y012232D01*
X007478Y012133D02*
X005987Y012133D01*
X005889Y012232D02*
X006130Y012232D01*
X006076Y012330D02*
X005790Y012330D01*
X005692Y012429D02*
X006076Y012429D01*
X006076Y012527D02*
X005593Y012527D01*
X005495Y012626D02*
X006076Y012626D01*
X006076Y012724D02*
X005396Y012724D01*
X004777Y013020D02*
X004697Y013020D01*
X004761Y013118D02*
X004777Y013118D01*
X004763Y013217D02*
X004777Y013217D01*
X004763Y013315D02*
X004777Y013315D01*
X004777Y013414D02*
X004367Y013414D01*
X004367Y013450D02*
X004763Y013450D01*
X004763Y013676D01*
X004753Y013714D01*
X004733Y013748D01*
X004705Y013776D01*
X004671Y013796D01*
X004633Y013806D01*
X004367Y013806D01*
X004367Y013450D01*
X004367Y013512D02*
X004267Y013512D01*
X004267Y013450D02*
X004267Y013806D01*
X004002Y013806D01*
X003964Y013796D01*
X003930Y013776D01*
X003902Y013748D01*
X003882Y013714D01*
X003872Y013676D01*
X003872Y013450D01*
X004267Y013450D01*
X004267Y013414D02*
X001885Y013414D01*
X001885Y013512D02*
X003872Y013512D01*
X003872Y013611D02*
X001885Y013611D01*
X001885Y013709D02*
X002120Y013709D01*
X002020Y013808D02*
X001885Y013808D01*
X001885Y013906D02*
X001957Y013906D01*
X001916Y014005D02*
X001885Y014005D01*
X001885Y014103D02*
X001908Y014103D01*
X001908Y014202D02*
X001885Y014202D01*
X001911Y014300D02*
X001942Y014300D01*
X001571Y014497D02*
X000721Y014497D01*
X000721Y014399D02*
X001505Y014399D01*
X001505Y014300D02*
X000721Y014300D01*
X000721Y014202D02*
X001505Y014202D01*
X001505Y014103D02*
X000721Y014103D01*
X000721Y014005D02*
X001505Y014005D01*
X001505Y013906D02*
X000721Y013906D01*
X000721Y013808D02*
X001505Y013808D01*
X001505Y013709D02*
X000721Y013709D01*
X000721Y013611D02*
X001505Y013611D01*
X001505Y013512D02*
X000721Y013512D01*
X000721Y013414D02*
X001505Y013414D01*
X001505Y013315D02*
X000721Y013315D01*
X000721Y013217D02*
X001505Y013217D01*
X001505Y013118D02*
X000721Y013118D01*
X000721Y013020D02*
X001505Y013020D01*
X001505Y012921D02*
X000721Y012921D01*
X000721Y012823D02*
X001505Y012823D01*
X001505Y012724D02*
X000721Y012724D01*
X000721Y012626D02*
X001505Y012626D01*
X001505Y012527D02*
X000721Y012527D01*
X000721Y012429D02*
X001505Y012429D01*
X001505Y012330D02*
X000721Y012330D01*
X000721Y012232D02*
X001505Y012232D01*
X001505Y012133D02*
X000721Y012133D01*
X000721Y012035D02*
X001505Y012035D01*
X001505Y011936D02*
X000721Y011936D01*
X000721Y011838D02*
X001505Y011838D01*
X001505Y011739D02*
X000721Y011739D01*
X000721Y011641D02*
X001505Y011641D01*
X001505Y011542D02*
X000721Y011542D01*
X000721Y011444D02*
X001505Y011444D01*
X001505Y011345D02*
X000721Y011345D01*
X000721Y011247D02*
X001505Y011247D01*
X001505Y011148D02*
X000721Y011148D01*
X000721Y011050D02*
X001505Y011050D01*
X001505Y010951D02*
X000721Y010951D01*
X000721Y010853D02*
X001505Y010853D01*
X001505Y010754D02*
X000721Y010754D01*
X000721Y010656D02*
X001505Y010656D01*
X001505Y010557D02*
X000721Y010557D01*
X000721Y010459D02*
X001505Y010459D01*
X001505Y010360D02*
X000721Y010360D01*
X000721Y010262D02*
X001505Y010262D01*
X001554Y010163D02*
X000721Y010163D01*
X000721Y010065D02*
X001652Y010065D01*
X001751Y009966D02*
X000721Y009966D01*
X000721Y009868D02*
X001849Y009868D01*
X001958Y009769D02*
X000721Y009769D01*
X000721Y009671D02*
X002024Y009671D01*
X002128Y009572D02*
X000721Y009572D01*
X000721Y009474D02*
X003861Y009474D01*
X003861Y009572D02*
X002657Y009572D01*
X002761Y009671D02*
X003873Y009671D01*
X003861Y009375D02*
X000721Y009375D01*
X000721Y009277D02*
X003861Y009277D01*
X003861Y009178D02*
X000721Y009178D01*
X000721Y009080D02*
X002263Y009080D01*
X002080Y008981D02*
X000721Y008981D01*
X000721Y008883D02*
X001981Y008883D01*
X001941Y008784D02*
X000721Y008784D01*
X000721Y008686D02*
X001908Y008686D01*
X001908Y008587D02*
X000721Y008587D01*
X000721Y008489D02*
X001918Y008489D01*
X001959Y008390D02*
X000721Y008390D01*
X000721Y008292D02*
X002025Y008292D01*
X002130Y008193D02*
X000721Y008193D01*
X000721Y008095D02*
X003849Y008095D01*
X003849Y008193D02*
X002654Y008193D01*
X002760Y008292D02*
X003861Y008292D01*
X003849Y007996D02*
X000721Y007996D01*
X000721Y007898D02*
X004244Y007898D01*
X004344Y007898D02*
X005869Y007898D01*
X005967Y007996D02*
X004739Y007996D01*
X004739Y008095D02*
X006066Y008095D01*
X006152Y008193D02*
X004739Y008193D01*
X004711Y008292D02*
X006152Y008292D01*
X006152Y008390D02*
X004711Y008390D01*
X004711Y008489D02*
X006152Y008489D01*
X006152Y008587D02*
X004711Y008587D01*
X004711Y008686D02*
X006152Y008686D01*
X006183Y008784D02*
X004711Y008784D01*
X004700Y008883D02*
X006146Y008883D01*
X005778Y008981D02*
X004692Y008981D01*
X004711Y009080D02*
X005778Y009080D01*
X005778Y009178D02*
X004711Y009178D01*
X004711Y009277D02*
X005778Y009277D01*
X005778Y009375D02*
X004711Y009375D01*
X004711Y009474D02*
X005778Y009474D01*
X005778Y009572D02*
X004711Y009572D01*
X004723Y009671D02*
X005829Y009671D01*
X005915Y009769D02*
X004723Y009769D01*
X004723Y009868D02*
X005915Y009868D01*
X005915Y009966D02*
X004723Y009966D01*
X004723Y010065D02*
X005989Y010065D01*
X006087Y010163D02*
X004723Y010163D01*
X004715Y010262D02*
X006599Y010262D01*
X006698Y010360D02*
X004723Y010360D01*
X004743Y010459D02*
X005802Y010459D01*
X005804Y010452D02*
X005823Y010418D01*
X005851Y010390D01*
X005886Y010371D01*
X005924Y010360D01*
X006092Y010360D01*
X006092Y010738D01*
X005793Y010738D01*
X005793Y010491D01*
X005804Y010452D01*
X005793Y010557D02*
X004743Y010557D01*
X004743Y010754D02*
X006092Y010754D01*
X006092Y010738D02*
X006092Y010834D01*
X005793Y010834D01*
X005793Y011081D01*
X005804Y011119D01*
X005823Y011154D01*
X005851Y011182D01*
X005886Y011201D01*
X005924Y011212D01*
X006092Y011212D01*
X006092Y010834D01*
X006189Y010834D01*
X006487Y010834D01*
X006487Y011081D01*
X006477Y011119D01*
X006457Y011154D01*
X006429Y011182D01*
X006395Y011201D01*
X006357Y011212D01*
X006189Y011212D01*
X006189Y010834D01*
X006189Y010738D01*
X006487Y010738D01*
X006487Y010491D01*
X006477Y010452D01*
X006457Y010418D01*
X006429Y010390D01*
X006395Y010371D01*
X006357Y010360D01*
X006189Y010360D01*
X006189Y010738D01*
X006092Y010738D01*
X006092Y010656D02*
X006189Y010656D01*
X006189Y010754D02*
X006561Y010754D01*
X006561Y010656D02*
X006487Y010656D01*
X006487Y010557D02*
X006561Y010557D01*
X006561Y010459D02*
X006479Y010459D01*
X006189Y010459D02*
X006092Y010459D01*
X006092Y010557D02*
X006189Y010557D01*
X005793Y010656D02*
X004348Y010656D01*
X004248Y010656D02*
X001885Y010656D01*
X001885Y010754D02*
X003853Y010754D01*
X003853Y010853D02*
X001885Y010853D01*
X001885Y010951D02*
X002125Y010951D01*
X002023Y011050D02*
X001885Y011050D01*
X001885Y011148D02*
X001958Y011148D01*
X001917Y011247D02*
X001885Y011247D01*
X001885Y011345D02*
X001908Y011345D01*
X001908Y011444D02*
X001885Y011444D01*
X001885Y011542D02*
X001941Y011542D01*
X001983Y011641D02*
X001885Y011641D01*
X001885Y011739D02*
X002082Y011739D01*
X002268Y011838D02*
X001885Y011838D01*
X001885Y011936D02*
X003896Y011936D01*
X003896Y011838D02*
X002516Y011838D01*
X002703Y011739D02*
X003913Y011739D01*
X003896Y012035D02*
X001885Y012035D01*
X001885Y012133D02*
X003896Y012133D01*
X003896Y012232D02*
X001885Y012232D01*
X001885Y012330D02*
X002123Y012330D01*
X002021Y012429D02*
X001885Y012429D01*
X001885Y012527D02*
X001957Y012527D01*
X001917Y012626D02*
X001885Y012626D01*
X001885Y012724D02*
X001908Y012724D01*
X001908Y012823D02*
X001885Y012823D01*
X001885Y012921D02*
X001942Y012921D01*
X001984Y013020D02*
X001885Y013020D01*
X001885Y013118D02*
X002083Y013118D01*
X002271Y013217D02*
X001885Y013217D01*
X001885Y013315D02*
X003872Y013315D01*
X003872Y013217D02*
X002514Y013217D01*
X002702Y013118D02*
X003874Y013118D01*
X003881Y013709D02*
X002664Y013709D01*
X002764Y013808D02*
X004846Y013808D01*
X004777Y013709D02*
X004754Y013709D01*
X004763Y013611D02*
X004777Y013611D01*
X004763Y013512D02*
X004777Y013512D01*
X004367Y013611D02*
X004267Y013611D01*
X004267Y013709D02*
X004367Y013709D01*
X004944Y013906D02*
X002828Y013906D01*
X002868Y014005D02*
X005043Y014005D01*
X005141Y014103D02*
X002877Y014103D01*
X002877Y014202D02*
X004462Y014202D01*
X004388Y014300D02*
X002842Y014300D01*
X002799Y014399D02*
X004388Y014399D01*
X004388Y014891D02*
X003517Y014891D01*
X004014Y015187D02*
X002765Y015187D01*
X002803Y015224D02*
X002877Y015402D01*
X002877Y015595D01*
X002803Y015773D01*
X002667Y015909D01*
X002489Y015983D01*
X002296Y015983D01*
X002118Y015909D01*
X001982Y015773D01*
X001908Y015595D01*
X001908Y015402D01*
X001982Y015224D01*
X002118Y015088D01*
X002296Y015014D01*
X002489Y015014D01*
X002667Y015088D01*
X004068Y015088D01*
X004014Y015285D02*
X002828Y015285D01*
X002803Y015224D02*
X002667Y015088D01*
X002869Y015384D02*
X004014Y015384D01*
X004014Y015482D02*
X002877Y015482D01*
X002877Y015581D02*
X004014Y015581D01*
X004014Y015679D02*
X002842Y015679D01*
X002798Y015778D02*
X004014Y015778D01*
X004090Y015876D02*
X002700Y015876D01*
X002509Y015975D02*
X004151Y015975D01*
X004151Y016073D02*
X000721Y016073D01*
X000721Y015975D02*
X002276Y015975D01*
X002085Y015876D02*
X000721Y015876D01*
X000721Y015778D02*
X001986Y015778D01*
X001943Y015679D02*
X000721Y015679D01*
X000721Y015581D02*
X001908Y015581D01*
X001908Y015482D02*
X000721Y015482D01*
X000721Y015384D02*
X001916Y015384D01*
X001956Y015285D02*
X000721Y015285D01*
X000721Y015187D02*
X002019Y015187D01*
X002118Y015088D02*
X000721Y015088D01*
X000721Y014990D02*
X004444Y014990D01*
X004614Y015088D02*
X004788Y015088D01*
X004742Y015187D02*
X004668Y015187D01*
X004668Y015285D02*
X004742Y015285D01*
X004742Y015384D02*
X004668Y015384D01*
X005145Y016073D02*
X005845Y016073D01*
X005845Y016172D02*
X005189Y016172D01*
X004151Y016172D02*
X000721Y016172D01*
X000721Y016270D02*
X004151Y016270D01*
X004349Y016817D02*
X004412Y016880D01*
X001965Y014891D02*
X000721Y014891D01*
X000721Y014793D02*
X001866Y014793D01*
X001768Y014694D02*
X000721Y014694D01*
X000721Y014596D02*
X001669Y014596D01*
X002701Y014497D02*
X003373Y014497D01*
X003892Y012429D02*
X002763Y012429D01*
X002662Y012330D02*
X003896Y012330D01*
X003893Y011050D02*
X002762Y011050D01*
X002659Y010951D02*
X003853Y010951D01*
X003853Y010557D02*
X001885Y010557D01*
X001885Y010459D02*
X002266Y010459D01*
X002081Y010360D02*
X001894Y010360D01*
X002519Y010459D02*
X003853Y010459D01*
X003873Y010360D02*
X002704Y010360D01*
X002521Y009080D02*
X003861Y009080D01*
X003880Y008981D02*
X002705Y008981D01*
X003849Y007799D02*
X000721Y007799D01*
X000721Y007701D02*
X002261Y007701D01*
X002079Y007602D02*
X000721Y007602D01*
X000721Y007504D02*
X001981Y007504D01*
X001940Y007405D02*
X000721Y007405D01*
X000721Y007307D02*
X001908Y007307D01*
X001908Y007208D02*
X000721Y007208D01*
X000721Y007110D02*
X001918Y007110D01*
X001959Y007011D02*
X000721Y007011D01*
X000721Y006913D02*
X002026Y006913D01*
X002133Y006814D02*
X000721Y006814D01*
X000721Y006716D02*
X003880Y006716D01*
X003880Y006814D02*
X002652Y006814D01*
X002759Y006913D02*
X003869Y006913D01*
X003880Y006617D02*
X000721Y006617D01*
X000721Y006519D02*
X003880Y006519D01*
X003880Y006420D02*
X000721Y006420D01*
X000721Y006322D02*
X002258Y006322D01*
X002077Y006223D02*
X000721Y006223D01*
X000721Y006125D02*
X001981Y006125D01*
X001940Y006026D02*
X000721Y006026D01*
X000721Y005928D02*
X001908Y005928D01*
X001908Y005829D02*
X000721Y005829D01*
X000721Y005731D02*
X001919Y005731D01*
X001960Y005632D02*
X000721Y005632D01*
X000721Y005534D02*
X002027Y005534D01*
X002136Y005435D02*
X000721Y005435D01*
X000721Y005337D02*
X003849Y005337D01*
X003849Y005435D02*
X002649Y005435D01*
X002758Y005534D02*
X003817Y005534D01*
X003849Y005238D02*
X000721Y005238D01*
X000721Y005140D02*
X004244Y005140D01*
X004344Y005140D02*
X005667Y005140D01*
X005667Y005238D02*
X004739Y005238D01*
X004739Y005337D02*
X005667Y005337D01*
X005667Y005435D02*
X004739Y005435D01*
X004731Y005534D02*
X005667Y005534D01*
X005667Y005632D02*
X004731Y005632D01*
X004731Y005731D02*
X005667Y005731D01*
X005667Y005829D02*
X004731Y005829D01*
X004731Y005928D02*
X005694Y005928D01*
X005793Y006026D02*
X004731Y006026D01*
X004730Y006125D02*
X005891Y006125D01*
X005990Y006223D02*
X004702Y006223D01*
X004731Y006322D02*
X005930Y006322D01*
X005863Y006420D02*
X004731Y006420D01*
X004731Y006519D02*
X005863Y006519D01*
X005863Y006617D02*
X004731Y006617D01*
X004731Y006716D02*
X005863Y006716D01*
X005863Y006814D02*
X004731Y006814D01*
X004719Y006913D02*
X005884Y006913D01*
X005618Y007110D02*
X006706Y007110D01*
X006706Y007208D02*
X005717Y007208D01*
X005815Y007307D02*
X006706Y007307D01*
X006706Y007405D02*
X005914Y007405D01*
X006012Y007504D02*
X006706Y007504D01*
X006706Y007602D02*
X006111Y007602D01*
X006209Y007701D02*
X006706Y007701D01*
X006706Y007799D02*
X006308Y007799D01*
X006406Y007898D02*
X006706Y007898D01*
X006706Y007996D02*
X006505Y007996D01*
X005770Y007799D02*
X004739Y007799D01*
X004739Y007701D02*
X005672Y007701D01*
X005573Y007602D02*
X004718Y007602D01*
X004713Y007504D02*
X005475Y007504D01*
X004719Y007011D02*
X006706Y007011D01*
X006804Y006913D02*
X006499Y006913D01*
X006262Y005829D02*
X006133Y005829D01*
X006047Y005731D02*
X006258Y005731D01*
X006258Y005632D02*
X006047Y005632D01*
X006047Y005534D02*
X006258Y005534D01*
X006258Y005435D02*
X006047Y005435D01*
X006047Y005337D02*
X006258Y005337D01*
X006258Y005238D02*
X006047Y005238D01*
X006047Y005140D02*
X006258Y005140D01*
X006258Y005041D02*
X006047Y005041D01*
X006047Y004943D02*
X006258Y004943D01*
X006258Y004844D02*
X006047Y004844D01*
X006047Y004746D02*
X006258Y004746D01*
X006258Y004647D02*
X006047Y004647D01*
X006038Y004549D02*
X006258Y004549D01*
X006258Y004450D02*
X005939Y004450D01*
X005841Y004352D02*
X006258Y004352D01*
X006258Y004253D02*
X005742Y004253D01*
X005599Y004647D02*
X004719Y004647D01*
X004707Y004746D02*
X005667Y004746D01*
X005667Y004844D02*
X004721Y004844D01*
X004739Y004943D02*
X005667Y004943D01*
X005667Y005041D02*
X004739Y005041D01*
X003849Y005041D02*
X000721Y005041D01*
X000721Y004943D02*
X002255Y004943D01*
X002076Y004844D02*
X000721Y004844D01*
X000721Y004746D02*
X001980Y004746D01*
X001939Y004647D02*
X000721Y004647D01*
X000721Y004549D02*
X001908Y004549D01*
X001908Y004450D02*
X000721Y004450D01*
X000721Y004352D02*
X001919Y004352D01*
X001960Y004253D02*
X000721Y004253D01*
X000721Y004155D02*
X002028Y004155D01*
X002138Y004056D02*
X000721Y004056D01*
X000721Y003958D02*
X003861Y003958D01*
X003861Y004056D02*
X002647Y004056D01*
X002757Y004155D02*
X003869Y004155D01*
X003861Y003859D02*
X000721Y003859D01*
X000721Y003761D02*
X003861Y003761D01*
X003861Y003662D02*
X000721Y003662D01*
X000721Y003564D02*
X002253Y003564D01*
X002075Y003465D02*
X000721Y003465D01*
X000721Y003367D02*
X001980Y003367D01*
X001939Y003268D02*
X000721Y003268D01*
X000721Y003170D02*
X001908Y003170D01*
X001908Y003071D02*
X000721Y003071D01*
X000721Y002973D02*
X001920Y002973D01*
X001960Y002874D02*
X000721Y002874D01*
X000721Y002776D02*
X002029Y002776D01*
X002141Y002677D02*
X000721Y002677D01*
X000721Y002579D02*
X006258Y002579D01*
X006258Y002677D02*
X004648Y002677D01*
X004711Y002776D02*
X006258Y002776D01*
X006258Y002874D02*
X004711Y002874D01*
X004711Y002973D02*
X006258Y002973D01*
X006258Y003071D02*
X004711Y003071D01*
X004711Y003170D02*
X006258Y003170D01*
X006258Y003268D02*
X004711Y003268D01*
X004704Y003367D02*
X006258Y003367D01*
X006258Y003465D02*
X004688Y003465D01*
X004711Y003564D02*
X006258Y003564D01*
X006258Y003662D02*
X004711Y003662D01*
X004711Y003761D02*
X006258Y003761D01*
X006258Y003859D02*
X004711Y003859D01*
X004711Y003958D02*
X006258Y003958D01*
X006258Y004056D02*
X004711Y004056D01*
X004719Y004155D02*
X006258Y004155D01*
X003861Y003564D02*
X002532Y003564D01*
X002709Y003465D02*
X003884Y003465D01*
X003861Y002776D02*
X002756Y002776D01*
X002644Y002677D02*
X003924Y002677D01*
X002821Y001988D02*
X006258Y001988D01*
X006258Y002086D02*
X002739Y002086D01*
X002590Y002185D02*
X006258Y002185D01*
X006258Y002283D02*
X000721Y002283D01*
X000721Y002185D02*
X002195Y002185D01*
X002342Y002185D02*
X002442Y002185D01*
X002442Y002086D02*
X002342Y002086D01*
X002342Y001988D02*
X002442Y001988D01*
X002442Y001889D02*
X002342Y001889D01*
X002046Y002086D02*
X000721Y002086D01*
X000721Y001988D02*
X001964Y001988D01*
X001917Y001889D02*
X000721Y001889D01*
X000721Y001791D02*
X001893Y001791D01*
X002867Y001889D02*
X006258Y001889D01*
X006258Y001791D02*
X002892Y001791D01*
X000721Y002382D02*
X006258Y002382D01*
X006258Y002480D02*
X000721Y002480D01*
X002529Y004943D02*
X003849Y004943D01*
X003867Y004844D02*
X002708Y004844D01*
X002707Y006223D02*
X003909Y006223D01*
X003882Y006125D02*
X003289Y006125D01*
X003880Y006322D02*
X002527Y006322D01*
X002706Y007602D02*
X003870Y007602D01*
X003849Y007701D02*
X002524Y007701D01*
X006432Y009178D02*
X006506Y009178D01*
X006506Y009080D02*
X006483Y009080D01*
X006804Y009474D02*
X006901Y009474D01*
X006901Y009572D02*
X006804Y009572D01*
X006804Y009671D02*
X006901Y009671D01*
X006561Y010853D02*
X006487Y010853D01*
X006487Y010951D02*
X006561Y010951D01*
X006561Y011050D02*
X006487Y011050D01*
X006460Y011148D02*
X006594Y011148D01*
X006765Y011247D02*
X006264Y011247D01*
X006189Y011148D02*
X006092Y011148D01*
X006092Y011050D02*
X006189Y011050D01*
X006189Y010951D02*
X006092Y010951D01*
X006092Y010853D02*
X006189Y010853D01*
X005793Y010853D02*
X004743Y010853D01*
X004743Y010951D02*
X005793Y010951D01*
X005793Y011050D02*
X004747Y011050D01*
X004747Y011148D02*
X005820Y011148D01*
X006841Y011345D02*
X008278Y011345D01*
X008196Y011444D02*
X006841Y011444D01*
X006841Y011542D02*
X008113Y011542D01*
X008031Y011641D02*
X006841Y011641D01*
X006841Y011739D02*
X007949Y011739D01*
X007867Y011838D02*
X006841Y011838D01*
X006841Y011936D02*
X007497Y011936D01*
X007478Y012035D02*
X006788Y012035D01*
X006240Y012035D02*
X006086Y012035D01*
X006184Y011936D02*
X006187Y011936D01*
D37*
X006199Y011652D02*
X004967Y012884D01*
X004778Y012695D01*
X004321Y012695D01*
X004317Y012652D01*
X004967Y012884D02*
X004967Y013660D01*
X005310Y014003D01*
X006408Y014003D01*
X006408Y013503D02*
X006408Y013003D01*
X006404Y012999D01*
X006404Y012538D01*
X006514Y011652D02*
X006199Y011652D01*
X006888Y010786D02*
X006896Y010778D01*
X006896Y010290D01*
X006656Y010050D01*
X006243Y010050D01*
X006105Y009912D01*
X006105Y009290D01*
X006105Y009203D01*
X006432Y008857D01*
X006754Y008841D01*
X006896Y008727D01*
X006896Y007089D01*
X007298Y006688D01*
X008101Y006688D01*
X008113Y006676D01*
X006227Y006676D01*
X006191Y006640D01*
X006125Y006089D02*
X008936Y006089D01*
X009097Y006251D01*
X009097Y006932D01*
X008979Y007050D01*
X008979Y010802D01*
X007806Y012207D01*
X008455Y013003D02*
X008455Y013503D01*
X009632Y013503D01*
X008455Y014003D02*
X008447Y014010D01*
X007546Y014010D01*
X007959Y015003D02*
X007837Y015125D01*
X007837Y016274D01*
X007735Y016377D01*
X004869Y016377D01*
X004861Y016369D01*
X004341Y016636D02*
X004333Y016880D01*
X004341Y016636D02*
X004341Y015471D01*
X005089Y015471D02*
X005089Y015369D01*
X005400Y015010D02*
X006400Y015010D01*
X006408Y015003D01*
X006408Y015503D02*
X006412Y015506D01*
X007274Y015506D01*
X007959Y015003D02*
X008455Y015003D01*
X008463Y015495D02*
X008455Y015503D01*
X008455Y016003D01*
X008463Y015495D02*
X009317Y015495D01*
X011971Y016636D02*
X012355Y016650D01*
X012936Y016650D01*
X012945Y016160D02*
X012936Y016150D01*
X012945Y016160D02*
X013581Y016160D01*
X015081Y015436D02*
X015176Y015341D01*
X015176Y011837D01*
X015363Y011650D01*
X016936Y011650D01*
X016936Y011150D02*
X015749Y011150D01*
X015743Y011156D01*
X015190Y010650D02*
X015168Y010629D01*
X015190Y010650D02*
X016936Y010650D01*
X016904Y010152D02*
X016282Y009530D01*
X016282Y007920D01*
X016266Y007904D01*
X015306Y007943D02*
X015266Y007904D01*
X015266Y007251D02*
X015534Y006983D01*
X016357Y006983D01*
X016510Y007136D01*
X016845Y007136D01*
X017601Y007892D01*
X017806Y007892D01*
X018060Y008146D01*
X018060Y008691D01*
X018560Y008691D02*
X018573Y008678D01*
X018573Y007880D01*
X019060Y008691D02*
X019060Y009469D01*
X018979Y009550D01*
X018006Y010152D02*
X016904Y010152D01*
X016936Y010150D02*
X018004Y010150D01*
X018006Y010152D01*
X018006Y010900D02*
X018006Y011503D01*
X018006Y011743D01*
X017629Y012121D01*
X016936Y012150D02*
X016004Y012150D01*
X015617Y012538D01*
X014680Y012101D02*
X014412Y012101D01*
X014369Y012058D01*
X014369Y013790D01*
X013371Y014150D01*
X012936Y014150D01*
X012434Y014150D01*
X012038Y013754D01*
X011751Y013754D01*
X011711Y013794D01*
X012936Y012650D02*
X012961Y012676D01*
X013195Y012676D01*
X013684Y012188D01*
X013684Y010436D01*
X013274Y010042D02*
X013274Y007912D01*
X013266Y007904D01*
X012294Y007932D02*
X012266Y007904D01*
X012294Y007932D02*
X012294Y010373D01*
X012571Y010650D01*
X012936Y010650D01*
X012936Y011150D02*
X011764Y011150D01*
X011262Y010648D01*
X011262Y007908D01*
X011266Y007904D01*
X014369Y009105D02*
X014439Y008984D01*
X014369Y009105D02*
X014369Y012058D01*
X012936Y012150D02*
X012930Y012144D01*
X012286Y012144D01*
X012936Y010150D02*
X013166Y010150D01*
X013274Y010042D01*
X016963Y009014D02*
X017286Y008691D01*
X017560Y008691D01*
X019060Y006644D02*
X019424Y006644D01*
X019459Y006609D01*
X023411Y003881D02*
X023394Y003314D01*
X012660Y004314D02*
X012619Y004296D01*
X006479Y008239D02*
X005487Y007247D01*
X004353Y007247D01*
X004294Y007188D01*
X005857Y005821D02*
X006125Y006089D01*
X005857Y005821D02*
X005857Y004636D01*
X005644Y004424D01*
X004294Y004424D01*
X006479Y008239D02*
X006479Y008424D01*
X004298Y009943D02*
X002003Y009983D01*
X001695Y010290D01*
X001695Y014353D01*
X002101Y014758D01*
X003380Y014758D01*
X003534Y014605D01*
X004715Y014605D01*
X004995Y014605D01*
X005400Y015010D01*
X006408Y015503D02*
X006408Y016003D01*
X004317Y013400D02*
X004132Y013546D01*
X016936Y015150D02*
X016941Y015144D01*
X018971Y015144D01*
X019254Y015428D01*
X019254Y016325D01*
X019522Y016593D01*
X020743Y016593D01*
X020936Y016400D01*
X020936Y016093D01*
X021066Y015963D01*
X021668Y015963D01*
X022499Y015963D01*
X022506Y015971D01*
X022514Y015979D01*
X023038Y015979D01*
X023333Y015684D01*
X023357Y015684D01*
X023436Y015605D01*
X023550Y015605D01*
X023680Y015475D01*
X023754Y015475D01*
X023829Y015400D01*
X024062Y015400D01*
X024611Y015949D01*
X025656Y015949D01*
X027018Y016691D02*
X027018Y014983D01*
X026833Y014798D01*
X026833Y014632D01*
X026447Y014247D01*
X024050Y014247D01*
X023971Y014168D01*
X023345Y014168D01*
X023140Y013963D01*
X021447Y013963D01*
X018652Y015632D02*
X018636Y015617D01*
X017010Y015617D01*
X016977Y015650D01*
X016936Y015650D01*
X022506Y016719D02*
X022522Y016735D01*
X023522Y016735D01*
X023876Y016381D01*
X023876Y015949D01*
D38*
X015002Y003340D03*
D39*
X012660Y004314D03*
X018573Y007880D03*
X020117Y007971D03*
X019459Y006609D03*
X016963Y009014D03*
X018979Y009550D03*
X015743Y011156D03*
X015168Y010629D03*
X013684Y010436D03*
X014680Y012101D03*
X015617Y012538D03*
X017625Y012652D03*
X017629Y012121D03*
X019353Y013219D03*
X017467Y013625D03*
X015081Y015436D03*
X013581Y016160D03*
X011971Y016636D03*
X009317Y015495D03*
X011113Y014605D03*
X009632Y013503D03*
X007546Y014010D03*
X007274Y015506D03*
X004861Y016369D03*
X006404Y012538D03*
X007806Y012207D03*
X012286Y012144D03*
X018652Y015632D03*
X021447Y013963D03*
X021589Y012888D03*
X022459Y003314D03*
X006191Y006640D03*
M02*
