G75*
%MOIN*%
%OFA0B0*%
%FSLAX24Y24*%
%IPPOS*%
%LPD*%
%AMOC8*
5,1,8,0,0,1.08239X$1,22.5*
%
%ADD10C,0.0600*%
%ADD11C,0.0885*%
%ADD12C,0.0709*%
%ADD13C,0.0531*%
%ADD14C,0.0630*%
%ADD15C,0.0240*%
%ADD16C,0.0396*%
%ADD17C,0.0320*%
%ADD18C,0.0436*%
%ADD19R,0.0396X0.0396*%
%ADD20C,0.0120*%
%ADD21C,0.0100*%
%ADD22C,0.0080*%
D10*
X011266Y007904D03*
X012266Y007904D03*
X013266Y007904D03*
X014266Y007904D03*
X015266Y007904D03*
X016266Y007904D03*
X024621Y005180D03*
X025621Y005180D03*
X026621Y005180D03*
X027621Y005180D03*
X025656Y015949D03*
X023876Y015949D03*
D11*
X023386Y014969D03*
X026146Y014969D03*
D12*
X002392Y015499D03*
X002392Y016877D03*
X002392Y014121D03*
X002392Y012743D03*
X002392Y011365D03*
X002392Y009987D03*
X002392Y008609D03*
X002392Y007231D03*
X002392Y005853D03*
X002392Y004475D03*
X002392Y003097D03*
X002392Y001719D03*
D13*
X022317Y008038D03*
X023314Y008530D03*
X022310Y009030D03*
X023317Y009530D03*
X022302Y010010D03*
X023317Y010522D03*
X022302Y011026D03*
X023317Y007534D03*
D14*
X021093Y006609D03*
X020140Y006609D03*
D15*
X021471Y007503D02*
X021471Y008003D01*
X022471Y008003D01*
X022317Y008038D01*
X021471Y008003D02*
X021471Y010003D01*
X021471Y007503D02*
X024412Y006278D01*
X024621Y005180D01*
X022459Y003314D02*
X016203Y003314D01*
X014924Y004593D01*
X013125Y004593D01*
X012660Y004314D01*
X014924Y004593D02*
X015266Y004936D01*
X015266Y007904D01*
D16*
X021471Y010003D03*
X027971Y014503D03*
X016471Y004003D03*
D17*
X015002Y003340D02*
X013381Y001719D01*
X002392Y001719D01*
D18*
X015002Y003340D03*
D19*
X012660Y004314D03*
X018573Y007880D03*
X020117Y007971D03*
X019459Y006609D03*
X016963Y009014D03*
X018979Y009550D03*
X015743Y011156D03*
X015168Y010629D03*
X013684Y010436D03*
X014680Y012101D03*
X015617Y012538D03*
X017625Y012652D03*
X017629Y012121D03*
X019353Y013219D03*
X017467Y013625D03*
X015081Y015436D03*
X013581Y016160D03*
X011971Y016636D03*
X009317Y015495D03*
X011113Y014605D03*
X009632Y013503D03*
X007546Y014010D03*
X007274Y015506D03*
X004861Y016369D03*
X006404Y012538D03*
X007806Y012207D03*
X012286Y012144D03*
X018652Y015632D03*
X021447Y013963D03*
X021589Y012888D03*
X022459Y003314D03*
X006191Y006640D03*
D20*
X000731Y001263D02*
X000731Y017278D01*
X002038Y017278D01*
X001939Y017179D01*
X001858Y016983D01*
X001858Y016770D01*
X001939Y016574D01*
X002090Y016424D01*
X002116Y016413D01*
X002029Y016400D01*
X001998Y016400D01*
X001982Y016393D01*
X001965Y016391D01*
X001938Y016375D01*
X001910Y016363D01*
X001898Y016351D01*
X001882Y016342D01*
X001864Y016318D01*
X001291Y015745D01*
X001255Y015657D01*
X001255Y015268D01*
X001251Y015235D01*
X001255Y015221D01*
X001255Y015207D01*
X001268Y015175D01*
X001277Y015143D01*
X001286Y015132D01*
X001291Y015119D01*
X001315Y015095D01*
X001907Y014346D01*
X001858Y014227D01*
X001858Y014014D01*
X001939Y013818D01*
X002090Y013668D01*
X002286Y013586D01*
X002499Y013586D01*
X002695Y013668D01*
X002700Y013672D01*
X002700Y013191D01*
X002695Y013196D01*
X002499Y013277D01*
X002286Y013277D01*
X002090Y013196D01*
X001939Y013045D01*
X001858Y012849D01*
X001858Y012636D01*
X001939Y012440D01*
X002090Y012290D01*
X002286Y012208D01*
X002499Y012208D01*
X002695Y012290D01*
X002700Y012294D01*
X002700Y011813D01*
X002695Y011818D01*
X002499Y011899D01*
X002286Y011899D01*
X002090Y011818D01*
X001939Y011667D01*
X001858Y011471D01*
X001858Y011258D01*
X001939Y011062D01*
X002090Y010912D01*
X002286Y010830D01*
X002499Y010830D01*
X002695Y010912D01*
X002700Y010916D01*
X002700Y010435D01*
X002695Y010440D01*
X002499Y010521D01*
X002286Y010521D01*
X002090Y010440D01*
X001939Y010289D01*
X001858Y010093D01*
X001858Y009880D01*
X001939Y009684D01*
X002090Y009534D01*
X002286Y009452D01*
X002499Y009452D01*
X002695Y009534D01*
X002700Y009538D01*
X002700Y009057D01*
X002695Y009062D01*
X002499Y009143D01*
X002286Y009143D01*
X002090Y009062D01*
X001939Y008911D01*
X001858Y008715D01*
X001858Y008503D01*
X001939Y008306D01*
X002090Y008156D01*
X002286Y008074D01*
X002499Y008074D01*
X002695Y008156D01*
X002700Y008160D01*
X002700Y007679D01*
X002695Y007684D01*
X002499Y007765D01*
X002286Y007765D01*
X002090Y007684D01*
X001939Y007534D01*
X001858Y007337D01*
X001858Y007125D01*
X001939Y006928D01*
X002090Y006778D01*
X002286Y006697D01*
X002499Y006697D01*
X002695Y006778D01*
X002845Y006928D01*
X002927Y007125D01*
X002927Y007170D01*
X003143Y007386D01*
X003180Y007474D01*
X003180Y015832D01*
X003476Y016129D01*
X004483Y016129D01*
X004483Y016096D01*
X004588Y015991D01*
X005133Y015991D01*
X005239Y016096D01*
X005239Y016641D01*
X005198Y016682D01*
X011166Y016707D01*
X011281Y016525D01*
X011291Y016500D01*
X011306Y016486D01*
X011317Y016468D01*
X011340Y016452D01*
X011359Y016433D01*
X011378Y016425D01*
X011395Y016413D01*
X011422Y016407D01*
X011447Y016396D01*
X011468Y016396D01*
X011489Y016392D01*
X011515Y016396D01*
X011593Y016396D01*
X011593Y016364D01*
X011698Y016258D01*
X012244Y016258D01*
X012349Y016364D01*
X012349Y016909D01*
X012315Y016944D01*
X013184Y016944D01*
X013184Y016270D01*
X013203Y016223D01*
X013203Y015887D01*
X013309Y015782D01*
X013854Y015782D01*
X013959Y015887D01*
X013959Y016433D01*
X013854Y016538D01*
X013664Y016538D01*
X013664Y017153D01*
X013627Y017241D01*
X013590Y017278D01*
X028557Y017278D01*
X028557Y001263D01*
X002629Y001263D01*
X002662Y001279D01*
X002727Y001327D01*
X002785Y001384D01*
X002832Y001449D01*
X002869Y001522D01*
X002894Y001599D01*
X002904Y001661D01*
X002450Y001661D01*
X002450Y001777D01*
X002334Y001777D01*
X002334Y001661D01*
X001881Y001661D01*
X001891Y001599D01*
X001916Y001522D01*
X001952Y001449D01*
X002000Y001384D01*
X002057Y001327D01*
X002123Y001279D01*
X002155Y001263D01*
X000731Y001263D01*
X000731Y001358D02*
X002026Y001358D01*
X001939Y001477D02*
X000731Y001477D01*
X000731Y001595D02*
X001892Y001595D01*
X001881Y001777D02*
X002334Y001777D01*
X002334Y002231D01*
X002272Y002221D01*
X002195Y002196D01*
X002123Y002159D01*
X002057Y002111D01*
X002000Y002054D01*
X001952Y001989D01*
X001916Y001916D01*
X001891Y001839D01*
X001881Y001777D01*
X001889Y001832D02*
X000731Y001832D01*
X000731Y001714D02*
X002334Y001714D01*
X002450Y001714D02*
X028557Y001714D01*
X028557Y001832D02*
X002895Y001832D01*
X002894Y001839D02*
X002904Y001777D01*
X002450Y001777D01*
X002450Y002231D01*
X002513Y002221D01*
X002590Y002196D01*
X002662Y002159D01*
X002727Y002111D01*
X002785Y002054D01*
X002832Y001989D01*
X002869Y001916D01*
X002894Y001839D01*
X002852Y001951D02*
X028557Y001951D01*
X028557Y002069D02*
X002770Y002069D01*
X002606Y002188D02*
X028557Y002188D01*
X028557Y002306D02*
X000731Y002306D01*
X000731Y002188D02*
X002179Y002188D01*
X002334Y002188D02*
X002450Y002188D01*
X002450Y002069D02*
X002334Y002069D01*
X002334Y001951D02*
X002450Y001951D01*
X002450Y001832D02*
X002334Y001832D01*
X001933Y001951D02*
X000731Y001951D01*
X000731Y002069D02*
X002015Y002069D01*
X002286Y002563D02*
X002499Y002563D01*
X002695Y002644D01*
X002845Y002794D01*
X002927Y002991D01*
X002927Y003203D01*
X002845Y003400D01*
X002695Y003550D01*
X002499Y003631D01*
X002286Y003631D01*
X002090Y003550D01*
X001939Y003400D01*
X001858Y003203D01*
X001858Y002991D01*
X001939Y002794D01*
X002090Y002644D01*
X002286Y002563D01*
X002072Y002662D02*
X000731Y002662D01*
X000731Y002780D02*
X001954Y002780D01*
X001896Y002899D02*
X000731Y002899D01*
X000731Y003017D02*
X001858Y003017D01*
X001858Y003136D02*
X000731Y003136D01*
X000731Y003254D02*
X001879Y003254D01*
X001928Y003373D02*
X000731Y003373D01*
X000731Y003491D02*
X002031Y003491D01*
X002233Y003610D02*
X000731Y003610D01*
X000731Y003728D02*
X015365Y003728D01*
X015483Y003610D02*
X002551Y003610D01*
X002754Y003491D02*
X015602Y003491D01*
X015720Y003373D02*
X002857Y003373D01*
X002906Y003254D02*
X015839Y003254D01*
X015957Y003136D02*
X002927Y003136D01*
X002927Y003017D02*
X016135Y003017D01*
X016144Y003014D02*
X022108Y003014D01*
X022187Y002935D01*
X022732Y002935D01*
X022837Y003041D01*
X022837Y003586D01*
X022732Y003692D01*
X022187Y003692D01*
X022108Y003614D01*
X016328Y003614D01*
X016261Y003680D01*
X016396Y003624D01*
X016546Y003624D01*
X016685Y003682D01*
X016792Y003788D01*
X016849Y003927D01*
X016849Y004070D01*
X018562Y005783D01*
X019562Y005783D01*
X019937Y006157D01*
X020042Y006114D01*
X020239Y006114D01*
X020421Y006189D01*
X020560Y006328D01*
X020617Y006465D01*
X020673Y006328D01*
X020813Y006189D01*
X020995Y006114D01*
X021049Y006114D01*
X022751Y004411D01*
X022880Y004283D01*
X026062Y004283D01*
X026493Y004713D01*
X026525Y004700D01*
X026716Y004700D01*
X026893Y004773D01*
X027028Y004908D01*
X027101Y005084D01*
X027101Y005275D01*
X027028Y005452D01*
X026893Y005587D01*
X026716Y005660D01*
X026525Y005660D01*
X026349Y005587D01*
X026214Y005452D01*
X026141Y005275D01*
X026141Y005084D01*
X026170Y005013D01*
X025880Y004723D01*
X025771Y004723D01*
X025893Y004773D01*
X026028Y004908D01*
X026101Y005084D01*
X026101Y005275D01*
X026028Y005452D01*
X025893Y005587D01*
X025716Y005660D01*
X025525Y005660D01*
X025349Y005587D01*
X025214Y005452D01*
X025141Y005275D01*
X025141Y005084D01*
X025214Y004908D01*
X025349Y004773D01*
X025470Y004723D01*
X024771Y004723D01*
X024893Y004773D01*
X025028Y004908D01*
X025101Y005084D01*
X025101Y005275D01*
X025028Y005452D01*
X024893Y005587D01*
X024845Y005606D01*
X024712Y006306D01*
X024712Y006337D01*
X024701Y006364D01*
X024696Y006393D01*
X024678Y006419D01*
X024667Y006448D01*
X024646Y006468D01*
X024630Y006493D01*
X024604Y006510D01*
X024582Y006532D01*
X024555Y006543D01*
X024531Y006560D01*
X024501Y006566D01*
X023247Y007088D01*
X023406Y007088D01*
X023570Y007156D01*
X023695Y007282D01*
X023763Y007445D01*
X023763Y007623D01*
X023695Y007787D01*
X023570Y007912D01*
X023406Y007980D01*
X023229Y007980D01*
X023065Y007912D01*
X022940Y007787D01*
X022872Y007623D01*
X022872Y007445D01*
X022940Y007282D01*
X023052Y007169D01*
X021771Y007703D01*
X022023Y007703D01*
X022065Y007660D01*
X022229Y007592D01*
X022406Y007592D01*
X022570Y007660D01*
X022695Y007785D01*
X022707Y007815D01*
X022725Y007833D01*
X022735Y007856D01*
X022750Y007877D01*
X022758Y007911D01*
X022771Y007943D01*
X022771Y007968D01*
X022777Y007993D01*
X022771Y008027D01*
X022771Y008062D01*
X022763Y008081D01*
X022763Y008127D01*
X022695Y008290D01*
X022570Y008416D01*
X022406Y008484D01*
X022229Y008484D01*
X022065Y008416D01*
X021952Y008303D01*
X021771Y008303D01*
X021771Y009768D01*
X021792Y009788D01*
X021849Y009927D01*
X021849Y010078D01*
X021792Y010217D01*
X021685Y010323D01*
X021546Y010381D01*
X021396Y010381D01*
X021257Y010323D01*
X021150Y010217D01*
X021093Y010078D01*
X021093Y009927D01*
X021150Y009788D01*
X021171Y009768D01*
X021171Y007503D01*
X021171Y007443D01*
X021171Y007443D01*
X021171Y007443D01*
X021194Y007388D01*
X021216Y007333D01*
X021217Y007333D01*
X021217Y007333D01*
X021259Y007290D01*
X021301Y007248D01*
X021356Y007225D01*
X024147Y006063D01*
X024256Y005494D01*
X024214Y005452D01*
X024141Y005275D01*
X024141Y005084D01*
X024214Y004908D01*
X024349Y004773D01*
X024470Y004723D01*
X023062Y004723D01*
X021484Y006300D01*
X021513Y006328D01*
X021588Y006510D01*
X021588Y006707D01*
X021513Y006889D01*
X021373Y007028D01*
X021192Y007104D01*
X020995Y007104D01*
X020813Y007028D01*
X020673Y006889D01*
X020617Y006752D01*
X020560Y006889D01*
X020421Y007028D01*
X020239Y007104D01*
X020042Y007104D01*
X019860Y007028D01*
X019721Y006889D01*
X019645Y006707D01*
X019645Y006510D01*
X019652Y006495D01*
X019380Y006223D01*
X018380Y006223D01*
X018251Y006094D01*
X016538Y004381D01*
X016396Y004381D01*
X016257Y004323D01*
X016150Y004217D01*
X016093Y004078D01*
X016093Y003927D01*
X016149Y003792D01*
X015348Y004593D01*
X015521Y004766D01*
X015566Y004876D01*
X015566Y007525D01*
X015673Y007632D01*
X015746Y007809D01*
X015746Y008000D01*
X015673Y008176D01*
X015538Y008311D01*
X015362Y008384D01*
X015171Y008384D01*
X014994Y008311D01*
X014859Y008176D01*
X014786Y008000D01*
X014786Y007809D01*
X014859Y007632D01*
X014966Y007525D01*
X014966Y005060D01*
X014800Y004893D01*
X013161Y004893D01*
X013139Y004899D01*
X013102Y004893D01*
X013069Y004893D01*
X013069Y005578D01*
X013033Y005666D01*
X012965Y005734D01*
X011855Y006844D01*
X011767Y006880D01*
X006570Y006880D01*
X006570Y006913D01*
X006464Y007018D01*
X005919Y007018D01*
X005813Y006913D01*
X005813Y006368D01*
X005919Y006262D01*
X006464Y006262D01*
X006570Y006368D01*
X006570Y006400D01*
X011620Y006400D01*
X012589Y005431D01*
X012589Y004692D01*
X012387Y004692D01*
X012282Y004586D01*
X012282Y004041D01*
X012387Y003935D01*
X012933Y003935D01*
X013038Y004041D01*
X013038Y004191D01*
X013208Y004293D01*
X014800Y004293D01*
X016033Y003059D01*
X016144Y003014D01*
X016126Y003847D02*
X016095Y003847D01*
X016093Y003965D02*
X015976Y003965D01*
X015858Y004084D02*
X016095Y004084D01*
X016144Y004202D02*
X015739Y004202D01*
X015621Y004321D02*
X016254Y004321D01*
X016596Y004439D02*
X015502Y004439D01*
X015384Y004558D02*
X016715Y004558D01*
X016833Y004676D02*
X015431Y004676D01*
X015533Y004795D02*
X016952Y004795D01*
X017070Y004913D02*
X015566Y004913D01*
X015566Y005032D02*
X017189Y005032D01*
X017307Y005150D02*
X015566Y005150D01*
X015566Y005269D02*
X017426Y005269D01*
X017544Y005387D02*
X015566Y005387D01*
X015566Y005506D02*
X017663Y005506D01*
X017781Y005624D02*
X015566Y005624D01*
X015566Y005743D02*
X017900Y005743D01*
X018018Y005861D02*
X015566Y005861D01*
X015566Y005980D02*
X018137Y005980D01*
X018255Y006098D02*
X015566Y006098D01*
X015566Y006217D02*
X018374Y006217D01*
X018522Y005743D02*
X021420Y005743D01*
X021301Y005861D02*
X019641Y005861D01*
X019759Y005980D02*
X021183Y005980D01*
X021064Y006098D02*
X019878Y006098D01*
X019492Y006335D02*
X015566Y006335D01*
X015566Y006454D02*
X019611Y006454D01*
X019645Y006572D02*
X015566Y006572D01*
X015566Y006691D02*
X019645Y006691D01*
X019687Y006809D02*
X015566Y006809D01*
X015566Y006928D02*
X019759Y006928D01*
X019902Y007046D02*
X015566Y007046D01*
X015566Y007165D02*
X021502Y007165D01*
X021331Y007046D02*
X021787Y007046D01*
X022072Y006928D02*
X021474Y006928D01*
X021546Y006809D02*
X022356Y006809D01*
X022641Y006691D02*
X021588Y006691D01*
X021588Y006572D02*
X022925Y006572D01*
X023210Y006454D02*
X021565Y006454D01*
X021515Y006335D02*
X023495Y006335D01*
X023779Y006217D02*
X021568Y006217D01*
X021687Y006098D02*
X024064Y006098D01*
X024163Y005980D02*
X021805Y005980D01*
X021924Y005861D02*
X024186Y005861D01*
X024208Y005743D02*
X022042Y005743D01*
X022161Y005624D02*
X024231Y005624D01*
X024253Y005506D02*
X022279Y005506D01*
X022398Y005387D02*
X024187Y005387D01*
X024141Y005269D02*
X022516Y005269D01*
X022635Y005150D02*
X024141Y005150D01*
X024162Y005032D02*
X022753Y005032D01*
X022872Y004913D02*
X024212Y004913D01*
X024327Y004795D02*
X022990Y004795D01*
X022486Y004676D02*
X017456Y004676D01*
X017574Y004795D02*
X022368Y004795D01*
X022249Y004913D02*
X017693Y004913D01*
X017811Y005032D02*
X022131Y005032D01*
X022012Y005150D02*
X017930Y005150D01*
X018048Y005269D02*
X021894Y005269D01*
X021775Y005387D02*
X018167Y005387D01*
X018285Y005506D02*
X021657Y005506D01*
X021538Y005624D02*
X018404Y005624D01*
X017337Y004558D02*
X022605Y004558D01*
X022723Y004439D02*
X017219Y004439D01*
X017100Y004321D02*
X022842Y004321D01*
X022814Y003610D02*
X028557Y003610D01*
X028557Y003728D02*
X016731Y003728D01*
X016816Y003847D02*
X028557Y003847D01*
X028557Y003965D02*
X016849Y003965D01*
X016863Y004084D02*
X028557Y004084D01*
X028557Y004202D02*
X016982Y004202D01*
X015246Y003847D02*
X000731Y003847D01*
X000731Y003965D02*
X002227Y003965D01*
X002286Y003941D02*
X002499Y003941D01*
X002695Y004022D01*
X002845Y004172D01*
X002927Y004369D01*
X002927Y004581D01*
X002845Y004778D01*
X002695Y004928D01*
X002499Y005009D01*
X002286Y005009D01*
X002090Y004928D01*
X001939Y004778D01*
X001858Y004581D01*
X001858Y004369D01*
X001939Y004172D01*
X002090Y004022D01*
X002286Y003941D01*
X002557Y003965D02*
X012358Y003965D01*
X012282Y004084D02*
X002757Y004084D01*
X002858Y004202D02*
X012282Y004202D01*
X012282Y004321D02*
X002907Y004321D01*
X002927Y004439D02*
X012282Y004439D01*
X012282Y004558D02*
X002927Y004558D01*
X002887Y004676D02*
X012372Y004676D01*
X012589Y004795D02*
X002828Y004795D01*
X002710Y004913D02*
X012589Y004913D01*
X012589Y005032D02*
X000731Y005032D01*
X000731Y005150D02*
X012589Y005150D01*
X012589Y005269D02*
X000731Y005269D01*
X000731Y005387D02*
X002121Y005387D01*
X002090Y005400D02*
X002286Y005319D01*
X002499Y005319D01*
X002695Y005400D01*
X002845Y005550D01*
X002927Y005747D01*
X002927Y005959D01*
X002845Y006156D01*
X002695Y006306D01*
X002499Y006387D01*
X002286Y006387D01*
X002090Y006306D01*
X001939Y006156D01*
X001858Y005959D01*
X001858Y005747D01*
X001939Y005550D01*
X002090Y005400D01*
X001984Y005506D02*
X000731Y005506D01*
X000731Y005624D02*
X001909Y005624D01*
X001860Y005743D02*
X000731Y005743D01*
X000731Y005861D02*
X001858Y005861D01*
X001866Y005980D02*
X000731Y005980D01*
X000731Y006098D02*
X001915Y006098D01*
X002000Y006217D02*
X000731Y006217D01*
X000731Y006335D02*
X002160Y006335D01*
X002625Y006335D02*
X005846Y006335D01*
X005813Y006454D02*
X000731Y006454D01*
X000731Y006572D02*
X005813Y006572D01*
X005813Y006691D02*
X000731Y006691D01*
X000731Y006809D02*
X002058Y006809D01*
X001940Y006928D02*
X000731Y006928D01*
X000731Y007046D02*
X001890Y007046D01*
X001858Y007165D02*
X000731Y007165D01*
X000731Y007283D02*
X001858Y007283D01*
X001885Y007402D02*
X000731Y007402D01*
X000731Y007520D02*
X001934Y007520D01*
X002044Y007639D02*
X000731Y007639D01*
X000731Y007757D02*
X002266Y007757D01*
X002518Y007757D02*
X002700Y007757D01*
X002700Y007876D02*
X000731Y007876D01*
X000731Y007994D02*
X002700Y007994D01*
X002700Y008113D02*
X002590Y008113D01*
X002194Y008113D02*
X000731Y008113D01*
X000731Y008231D02*
X002014Y008231D01*
X001921Y008350D02*
X000731Y008350D01*
X000731Y008468D02*
X001872Y008468D01*
X001858Y008587D02*
X000731Y008587D01*
X000731Y008705D02*
X001858Y008705D01*
X001903Y008824D02*
X000731Y008824D01*
X000731Y008942D02*
X001970Y008942D01*
X002088Y009061D02*
X000731Y009061D01*
X000731Y009179D02*
X002700Y009179D01*
X002696Y009061D02*
X002700Y009061D01*
X002700Y009298D02*
X000731Y009298D01*
X000731Y009416D02*
X002700Y009416D01*
X002696Y009535D02*
X002700Y009535D01*
X003180Y009535D02*
X012007Y009535D01*
X012003Y009545D02*
X012039Y009457D01*
X012107Y009390D01*
X012618Y008878D01*
X012685Y008811D01*
X012774Y008774D01*
X016585Y008774D01*
X016585Y008742D01*
X016690Y008636D01*
X017236Y008636D01*
X017341Y008742D01*
X017341Y009287D01*
X017318Y009310D01*
X018601Y009310D01*
X018601Y009277D01*
X018706Y009172D01*
X019252Y009172D01*
X019357Y009277D01*
X019357Y009822D01*
X019252Y009928D01*
X018706Y009928D01*
X018601Y009822D01*
X018601Y009790D01*
X014669Y009790D01*
X014062Y010397D01*
X014062Y010431D01*
X014067Y010425D01*
X014156Y010389D01*
X014790Y010389D01*
X014790Y010356D01*
X014895Y010250D01*
X015441Y010250D01*
X015546Y010356D01*
X015546Y010778D01*
X016015Y010778D01*
X016121Y010883D01*
X016121Y011429D01*
X016015Y011534D01*
X015470Y011534D01*
X015365Y011429D01*
X015365Y011396D01*
X014196Y011396D01*
X013986Y011607D01*
X013918Y011674D01*
X013830Y011711D01*
X013637Y011711D01*
X013550Y011799D01*
X013550Y012546D01*
X013513Y012635D01*
X013178Y012969D01*
X013111Y013037D01*
X013023Y013073D01*
X012846Y013073D01*
X012844Y013075D01*
X012776Y013143D01*
X012688Y013180D01*
X011746Y013180D01*
X011658Y013143D01*
X011256Y012741D01*
X011189Y012674D01*
X011152Y012586D01*
X011152Y012582D01*
X010965Y012395D01*
X010897Y012327D01*
X010861Y012239D01*
X010861Y012014D01*
X008184Y012014D01*
X008184Y012480D01*
X008078Y012585D01*
X008043Y012585D01*
X008034Y013763D01*
X008034Y013810D01*
X008033Y013811D01*
X008033Y013812D01*
X008015Y013855D01*
X007997Y013898D01*
X007997Y013899D01*
X007996Y013900D01*
X007963Y013933D01*
X007924Y013972D01*
X007924Y014283D01*
X007818Y014389D01*
X007306Y014389D01*
X007306Y015128D01*
X007547Y015128D01*
X007652Y015234D01*
X007652Y015779D01*
X007547Y015885D01*
X007002Y015885D01*
X006896Y015779D01*
X006896Y015468D01*
X006862Y015434D01*
X006826Y015346D01*
X006826Y012803D01*
X006822Y012769D01*
X006826Y012756D01*
X006826Y012742D01*
X006839Y012710D01*
X006840Y012707D01*
X006782Y012707D01*
X006782Y012811D01*
X006677Y012916D01*
X006131Y012916D01*
X006026Y012811D01*
X006026Y012265D01*
X006131Y012160D01*
X006677Y012160D01*
X006744Y012227D01*
X006765Y012227D01*
X006920Y012072D01*
X006920Y011683D01*
X006957Y011595D01*
X007024Y011527D01*
X007347Y011205D01*
X007435Y011168D01*
X011440Y011168D01*
X011528Y011205D01*
X011596Y011272D01*
X011797Y011473D01*
X011833Y011561D01*
X011833Y012104D01*
X011908Y012179D01*
X011908Y011872D01*
X012003Y011777D01*
X012003Y009545D01*
X012003Y009653D02*
X003180Y009653D01*
X003180Y009772D02*
X012003Y009772D01*
X012003Y009890D02*
X003180Y009890D01*
X003180Y010009D02*
X012003Y010009D01*
X012003Y010127D02*
X003180Y010127D01*
X003180Y010246D02*
X012003Y010246D01*
X012003Y010364D02*
X003180Y010364D01*
X003180Y010483D02*
X012003Y010483D01*
X012003Y010601D02*
X003180Y010601D01*
X003180Y010720D02*
X012003Y010720D01*
X012003Y010838D02*
X003180Y010838D01*
X003180Y010957D02*
X012003Y010957D01*
X012003Y011075D02*
X003180Y011075D01*
X003180Y011194D02*
X007374Y011194D01*
X007239Y011312D02*
X003180Y011312D01*
X003180Y011431D02*
X007121Y011431D01*
X007002Y011549D02*
X003180Y011549D01*
X003180Y011668D02*
X006926Y011668D01*
X006920Y011786D02*
X003180Y011786D01*
X003180Y011905D02*
X006920Y011905D01*
X006920Y012023D02*
X003180Y012023D01*
X003180Y012142D02*
X006851Y012142D01*
X007160Y012172D02*
X006865Y012467D01*
X006475Y012467D01*
X006404Y012538D01*
X006026Y012497D02*
X003180Y012497D01*
X003180Y012379D02*
X006026Y012379D01*
X006031Y012260D02*
X003180Y012260D01*
X002700Y012260D02*
X002623Y012260D01*
X002700Y012142D02*
X000731Y012142D01*
X000731Y012260D02*
X002161Y012260D01*
X002001Y012379D02*
X000731Y012379D01*
X000731Y012497D02*
X001916Y012497D01*
X001867Y012616D02*
X000731Y012616D01*
X000731Y012734D02*
X001858Y012734D01*
X001859Y012853D02*
X000731Y012853D01*
X000731Y012971D02*
X001909Y012971D01*
X001983Y013090D02*
X000731Y013090D01*
X000731Y013208D02*
X002120Y013208D01*
X002665Y013208D02*
X002700Y013208D01*
X002700Y013327D02*
X000731Y013327D01*
X000731Y013445D02*
X002700Y013445D01*
X002700Y013564D02*
X000731Y013564D01*
X000731Y013682D02*
X002075Y013682D01*
X001957Y013801D02*
X000731Y013801D01*
X000731Y013919D02*
X001897Y013919D01*
X001858Y014038D02*
X000731Y014038D01*
X000731Y014156D02*
X001858Y014156D01*
X001878Y014275D02*
X000731Y014275D01*
X000731Y014393D02*
X001871Y014393D01*
X001777Y014512D02*
X000731Y014512D01*
X000731Y014630D02*
X001683Y014630D01*
X001589Y014749D02*
X000731Y014749D01*
X000731Y014867D02*
X001495Y014867D01*
X001401Y014986D02*
X000731Y014986D01*
X000731Y015104D02*
X001306Y015104D01*
X001254Y015223D02*
X000731Y015223D01*
X000731Y015341D02*
X001255Y015341D01*
X001255Y015460D02*
X000731Y015460D01*
X000731Y015578D02*
X001255Y015578D01*
X001271Y015697D02*
X000731Y015697D01*
X000731Y015815D02*
X001361Y015815D01*
X001480Y015934D02*
X000731Y015934D01*
X000731Y016052D02*
X001598Y016052D01*
X001717Y016171D02*
X000731Y016171D01*
X000731Y016289D02*
X001835Y016289D01*
X002046Y016160D02*
X002597Y016239D01*
X003503Y017184D01*
X013345Y017184D01*
X013424Y017105D01*
X013424Y016317D01*
X013581Y016160D01*
X013959Y016171D02*
X023473Y016171D01*
X023483Y016190D02*
X023450Y016126D01*
X023428Y016057D01*
X023417Y015989D01*
X023836Y015989D01*
X023836Y015909D01*
X023417Y015909D01*
X023428Y015841D01*
X023450Y015773D01*
X023483Y015708D01*
X023525Y015650D01*
X023577Y015598D01*
X023635Y015556D01*
X023700Y015523D01*
X023769Y015501D01*
X023836Y015490D01*
X023836Y015909D01*
X023916Y015909D01*
X023916Y015490D01*
X023984Y015501D01*
X024053Y015523D01*
X024117Y015556D01*
X024176Y015598D01*
X024227Y015650D01*
X024270Y015708D01*
X024303Y015773D01*
X024325Y015841D01*
X024336Y015909D01*
X023916Y015909D01*
X023916Y015989D01*
X023836Y015989D01*
X023836Y016409D01*
X023769Y016398D01*
X023700Y016376D01*
X023635Y016343D01*
X023577Y016300D01*
X023525Y016249D01*
X023483Y016190D01*
X023566Y016289D02*
X013959Y016289D01*
X013959Y016408D02*
X023830Y016408D01*
X023836Y016408D02*
X023916Y016408D01*
X023916Y016409D02*
X023984Y016398D01*
X024053Y016376D01*
X024117Y016343D01*
X024176Y016300D01*
X024227Y016249D01*
X024270Y016190D01*
X024303Y016126D01*
X024325Y016057D01*
X024336Y015989D01*
X023916Y015989D01*
X023916Y016409D01*
X023923Y016408D02*
X025509Y016408D01*
X025561Y016429D02*
X025384Y016356D01*
X025249Y016221D01*
X025176Y016045D01*
X025176Y015854D01*
X025249Y015677D01*
X025384Y015542D01*
X025561Y015469D01*
X025752Y015469D01*
X025776Y015479D01*
X025619Y015322D01*
X025524Y015093D01*
X025524Y014845D01*
X025619Y014617D01*
X025794Y014441D01*
X026022Y014347D01*
X026270Y014347D01*
X026499Y014441D01*
X026674Y014617D01*
X026769Y014845D01*
X026769Y015093D01*
X026674Y015322D01*
X026499Y015497D01*
X026270Y015592D01*
X026022Y015592D01*
X025946Y015560D01*
X026063Y015677D01*
X026136Y015854D01*
X026136Y016045D01*
X026063Y016221D01*
X025928Y016356D01*
X025752Y016429D01*
X025561Y016429D01*
X025804Y016408D02*
X028557Y016408D01*
X028557Y016526D02*
X013866Y016526D01*
X013664Y016645D02*
X028557Y016645D01*
X028557Y016763D02*
X013664Y016763D01*
X013664Y016882D02*
X028557Y016882D01*
X028557Y017000D02*
X013664Y017000D01*
X013664Y017119D02*
X028557Y017119D01*
X028557Y017237D02*
X013629Y017237D01*
X013184Y016882D02*
X012349Y016882D01*
X012349Y016763D02*
X013184Y016763D01*
X013184Y016645D02*
X012349Y016645D01*
X012349Y016526D02*
X013184Y016526D01*
X013184Y016408D02*
X012349Y016408D01*
X012274Y016289D02*
X013184Y016289D01*
X013203Y016171D02*
X005239Y016171D01*
X005239Y016289D02*
X011668Y016289D01*
X011418Y016408D02*
X005239Y016408D01*
X005239Y016526D02*
X011280Y016526D01*
X011205Y016645D02*
X005236Y016645D01*
X004861Y016369D02*
X003377Y016369D01*
X002940Y015932D01*
X002940Y007522D01*
X002648Y007231D01*
X002392Y007231D01*
X002894Y007046D02*
X014966Y007046D01*
X014966Y006928D02*
X006555Y006928D01*
X006191Y006640D02*
X011719Y006640D01*
X012829Y005530D01*
X012829Y004483D01*
X012660Y004314D01*
X013057Y004202D02*
X014891Y004202D01*
X015009Y004084D02*
X013038Y004084D01*
X012962Y003965D02*
X015128Y003965D01*
X014819Y004913D02*
X013069Y004913D01*
X013069Y005032D02*
X014938Y005032D01*
X014966Y005150D02*
X013069Y005150D01*
X013069Y005269D02*
X014966Y005269D01*
X014966Y005387D02*
X013069Y005387D01*
X013069Y005506D02*
X014966Y005506D01*
X014966Y005624D02*
X013050Y005624D01*
X012956Y005743D02*
X014966Y005743D01*
X014966Y005861D02*
X012838Y005861D01*
X012719Y005980D02*
X014966Y005980D01*
X014966Y006098D02*
X012601Y006098D01*
X012482Y006217D02*
X014966Y006217D01*
X014966Y006335D02*
X012364Y006335D01*
X012245Y006454D02*
X014966Y006454D01*
X014966Y006572D02*
X012127Y006572D01*
X012008Y006691D02*
X014966Y006691D01*
X014966Y006809D02*
X011890Y006809D01*
X011685Y006335D02*
X006537Y006335D01*
X005813Y006809D02*
X002726Y006809D01*
X002845Y006928D02*
X005828Y006928D01*
X003180Y007520D02*
X010972Y007520D01*
X010994Y007497D02*
X011171Y007424D01*
X011362Y007424D01*
X011538Y007497D01*
X011673Y007632D01*
X011746Y007809D01*
X011746Y008000D01*
X011673Y008176D01*
X011538Y008311D01*
X011362Y008384D01*
X011171Y008384D01*
X010994Y008311D01*
X010859Y008176D01*
X010786Y008000D01*
X010786Y007809D01*
X010859Y007632D01*
X010994Y007497D01*
X010857Y007639D02*
X003180Y007639D01*
X003180Y007757D02*
X010808Y007757D01*
X010786Y007876D02*
X003180Y007876D01*
X003180Y007994D02*
X010786Y007994D01*
X010833Y008113D02*
X003180Y008113D01*
X003180Y008231D02*
X010914Y008231D01*
X011087Y008350D02*
X003180Y008350D01*
X003180Y008468D02*
X021171Y008468D01*
X021171Y008350D02*
X016445Y008350D01*
X016362Y008384D02*
X016171Y008384D01*
X015994Y008311D01*
X015859Y008176D01*
X015786Y008000D01*
X015786Y007809D01*
X015859Y007632D01*
X015994Y007497D01*
X016171Y007424D01*
X016362Y007424D01*
X016538Y007497D01*
X016673Y007632D01*
X016746Y007809D01*
X016746Y008000D01*
X016673Y008176D01*
X016538Y008311D01*
X016362Y008384D01*
X016087Y008350D02*
X015445Y008350D01*
X015618Y008231D02*
X015914Y008231D01*
X015833Y008113D02*
X015700Y008113D01*
X015746Y007994D02*
X015786Y007994D01*
X015786Y007876D02*
X015746Y007876D01*
X015725Y007757D02*
X015808Y007757D01*
X015857Y007639D02*
X015676Y007639D01*
X015566Y007520D02*
X015972Y007520D01*
X015566Y007402D02*
X021188Y007402D01*
X021171Y007520D02*
X016561Y007520D01*
X016676Y007639D02*
X021171Y007639D01*
X021171Y007757D02*
X016725Y007757D01*
X016746Y007876D02*
X021171Y007876D01*
X021171Y007994D02*
X016746Y007994D01*
X016700Y008113D02*
X021171Y008113D01*
X021171Y008231D02*
X016618Y008231D01*
X016622Y008705D02*
X003180Y008705D01*
X003180Y008587D02*
X021171Y008587D01*
X021171Y008705D02*
X017305Y008705D01*
X017341Y008824D02*
X021171Y008824D01*
X021171Y008942D02*
X017341Y008942D01*
X017341Y009061D02*
X021171Y009061D01*
X021171Y009179D02*
X019259Y009179D01*
X019357Y009298D02*
X021171Y009298D01*
X021171Y009416D02*
X019357Y009416D01*
X019357Y009535D02*
X021171Y009535D01*
X021171Y009653D02*
X019357Y009653D01*
X019357Y009772D02*
X021167Y009772D01*
X021108Y009890D02*
X019289Y009890D01*
X018979Y009550D02*
X014569Y009550D01*
X013684Y010436D01*
X014095Y010364D02*
X014790Y010364D01*
X015168Y010629D02*
X014203Y010629D01*
X013845Y010987D01*
X012924Y010987D01*
X012817Y011093D01*
X012817Y012424D01*
X012691Y012550D01*
X011940Y012550D01*
X011593Y012203D01*
X011593Y011609D01*
X011392Y011408D01*
X007483Y011408D01*
X007160Y011731D01*
X007160Y012172D01*
X007396Y012377D02*
X007066Y012790D01*
X007066Y015298D01*
X007274Y015506D01*
X007652Y015460D02*
X008939Y015460D01*
X008939Y015578D02*
X007652Y015578D01*
X007652Y015697D02*
X008939Y015697D01*
X008939Y015767D02*
X008939Y015222D01*
X009045Y015117D01*
X009590Y015117D01*
X009669Y015196D01*
X014703Y015196D01*
X014703Y015163D01*
X014809Y015057D01*
X015354Y015057D01*
X015459Y015163D01*
X015459Y015708D01*
X015354Y015814D01*
X014809Y015814D01*
X014703Y015708D01*
X014703Y015676D01*
X009696Y015676D01*
X009696Y015767D01*
X009590Y015873D01*
X009045Y015873D01*
X008939Y015767D01*
X008987Y015815D02*
X007616Y015815D01*
X006932Y015815D02*
X003180Y015815D01*
X003180Y015697D02*
X006896Y015697D01*
X006896Y015578D02*
X003180Y015578D01*
X003180Y015460D02*
X006888Y015460D01*
X006826Y015341D02*
X003180Y015341D01*
X003180Y015223D02*
X006826Y015223D01*
X006826Y015104D02*
X003180Y015104D01*
X003180Y014986D02*
X006826Y014986D01*
X006826Y014867D02*
X003180Y014867D01*
X003180Y014749D02*
X006826Y014749D01*
X006826Y014630D02*
X003180Y014630D01*
X003180Y014512D02*
X006826Y014512D01*
X006826Y014393D02*
X003180Y014393D01*
X003180Y014275D02*
X006826Y014275D01*
X006826Y014156D02*
X003180Y014156D01*
X003180Y014038D02*
X006826Y014038D01*
X006826Y013919D02*
X003180Y013919D01*
X003180Y013801D02*
X006826Y013801D01*
X006826Y013682D02*
X003180Y013682D01*
X003180Y013564D02*
X006826Y013564D01*
X006826Y013445D02*
X003180Y013445D01*
X003180Y013327D02*
X006826Y013327D01*
X006826Y013208D02*
X003180Y013208D01*
X003180Y013090D02*
X006826Y013090D01*
X006826Y012971D02*
X003180Y012971D01*
X003180Y012853D02*
X006068Y012853D01*
X006026Y012734D02*
X003180Y012734D01*
X003180Y012616D02*
X006026Y012616D01*
X006740Y012853D02*
X006826Y012853D01*
X006829Y012734D02*
X006782Y012734D01*
X007396Y012377D02*
X007396Y011924D01*
X007629Y011774D01*
X011038Y011774D01*
X011101Y011837D01*
X011101Y012191D01*
X011392Y012483D01*
X011392Y012538D01*
X011794Y012940D01*
X012640Y012940D01*
X012747Y012833D01*
X012975Y012833D01*
X013310Y012499D01*
X013310Y011699D01*
X013538Y011471D01*
X013782Y011471D01*
X014097Y011156D01*
X015743Y011156D01*
X016121Y011194D02*
X021909Y011194D01*
X021907Y011190D02*
X021886Y011126D01*
X021876Y011060D01*
X021876Y011055D01*
X022273Y011055D01*
X022273Y011452D01*
X022268Y011452D01*
X022202Y011441D01*
X022138Y011421D01*
X022079Y011390D01*
X022024Y011351D01*
X021977Y011303D01*
X021938Y011249D01*
X021907Y011190D01*
X021878Y011075D02*
X016121Y011075D01*
X016121Y010957D02*
X021882Y010957D01*
X021886Y010926D02*
X021907Y010863D01*
X021938Y010803D01*
X021977Y010749D01*
X022024Y010701D01*
X022079Y010662D01*
X022138Y010632D01*
X022202Y010611D01*
X022268Y010600D01*
X022273Y010600D01*
X022273Y010998D01*
X021876Y010998D01*
X021876Y010993D01*
X021886Y010926D01*
X021920Y010838D02*
X016075Y010838D01*
X016121Y011312D02*
X021986Y011312D01*
X022169Y011431D02*
X016119Y011431D01*
X015366Y011431D02*
X014162Y011431D01*
X014043Y011549D02*
X024908Y011549D01*
X024908Y011431D02*
X022435Y011431D01*
X022465Y011421D02*
X022401Y011441D01*
X022335Y011452D01*
X022330Y011452D01*
X022330Y011055D01*
X022273Y011055D01*
X022273Y010998D01*
X022330Y010998D01*
X022330Y011055D01*
X022727Y011055D01*
X022727Y011060D01*
X022717Y011126D01*
X022696Y011190D01*
X022666Y011249D01*
X022626Y011303D01*
X022579Y011351D01*
X022525Y011390D01*
X022465Y011421D01*
X022330Y011431D02*
X022273Y011431D01*
X022273Y011312D02*
X022330Y011312D01*
X022330Y011194D02*
X022273Y011194D01*
X022273Y011075D02*
X022330Y011075D01*
X022330Y010998D02*
X022727Y010998D01*
X022727Y010993D01*
X022717Y010926D01*
X022696Y010863D01*
X022666Y010803D01*
X022626Y010749D01*
X022579Y010701D01*
X022525Y010662D01*
X022465Y010632D01*
X022401Y010611D01*
X022335Y010600D01*
X022330Y010600D01*
X022330Y010998D01*
X022330Y010957D02*
X022273Y010957D01*
X022273Y010838D02*
X022330Y010838D01*
X022330Y010720D02*
X022273Y010720D01*
X022273Y010601D02*
X022330Y010601D01*
X022339Y010601D02*
X022899Y010601D01*
X022902Y010622D02*
X022892Y010556D01*
X022892Y010551D01*
X023289Y010551D01*
X023289Y010948D01*
X023284Y010948D01*
X023218Y010937D01*
X023154Y010917D01*
X023094Y010886D01*
X023040Y010847D01*
X022993Y010800D01*
X022953Y010745D01*
X022923Y010686D01*
X022902Y010622D01*
X022940Y010720D02*
X022597Y010720D01*
X022684Y010838D02*
X023031Y010838D01*
X023289Y010838D02*
X023346Y010838D01*
X023346Y010948D02*
X023346Y010551D01*
X023289Y010551D01*
X023289Y010494D01*
X022892Y010494D01*
X022892Y010489D01*
X022902Y010423D01*
X022923Y010359D01*
X022953Y010299D01*
X022993Y010245D01*
X023040Y010197D01*
X023094Y010158D01*
X023154Y010128D01*
X023218Y010107D01*
X023284Y010096D01*
X023289Y010096D01*
X023289Y010494D01*
X023346Y010494D01*
X023346Y010551D01*
X023743Y010551D01*
X023743Y010556D01*
X023733Y010622D01*
X023712Y010686D01*
X023682Y010745D01*
X023642Y010800D01*
X023595Y010847D01*
X023541Y010886D01*
X023481Y010917D01*
X023417Y010937D01*
X023351Y010948D01*
X023346Y010948D01*
X023346Y010720D02*
X023289Y010720D01*
X023289Y010601D02*
X023346Y010601D01*
X023346Y010494D02*
X023743Y010494D01*
X023743Y010489D01*
X023733Y010423D01*
X023712Y010359D01*
X023682Y010299D01*
X023642Y010245D01*
X023595Y010197D01*
X023541Y010158D01*
X023481Y010128D01*
X023417Y010107D01*
X023351Y010096D01*
X023346Y010096D01*
X023346Y010494D01*
X023346Y010483D02*
X023289Y010483D01*
X023289Y010364D02*
X023346Y010364D01*
X023346Y010246D02*
X023289Y010246D01*
X023289Y010127D02*
X023346Y010127D01*
X023479Y010127D02*
X028557Y010127D01*
X028557Y010009D02*
X022330Y010009D01*
X022330Y009982D02*
X022330Y010039D01*
X022273Y010039D01*
X022273Y009982D01*
X021876Y009982D01*
X021876Y009977D01*
X021886Y009911D01*
X021907Y009847D01*
X021938Y009787D01*
X021977Y009733D01*
X022024Y009686D01*
X022079Y009646D01*
X022138Y009616D01*
X022202Y009595D01*
X022268Y009585D01*
X022273Y009585D01*
X022273Y009982D01*
X022330Y009982D01*
X022330Y009585D01*
X022335Y009585D01*
X022401Y009595D01*
X022465Y009616D01*
X022525Y009646D01*
X022579Y009686D01*
X022626Y009733D01*
X022666Y009787D01*
X022696Y009847D01*
X022717Y009911D01*
X022727Y009977D01*
X022727Y009982D01*
X022330Y009982D01*
X022330Y010039D02*
X022727Y010039D01*
X022727Y010044D01*
X022717Y010110D01*
X022696Y010174D01*
X022666Y010234D01*
X022626Y010288D01*
X022579Y010335D01*
X022525Y010375D01*
X022465Y010405D01*
X022401Y010426D01*
X022335Y010436D01*
X022330Y010436D01*
X022330Y010039D01*
X022273Y010039D02*
X022273Y010436D01*
X022268Y010436D01*
X022202Y010426D01*
X022138Y010405D01*
X022079Y010375D01*
X022024Y010335D01*
X021977Y010288D01*
X021938Y010234D01*
X021907Y010174D01*
X021886Y010110D01*
X021876Y010044D01*
X021876Y010039D01*
X022273Y010039D01*
X022273Y010009D02*
X021849Y010009D01*
X021829Y010127D02*
X021892Y010127D01*
X021946Y010246D02*
X021763Y010246D01*
X021586Y010364D02*
X022064Y010364D01*
X022273Y010364D02*
X022330Y010364D01*
X022330Y010246D02*
X022273Y010246D01*
X022273Y010127D02*
X022330Y010127D01*
X022539Y010364D02*
X022921Y010364D01*
X022893Y010483D02*
X015546Y010483D01*
X015546Y010601D02*
X022264Y010601D01*
X022006Y010720D02*
X015546Y010720D01*
X015546Y010364D02*
X021356Y010364D01*
X021179Y010246D02*
X014213Y010246D01*
X014332Y010127D02*
X021113Y010127D01*
X021093Y010009D02*
X014450Y010009D01*
X014569Y009890D02*
X018668Y009890D01*
X018601Y009298D02*
X017331Y009298D01*
X017341Y009179D02*
X018699Y009179D01*
X016963Y009014D02*
X012821Y009014D01*
X012243Y009593D01*
X012243Y012101D01*
X012286Y012144D01*
X011908Y012142D02*
X011871Y012142D01*
X011833Y012023D02*
X011908Y012023D01*
X011908Y011905D02*
X011833Y011905D01*
X011833Y011786D02*
X011993Y011786D01*
X012003Y011668D02*
X011833Y011668D01*
X011828Y011549D02*
X012003Y011549D01*
X012003Y011431D02*
X011754Y011431D01*
X011636Y011312D02*
X012003Y011312D01*
X012003Y011194D02*
X011502Y011194D01*
X010861Y012023D02*
X008184Y012023D01*
X008184Y012142D02*
X010861Y012142D01*
X010870Y012260D02*
X008184Y012260D01*
X008184Y012379D02*
X010949Y012379D01*
X011067Y012497D02*
X008167Y012497D01*
X008043Y012616D02*
X011165Y012616D01*
X011249Y012734D02*
X008042Y012734D01*
X008041Y012853D02*
X011367Y012853D01*
X011486Y012971D02*
X008040Y012971D01*
X008039Y013090D02*
X011604Y013090D01*
X012830Y013090D02*
X014080Y013090D01*
X013962Y013208D02*
X009989Y013208D01*
X010004Y013223D02*
X009905Y013124D01*
X009360Y013124D01*
X009254Y013230D01*
X009254Y013775D01*
X009360Y013881D01*
X009905Y013881D01*
X010011Y013775D01*
X010011Y013703D01*
X014094Y013703D01*
X014182Y013667D01*
X014249Y013599D01*
X015070Y012778D01*
X015239Y012778D01*
X015239Y012811D01*
X015344Y012916D01*
X015889Y012916D01*
X015995Y012811D01*
X015995Y012361D01*
X017250Y012361D01*
X017250Y012376D01*
X017246Y012379D01*
X017246Y012925D01*
X017352Y013030D01*
X017646Y013030D01*
X017661Y013045D01*
X017718Y013111D01*
X017727Y013112D01*
X017734Y013118D01*
X017821Y013118D01*
X017908Y013125D01*
X017915Y013118D01*
X021211Y013118D01*
X021211Y013161D01*
X021316Y013266D01*
X021862Y013266D01*
X021967Y013161D01*
X021967Y012616D01*
X021862Y012510D01*
X021316Y012510D01*
X021211Y012616D01*
X021211Y012658D01*
X018003Y012658D01*
X018003Y012397D01*
X018007Y012393D01*
X018007Y011848D01*
X017901Y011743D01*
X017356Y011743D01*
X017250Y011848D01*
X017250Y011881D01*
X015058Y011881D01*
X015058Y011828D01*
X014952Y011723D01*
X014407Y011723D01*
X014302Y011828D01*
X014302Y012374D01*
X014407Y012479D01*
X014691Y012479D01*
X013946Y013223D01*
X010004Y013223D01*
X009672Y013463D02*
X009632Y013503D01*
X009672Y013463D02*
X014046Y013463D01*
X014971Y012538D01*
X015617Y012538D01*
X015995Y012497D02*
X017246Y012497D01*
X017247Y012379D02*
X015995Y012379D01*
X015995Y012616D02*
X017246Y012616D01*
X017246Y012734D02*
X015995Y012734D01*
X015953Y012853D02*
X017246Y012853D01*
X017293Y012971D02*
X014877Y012971D01*
X014759Y013090D02*
X017699Y013090D01*
X018003Y012616D02*
X021211Y012616D01*
X021258Y013208D02*
X014640Y013208D01*
X014522Y013327D02*
X028557Y013327D01*
X028557Y013445D02*
X014403Y013445D01*
X014285Y013564D02*
X028557Y013564D01*
X028557Y013682D02*
X021817Y013682D01*
X021826Y013690D02*
X021826Y014236D01*
X021720Y014341D01*
X021409Y014341D01*
X021250Y014500D01*
X021250Y015113D01*
X021214Y015201D01*
X021146Y015269D01*
X020579Y015836D01*
X020491Y015872D01*
X019030Y015872D01*
X019030Y015905D01*
X018925Y016011D01*
X018379Y016011D01*
X018274Y015905D01*
X018274Y015360D01*
X018379Y015254D01*
X018925Y015254D01*
X019030Y015360D01*
X019030Y015392D01*
X020344Y015392D01*
X020770Y014966D01*
X020770Y014352D01*
X020807Y014264D01*
X021069Y014002D01*
X021069Y013690D01*
X021175Y013585D01*
X021720Y013585D01*
X021826Y013690D01*
X021826Y013801D02*
X028557Y013801D01*
X028557Y013919D02*
X021826Y013919D01*
X021826Y014038D02*
X028557Y014038D01*
X028557Y014156D02*
X021826Y014156D01*
X021787Y014275D02*
X028557Y014275D01*
X028557Y014393D02*
X026382Y014393D01*
X026569Y014512D02*
X028557Y014512D01*
X028557Y014630D02*
X026680Y014630D01*
X026729Y014749D02*
X028557Y014749D01*
X028557Y014867D02*
X026769Y014867D01*
X026769Y014986D02*
X028557Y014986D01*
X028557Y015104D02*
X026764Y015104D01*
X026715Y015223D02*
X028557Y015223D01*
X028557Y015341D02*
X026655Y015341D01*
X026536Y015460D02*
X028557Y015460D01*
X028557Y015578D02*
X026303Y015578D01*
X026071Y015697D02*
X028557Y015697D01*
X028557Y015815D02*
X026120Y015815D01*
X026136Y015934D02*
X028557Y015934D01*
X028557Y016052D02*
X026133Y016052D01*
X026084Y016171D02*
X028557Y016171D01*
X028557Y016289D02*
X025995Y016289D01*
X025317Y016289D02*
X024187Y016289D01*
X024280Y016171D02*
X025228Y016171D01*
X025179Y016052D02*
X024326Y016052D01*
X024316Y015815D02*
X025192Y015815D01*
X025176Y015934D02*
X023916Y015934D01*
X023836Y015934D02*
X019002Y015934D01*
X018652Y015632D02*
X020443Y015632D01*
X021010Y015066D01*
X021010Y014400D01*
X021447Y013963D01*
X021069Y013919D02*
X007977Y013919D01*
X007924Y014038D02*
X021034Y014038D01*
X020915Y014156D02*
X007924Y014156D01*
X007924Y014275D02*
X020803Y014275D01*
X020770Y014393D02*
X007306Y014393D01*
X007306Y014512D02*
X020770Y014512D01*
X020770Y014630D02*
X007306Y014630D01*
X007306Y014749D02*
X020770Y014749D01*
X020770Y014867D02*
X007306Y014867D01*
X007306Y014986D02*
X020751Y014986D01*
X020632Y015104D02*
X015400Y015104D01*
X015459Y015223D02*
X020514Y015223D01*
X020395Y015341D02*
X019012Y015341D01*
X018293Y015341D02*
X015459Y015341D01*
X015459Y015460D02*
X018274Y015460D01*
X018274Y015578D02*
X015459Y015578D01*
X015459Y015697D02*
X018274Y015697D01*
X018274Y015815D02*
X013887Y015815D01*
X013959Y015934D02*
X018302Y015934D01*
X020600Y015815D02*
X023436Y015815D01*
X023491Y015697D02*
X020719Y015697D01*
X020837Y015578D02*
X023229Y015578D01*
X023262Y015592D02*
X023034Y015497D01*
X022859Y015322D01*
X022764Y015093D01*
X022764Y014845D01*
X022859Y014617D01*
X023034Y014441D01*
X023262Y014347D01*
X023510Y014347D01*
X023739Y014441D01*
X023914Y014617D01*
X024009Y014845D01*
X024009Y015093D01*
X023914Y015322D01*
X023739Y015497D01*
X023510Y015592D01*
X023262Y015592D01*
X023543Y015578D02*
X023605Y015578D01*
X023776Y015460D02*
X025756Y015460D01*
X025638Y015341D02*
X023895Y015341D01*
X023955Y015223D02*
X025577Y015223D01*
X025528Y015104D02*
X024004Y015104D01*
X024009Y014986D02*
X025524Y014986D01*
X025524Y014867D02*
X024009Y014867D01*
X023969Y014749D02*
X025564Y014749D01*
X025613Y014630D02*
X023920Y014630D01*
X023809Y014512D02*
X025724Y014512D01*
X025911Y014393D02*
X023622Y014393D01*
X023151Y014393D02*
X021357Y014393D01*
X021250Y014512D02*
X022964Y014512D01*
X022853Y014630D02*
X021250Y014630D01*
X021250Y014749D02*
X022804Y014749D01*
X022764Y014867D02*
X021250Y014867D01*
X021250Y014986D02*
X022764Y014986D01*
X022768Y015104D02*
X021250Y015104D01*
X021193Y015223D02*
X022817Y015223D01*
X022878Y015341D02*
X021074Y015341D01*
X020956Y015460D02*
X022996Y015460D01*
X023427Y016052D02*
X013959Y016052D01*
X014703Y015697D02*
X009696Y015697D01*
X009648Y015815D02*
X013275Y015815D01*
X013203Y015934D02*
X003281Y015934D01*
X003399Y016052D02*
X004527Y016052D01*
X005195Y016052D02*
X013203Y016052D01*
X011971Y016636D02*
X011495Y016636D01*
X011298Y016947D01*
X003589Y016916D01*
X003345Y016672D01*
X003207Y016554D01*
X002668Y016014D01*
X002432Y015538D01*
X002392Y015499D01*
X002046Y016160D02*
X001495Y015609D01*
X001495Y015254D01*
X002392Y014121D01*
X002700Y012023D02*
X000731Y012023D01*
X000731Y011905D02*
X002700Y011905D01*
X002058Y011786D02*
X000731Y011786D01*
X000731Y011668D02*
X001939Y011668D01*
X001890Y011549D02*
X000731Y011549D01*
X000731Y011431D02*
X001858Y011431D01*
X001858Y011312D02*
X000731Y011312D01*
X000731Y011194D02*
X001885Y011194D01*
X001934Y011075D02*
X000731Y011075D01*
X000731Y010957D02*
X002045Y010957D01*
X002268Y010838D02*
X000731Y010838D01*
X000731Y010720D02*
X002700Y010720D01*
X002700Y010838D02*
X002517Y010838D01*
X002700Y010601D02*
X000731Y010601D01*
X000731Y010483D02*
X002193Y010483D01*
X002014Y010364D02*
X000731Y010364D01*
X000731Y010246D02*
X001921Y010246D01*
X001872Y010127D02*
X000731Y010127D01*
X000731Y010009D02*
X001858Y010009D01*
X001858Y009890D02*
X000731Y009890D01*
X000731Y009772D02*
X001903Y009772D01*
X001970Y009653D02*
X000731Y009653D01*
X000731Y009535D02*
X002089Y009535D01*
X003180Y009416D02*
X012080Y009416D01*
X012107Y009390D02*
X012107Y009390D01*
X012199Y009298D02*
X003180Y009298D01*
X003180Y009179D02*
X012317Y009179D01*
X012436Y009061D02*
X003180Y009061D01*
X003180Y008942D02*
X012554Y008942D01*
X012618Y008878D02*
X012618Y008878D01*
X012673Y008824D02*
X003180Y008824D01*
X003149Y007402D02*
X014966Y007402D01*
X014966Y007520D02*
X014520Y007520D01*
X014507Y007511D02*
X014566Y007553D01*
X014617Y007604D01*
X014660Y007663D01*
X014693Y007728D01*
X014715Y007796D01*
X014726Y007864D01*
X014306Y007864D01*
X014306Y007445D01*
X014374Y007455D01*
X014443Y007478D01*
X014507Y007511D01*
X014642Y007639D02*
X014857Y007639D01*
X014808Y007757D02*
X014702Y007757D01*
X014786Y007876D02*
X014306Y007876D01*
X014306Y007864D02*
X014306Y007944D01*
X014226Y007944D01*
X014226Y007864D01*
X013807Y007864D01*
X013818Y007796D01*
X013840Y007728D01*
X013873Y007663D01*
X013915Y007604D01*
X013967Y007553D01*
X014025Y007511D01*
X014090Y007478D01*
X014159Y007455D01*
X014226Y007445D01*
X014226Y007864D01*
X014306Y007864D01*
X014306Y007944D02*
X014726Y007944D01*
X014715Y008012D01*
X014693Y008081D01*
X014660Y008145D01*
X014617Y008204D01*
X014566Y008255D01*
X014507Y008298D01*
X014443Y008330D01*
X014374Y008353D01*
X014306Y008363D01*
X014306Y007944D01*
X014306Y007994D02*
X014226Y007994D01*
X014226Y007944D02*
X014226Y008363D01*
X014159Y008353D01*
X014090Y008330D01*
X014025Y008298D01*
X013967Y008255D01*
X013915Y008204D01*
X013873Y008145D01*
X013840Y008081D01*
X013818Y008012D01*
X013807Y007944D01*
X014226Y007944D01*
X014226Y007876D02*
X013746Y007876D01*
X013746Y007809D02*
X013673Y007632D01*
X013538Y007497D01*
X013362Y007424D01*
X013171Y007424D01*
X012994Y007497D01*
X012859Y007632D01*
X012786Y007809D01*
X012786Y008000D01*
X012859Y008176D01*
X012994Y008311D01*
X013171Y008384D01*
X013362Y008384D01*
X013538Y008311D01*
X013673Y008176D01*
X013746Y008000D01*
X013746Y007809D01*
X013725Y007757D02*
X013830Y007757D01*
X013891Y007639D02*
X013676Y007639D01*
X013561Y007520D02*
X014012Y007520D01*
X014226Y007520D02*
X014306Y007520D01*
X014306Y007639D02*
X014226Y007639D01*
X014226Y007757D02*
X014306Y007757D01*
X014718Y007994D02*
X014786Y007994D01*
X014833Y008113D02*
X014676Y008113D01*
X014590Y008231D02*
X014914Y008231D01*
X015087Y008350D02*
X014384Y008350D01*
X014306Y008350D02*
X014226Y008350D01*
X014149Y008350D02*
X013445Y008350D01*
X013618Y008231D02*
X013943Y008231D01*
X013856Y008113D02*
X013700Y008113D01*
X013746Y007994D02*
X013815Y007994D01*
X014226Y008113D02*
X014306Y008113D01*
X014306Y008231D02*
X014226Y008231D01*
X013087Y008350D02*
X012445Y008350D01*
X012362Y008384D02*
X012538Y008311D01*
X012673Y008176D01*
X012746Y008000D01*
X012746Y007809D01*
X012673Y007632D01*
X012538Y007497D01*
X012362Y007424D01*
X012171Y007424D01*
X011994Y007497D01*
X011859Y007632D01*
X011786Y007809D01*
X011786Y008000D01*
X011859Y008176D01*
X011994Y008311D01*
X012171Y008384D01*
X012362Y008384D01*
X012087Y008350D02*
X011445Y008350D01*
X011618Y008231D02*
X011914Y008231D01*
X011833Y008113D02*
X011700Y008113D01*
X011746Y007994D02*
X011786Y007994D01*
X011786Y007876D02*
X011746Y007876D01*
X011725Y007757D02*
X011808Y007757D01*
X011857Y007639D02*
X011676Y007639D01*
X011561Y007520D02*
X011972Y007520D01*
X012561Y007520D02*
X012972Y007520D01*
X012857Y007639D02*
X012676Y007639D01*
X012725Y007757D02*
X012808Y007757D01*
X012786Y007876D02*
X012746Y007876D01*
X012746Y007994D02*
X012786Y007994D01*
X012833Y008113D02*
X012700Y008113D01*
X012618Y008231D02*
X012914Y008231D01*
X014966Y007283D02*
X003040Y007283D01*
X002927Y007165D02*
X014966Y007165D01*
X015566Y007283D02*
X021266Y007283D01*
X021301Y007248D02*
X021301Y007248D01*
X021301Y007248D01*
X020855Y007046D02*
X020378Y007046D01*
X020522Y006928D02*
X020712Y006928D01*
X020640Y006809D02*
X020593Y006809D01*
X020612Y006454D02*
X020622Y006454D01*
X020671Y006335D02*
X020563Y006335D01*
X020448Y006217D02*
X020785Y006217D01*
X022209Y007520D02*
X022872Y007520D01*
X022878Y007639D02*
X022518Y007639D01*
X022667Y007757D02*
X022927Y007757D01*
X023029Y007876D02*
X022749Y007876D01*
X022777Y007994D02*
X028557Y007994D01*
X028557Y007876D02*
X026182Y007876D01*
X026333Y007813D02*
X025998Y007951D01*
X025637Y007951D01*
X025302Y007813D01*
X025046Y007557D01*
X024908Y007223D01*
X024908Y006861D01*
X025046Y006527D01*
X025302Y006271D01*
X025637Y006132D01*
X025998Y006132D01*
X026333Y006271D01*
X026589Y006527D01*
X026727Y006861D01*
X026727Y007223D01*
X026589Y007557D01*
X026333Y007813D01*
X026389Y007757D02*
X028557Y007757D01*
X028557Y007639D02*
X026507Y007639D01*
X026604Y007520D02*
X028557Y007520D01*
X028557Y007402D02*
X026653Y007402D01*
X026702Y007283D02*
X028557Y007283D01*
X028557Y007165D02*
X026727Y007165D01*
X026727Y007046D02*
X028557Y007046D01*
X028557Y006928D02*
X026727Y006928D01*
X026706Y006809D02*
X028557Y006809D01*
X028557Y006691D02*
X026656Y006691D01*
X026607Y006572D02*
X028557Y006572D01*
X028557Y006454D02*
X026515Y006454D01*
X026397Y006335D02*
X028557Y006335D01*
X028557Y006217D02*
X026202Y006217D01*
X025433Y006217D02*
X024729Y006217D01*
X024712Y006335D02*
X025238Y006335D01*
X025119Y006454D02*
X024661Y006454D01*
X024487Y006572D02*
X025028Y006572D01*
X024978Y006691D02*
X024202Y006691D01*
X023917Y006809D02*
X024929Y006809D01*
X024908Y006928D02*
X023633Y006928D01*
X023348Y007046D02*
X024908Y007046D01*
X024908Y007165D02*
X023578Y007165D01*
X023696Y007283D02*
X024933Y007283D01*
X024982Y007402D02*
X023745Y007402D01*
X023763Y007520D02*
X025031Y007520D01*
X025128Y007639D02*
X023757Y007639D01*
X023708Y007757D02*
X025246Y007757D01*
X025453Y007876D02*
X023606Y007876D01*
X023470Y008113D02*
X028557Y008113D01*
X028557Y008231D02*
X023645Y008231D01*
X023691Y008278D02*
X023759Y008441D01*
X023759Y008619D01*
X023691Y008783D01*
X023566Y008908D01*
X023402Y008976D01*
X023225Y008976D01*
X023061Y008908D01*
X022936Y008783D01*
X022868Y008619D01*
X022868Y008441D01*
X022936Y008278D01*
X023061Y008152D01*
X023225Y008084D01*
X023402Y008084D01*
X023566Y008152D01*
X023691Y008278D01*
X023721Y008350D02*
X028557Y008350D01*
X028557Y008468D02*
X023759Y008468D01*
X023759Y008587D02*
X028557Y008587D01*
X028557Y008705D02*
X023724Y008705D01*
X023650Y008824D02*
X028557Y008824D01*
X028557Y008942D02*
X023484Y008942D01*
X023406Y009084D02*
X023229Y009084D01*
X023065Y009152D01*
X022940Y009278D01*
X022872Y009441D01*
X022872Y009619D01*
X022940Y009783D01*
X023065Y009908D01*
X023229Y009976D01*
X023406Y009976D01*
X023570Y009908D01*
X023695Y009783D01*
X023763Y009619D01*
X023763Y009441D01*
X023695Y009278D01*
X023570Y009152D01*
X023406Y009084D01*
X023597Y009179D02*
X028557Y009179D01*
X028557Y009061D02*
X022755Y009061D01*
X022755Y009119D02*
X022687Y009283D01*
X022562Y009408D01*
X022398Y009476D01*
X022221Y009476D01*
X022057Y009408D01*
X021932Y009283D01*
X021864Y009119D01*
X021864Y008941D01*
X021932Y008778D01*
X022057Y008652D01*
X022221Y008584D01*
X022398Y008584D01*
X022562Y008652D01*
X022687Y008778D01*
X022755Y008941D01*
X022755Y009119D01*
X022730Y009179D02*
X023038Y009179D01*
X022931Y009298D02*
X022673Y009298D01*
X022543Y009416D02*
X022882Y009416D01*
X022872Y009535D02*
X021771Y009535D01*
X021771Y009653D02*
X022069Y009653D01*
X021949Y009772D02*
X021775Y009772D01*
X021834Y009890D02*
X021893Y009890D01*
X022273Y009890D02*
X022330Y009890D01*
X022330Y009772D02*
X022273Y009772D01*
X022273Y009653D02*
X022330Y009653D01*
X022534Y009653D02*
X022886Y009653D01*
X022935Y009772D02*
X022654Y009772D01*
X022710Y009890D02*
X023047Y009890D01*
X023588Y009890D02*
X028557Y009890D01*
X028557Y009772D02*
X023700Y009772D01*
X023749Y009653D02*
X028557Y009653D01*
X028557Y009535D02*
X023763Y009535D01*
X023753Y009416D02*
X028557Y009416D01*
X028557Y009298D02*
X023704Y009298D01*
X023143Y008942D02*
X022755Y008942D01*
X022707Y008824D02*
X022977Y008824D01*
X022904Y008705D02*
X022615Y008705D01*
X022404Y008587D02*
X022868Y008587D01*
X022868Y008468D02*
X022444Y008468D01*
X022636Y008350D02*
X022906Y008350D01*
X022982Y008231D02*
X022720Y008231D01*
X022763Y008113D02*
X023157Y008113D01*
X022191Y008468D02*
X021771Y008468D01*
X021771Y008350D02*
X021999Y008350D01*
X022216Y008587D02*
X021771Y008587D01*
X021771Y008705D02*
X022004Y008705D01*
X021913Y008824D02*
X021771Y008824D01*
X021771Y008942D02*
X021864Y008942D01*
X021864Y009061D02*
X021771Y009061D01*
X021771Y009179D02*
X021889Y009179D01*
X021947Y009298D02*
X021771Y009298D01*
X021771Y009416D02*
X022077Y009416D01*
X022711Y010127D02*
X023156Y010127D01*
X022992Y010246D02*
X022657Y010246D01*
X022722Y010957D02*
X025105Y010957D01*
X025046Y011015D02*
X025302Y010759D01*
X025637Y010620D01*
X025998Y010620D01*
X026333Y010759D01*
X026589Y011015D01*
X026727Y011349D01*
X026727Y011711D01*
X026589Y012045D01*
X026333Y012301D01*
X025998Y012440D01*
X025637Y012440D01*
X025302Y012301D01*
X025046Y012045D01*
X024908Y011711D01*
X024908Y011349D01*
X025046Y011015D01*
X025021Y011075D02*
X022725Y011075D01*
X022694Y011194D02*
X024972Y011194D01*
X024923Y011312D02*
X022618Y011312D01*
X023604Y010838D02*
X025223Y010838D01*
X025397Y010720D02*
X023695Y010720D01*
X023736Y010601D02*
X028557Y010601D01*
X028557Y010483D02*
X023742Y010483D01*
X023714Y010364D02*
X028557Y010364D01*
X028557Y010246D02*
X023643Y010246D01*
X024908Y011668D02*
X013925Y011668D01*
X013562Y011786D02*
X014344Y011786D01*
X014302Y011905D02*
X013550Y011905D01*
X013550Y012023D02*
X014302Y012023D01*
X014302Y012142D02*
X013550Y012142D01*
X013550Y012260D02*
X014302Y012260D01*
X014307Y012379D02*
X013550Y012379D01*
X013550Y012497D02*
X014673Y012497D01*
X014554Y012616D02*
X013521Y012616D01*
X013414Y012734D02*
X014436Y012734D01*
X014317Y012853D02*
X013295Y012853D01*
X013177Y012971D02*
X014199Y012971D01*
X014996Y012853D02*
X015281Y012853D01*
X014699Y012121D02*
X014680Y012101D01*
X014699Y012121D02*
X017629Y012121D01*
X018007Y012142D02*
X025143Y012142D01*
X025037Y012023D02*
X018007Y012023D01*
X018007Y011905D02*
X024988Y011905D01*
X024939Y011786D02*
X017945Y011786D01*
X018007Y012260D02*
X025261Y012260D01*
X025489Y012379D02*
X018007Y012379D01*
X018003Y012497D02*
X028557Y012497D01*
X028557Y012379D02*
X026146Y012379D01*
X026374Y012260D02*
X028557Y012260D01*
X028557Y012142D02*
X026492Y012142D01*
X026598Y012023D02*
X028557Y012023D01*
X028557Y011905D02*
X026647Y011905D01*
X026696Y011786D02*
X028557Y011786D01*
X028557Y011668D02*
X026727Y011668D01*
X026727Y011549D02*
X028557Y011549D01*
X028557Y011431D02*
X026727Y011431D01*
X026712Y011312D02*
X028557Y011312D01*
X028557Y011194D02*
X026663Y011194D01*
X026614Y011075D02*
X028557Y011075D01*
X028557Y010957D02*
X026530Y010957D01*
X026412Y010838D02*
X028557Y010838D01*
X028557Y010720D02*
X026238Y010720D01*
X028557Y012616D02*
X021967Y012616D01*
X021967Y012734D02*
X028557Y012734D01*
X028557Y012853D02*
X021967Y012853D01*
X021967Y012971D02*
X028557Y012971D01*
X028557Y013090D02*
X021967Y013090D01*
X021920Y013208D02*
X028557Y013208D01*
X025989Y015578D02*
X025964Y015578D01*
X025349Y015578D02*
X024148Y015578D01*
X024261Y015697D02*
X025241Y015697D01*
X023916Y015697D02*
X023836Y015697D01*
X023836Y015815D02*
X023916Y015815D01*
X023916Y016052D02*
X023836Y016052D01*
X023836Y016171D02*
X023916Y016171D01*
X023916Y016289D02*
X023836Y016289D01*
X023836Y015578D02*
X023916Y015578D01*
X021069Y013801D02*
X009985Y013801D01*
X009280Y013801D02*
X008034Y013801D01*
X008034Y013682D02*
X009254Y013682D01*
X009254Y013564D02*
X008035Y013564D01*
X008036Y013445D02*
X009254Y013445D01*
X009254Y013327D02*
X008037Y013327D01*
X008038Y013208D02*
X009276Y013208D01*
X007794Y013762D02*
X007806Y012207D01*
X007794Y013762D02*
X007546Y014010D01*
X007306Y015104D02*
X014762Y015104D01*
X015081Y015436D02*
X009377Y015436D01*
X009317Y015495D01*
X008939Y015341D02*
X007652Y015341D01*
X007641Y015223D02*
X008939Y015223D01*
X014145Y013682D02*
X021078Y013682D01*
X017312Y011786D02*
X015016Y011786D01*
X021925Y007639D02*
X022117Y007639D01*
X022494Y007402D02*
X022890Y007402D01*
X022939Y007283D02*
X022779Y007283D01*
X024752Y006098D02*
X028557Y006098D01*
X028557Y005980D02*
X024774Y005980D01*
X024797Y005861D02*
X028557Y005861D01*
X028557Y005743D02*
X024819Y005743D01*
X024842Y005624D02*
X025439Y005624D01*
X025268Y005506D02*
X024974Y005506D01*
X025054Y005387D02*
X025187Y005387D01*
X025141Y005269D02*
X025101Y005269D01*
X025101Y005150D02*
X025141Y005150D01*
X025162Y005032D02*
X025079Y005032D01*
X025030Y004913D02*
X025212Y004913D01*
X025327Y004795D02*
X024914Y004795D01*
X025914Y004795D02*
X025952Y004795D01*
X026030Y004913D02*
X026070Y004913D01*
X026079Y005032D02*
X026162Y005032D01*
X026141Y005150D02*
X026101Y005150D01*
X026101Y005269D02*
X026141Y005269D01*
X026187Y005387D02*
X026054Y005387D01*
X025974Y005506D02*
X026268Y005506D01*
X026439Y005624D02*
X025802Y005624D01*
X026802Y005624D02*
X027500Y005624D01*
X027513Y005628D02*
X027444Y005606D01*
X027380Y005573D01*
X027321Y005531D01*
X027270Y005479D01*
X027227Y005421D01*
X027194Y005356D01*
X027172Y005287D01*
X027161Y005220D01*
X027581Y005220D01*
X027581Y005639D01*
X027513Y005628D01*
X027581Y005624D02*
X027661Y005624D01*
X027661Y005639D02*
X027661Y005220D01*
X028080Y005220D01*
X028069Y005287D01*
X028047Y005356D01*
X028014Y005421D01*
X027971Y005479D01*
X027920Y005531D01*
X027862Y005573D01*
X027797Y005606D01*
X027728Y005628D01*
X027661Y005639D01*
X027742Y005624D02*
X028557Y005624D01*
X028557Y005506D02*
X027945Y005506D01*
X028031Y005387D02*
X028557Y005387D01*
X028557Y005269D02*
X028072Y005269D01*
X028080Y005140D02*
X027661Y005140D01*
X027661Y005220D01*
X027581Y005220D01*
X027581Y005140D01*
X027161Y005140D01*
X027172Y005072D01*
X027194Y005003D01*
X027227Y004939D01*
X027270Y004880D01*
X027321Y004829D01*
X027380Y004786D01*
X027444Y004753D01*
X027513Y004731D01*
X027581Y004720D01*
X027581Y005140D01*
X027661Y005140D01*
X027661Y004720D01*
X027728Y004731D01*
X027797Y004753D01*
X027862Y004786D01*
X027920Y004829D01*
X027971Y004880D01*
X028014Y004939D01*
X028047Y005003D01*
X028069Y005072D01*
X028080Y005140D01*
X028056Y005032D02*
X028557Y005032D01*
X028557Y005150D02*
X027661Y005150D01*
X027581Y005150D02*
X027101Y005150D01*
X027101Y005269D02*
X027169Y005269D01*
X027210Y005387D02*
X027054Y005387D01*
X026974Y005506D02*
X027296Y005506D01*
X027581Y005506D02*
X027661Y005506D01*
X027661Y005387D02*
X027581Y005387D01*
X027581Y005269D02*
X027661Y005269D01*
X027661Y005032D02*
X027581Y005032D01*
X027581Y004913D02*
X027661Y004913D01*
X027661Y004795D02*
X027581Y004795D01*
X027368Y004795D02*
X026914Y004795D01*
X027030Y004913D02*
X027246Y004913D01*
X027185Y005032D02*
X027079Y005032D01*
X026456Y004676D02*
X028557Y004676D01*
X028557Y004558D02*
X026337Y004558D01*
X026219Y004439D02*
X028557Y004439D01*
X028557Y004321D02*
X026100Y004321D01*
X027873Y004795D02*
X028557Y004795D01*
X028557Y004913D02*
X027995Y004913D01*
X028557Y003491D02*
X022837Y003491D01*
X022837Y003373D02*
X028557Y003373D01*
X028557Y003254D02*
X022837Y003254D01*
X022837Y003136D02*
X028557Y003136D01*
X028557Y003017D02*
X022813Y003017D01*
X028557Y002899D02*
X002888Y002899D01*
X002831Y002780D02*
X028557Y002780D01*
X028557Y002662D02*
X002712Y002662D01*
X002893Y001595D02*
X028557Y001595D01*
X028557Y001477D02*
X002846Y001477D01*
X002759Y001358D02*
X028557Y001358D01*
X028557Y002425D02*
X000731Y002425D01*
X000731Y002543D02*
X028557Y002543D01*
X012589Y005387D02*
X002664Y005387D01*
X002801Y005506D02*
X012514Y005506D01*
X012396Y005624D02*
X002876Y005624D01*
X002925Y005743D02*
X012277Y005743D01*
X012159Y005861D02*
X002927Y005861D01*
X002918Y005980D02*
X012040Y005980D01*
X011922Y006098D02*
X002869Y006098D01*
X002784Y006217D02*
X011803Y006217D01*
X002700Y010483D02*
X002592Y010483D01*
X002075Y004913D02*
X000731Y004913D01*
X000731Y004795D02*
X001956Y004795D01*
X001897Y004676D02*
X000731Y004676D01*
X000731Y004558D02*
X001858Y004558D01*
X001858Y004439D02*
X000731Y004439D01*
X000731Y004321D02*
X001878Y004321D01*
X001927Y004202D02*
X000731Y004202D01*
X000731Y004084D02*
X002028Y004084D01*
X002082Y016408D02*
X000731Y016408D01*
X000731Y016526D02*
X001987Y016526D01*
X001910Y016645D02*
X000731Y016645D01*
X000731Y016763D02*
X001861Y016763D01*
X001858Y016882D02*
X000731Y016882D01*
X000731Y017000D02*
X001865Y017000D01*
X001914Y017119D02*
X000731Y017119D01*
X000731Y017237D02*
X001997Y017237D01*
D21*
X017625Y012652D02*
X017829Y012888D01*
X021589Y012888D01*
D22*
X021093Y006609D02*
X020971Y006503D01*
X022971Y004503D01*
X025971Y004503D01*
X026471Y005003D01*
X026621Y005180D01*
X020140Y006609D02*
X019971Y006503D01*
X019471Y006003D01*
X018471Y006003D01*
X016471Y004003D01*
M02*
